<svg xmlns="http://www.w3.org/2000/svg" xmlns:xlink="http://www.w3.org/1999/xlink" width="185" zoomAndPan="magnify" viewBox="0 0 138.75 202.499994" height="270" preserveAspectRatio="xMidYMid meet" version="1.0"><defs><filter x="0%" y="0%" width="100%" height="100%" id="8c1785120f"><feColorMatrix values="0 0 0 0 1 0 0 0 0 1 0 0 0 0 1 0 0 0 1 0" color-interpolation-filters="sRGB"/></filter><mask id="6591e83f1f"><g filter="url(#8c1785120f)"><rect x="-13.875" width="166.5" fill="#000000" y="-20.249999" height="242.999993" fill-opacity="0.698"/></g></mask><clipPath id="2b79db3acc"><rect x="0" width="18" y="0" height="19"/></clipPath><mask id="c5c5cd7a66"><g filter="url(#8c1785120f)"><rect x="-13.875" width="166.5" fill="#000000" y="-20.249999" height="242.999993" fill-opacity="0.698"/></g></mask><clipPath id="f4c36c5da2"><rect x="0" width="8" y="0" height="9"/></clipPath><clipPath id="37119b0e74"><path d="M 0.683594 84 L 77 84 L 77 131 L 0.683594 131 Z M 0.683594 84 " clip-rule="nonzero"/></clipPath><clipPath id="bb1f5fe761"><path d="M 55.96875 27.335938 L 76.519531 27.335938 L 76.519531 69.417969 L 55.96875 69.417969 Z M 55.96875 27.335938 " clip-rule="nonzero"/></clipPath><clipPath id="3a9f77f367"><path d="M 55.96875 27.335938 L 66 27.335938 L 66 69.417969 L 55.96875 69.417969 Z M 55.96875 27.335938 " clip-rule="nonzero"/></clipPath></defs><path fill="#ffffff" d="M 130.289062 144.152344 C 123.816406 152.617188 106.964844 149.683594 106.964844 149.683594 L 106.820312 92.449219 L 106.789062 80.894531 C 106.789062 80.894531 116.40625 81.148438 123.707031 84.179688 C 127.226562 85.636719 130.207031 87.738281 131.328125 90.769531 C 135.207031 101.285156 135.605469 137.191406 130.289062 144.152344 Z M 130.289062 144.152344 " fill-opacity="1" fill-rule="nonzero"/><path fill="#371a45" d="M 134.230469 114.648438 C 134.457031 127.195312 133.277344 140.242188 130.289062 144.152344 C 123.816406 152.617188 106.957031 149.6875 106.957031 149.6875 L 106.785156 80.902344 C 106.785156 80.902344 106.964844 80.910156 107.289062 80.921875 L 107.425781 134.554688 C 107.425781 134.554688 124.285156 137.488281 130.757812 129.015625 C 132.503906 126.722656 133.640625 121.285156 134.230469 114.648438 Z M 134.230469 114.648438 " fill-opacity="0.349" fill-rule="nonzero"/><path fill="#371a45" d="M 113.589844 151.398438 C 109.859375 151.398438 107.035156 150.929688 106.753906 150.878906 C 106.097656 150.761719 105.664062 150.140625 105.773438 149.488281 C 105.878906 148.835938 106.507812 148.390625 107.160156 148.5 C 107.316406 148.53125 123.375 151.203125 129.328125 143.417969 C 134.246094 136.980469 134.132812 101.867188 130.1875 91.1875 C 127.074219 82.75 106.949219 82.105469 106.746094 82.105469 C 106.082031 82.089844 105.5625 81.53125 105.578125 80.863281 C 105.589844 80.199219 106.140625 79.660156 106.8125 79.691406 C 107.707031 79.710938 128.765625 80.394531 132.449219 90.355469 C 134.332031 95.457031 135.539062 106.890625 135.453125 118.808594 C 135.410156 125.050781 134.910156 140.085938 131.234375 144.890625 C 127.109375 150.292969 119.285156 151.398438 113.589844 151.398438 Z M 113.589844 151.398438 " fill-opacity="1" fill-rule="nonzero"/><path fill="#ffffff" d="M 132.996094 119.925781 L 121.511719 120.785156 C 120.484375 120.867188 119.640625 121.628906 119.460938 122.640625 C 118.789062 126.363281 117.683594 135.03125 121.289062 137.894531 C 124.277344 140.273438 129.140625 139.988281 131.984375 137.574219 C 135.171875 134.871094 135.480469 126.367188 135.429688 122.15625 C 135.410156 120.84375 134.296875 119.828125 132.996094 119.925781 Z M 132.996094 119.925781 " fill-opacity="1" fill-rule="nonzero"/><path fill="#371a45" d="M 119.453125 122.640625 C 118.78125 126.363281 117.675781 135.03125 121.28125 137.894531 C 124.269531 140.273438 129.132812 139.988281 131.976562 137.574219 C 133.9375 135.910156 134.808594 132.050781 135.179688 128.355469 C 134.660156 130.203125 133.847656 131.703125 132.839844 132.691406 C 127.050781 138.335938 122.726562 131.683594 122.726562 131.683594 C 122.726562 131.683594 121.972656 133.300781 121.375 133.394531 C 118.875 133.777344 119.394531 125.917969 119.757812 121.867188 C 119.613281 122.089844 119.503906 122.351562 119.453125 122.640625 Z M 119.453125 122.640625 " fill-opacity="0.349" fill-rule="nonzero"/><path fill="#371a45" d="M 126.34375 140.75 C 124.234375 140.75 122.148438 140.121094 120.535156 138.84375 C 116.558594 135.683594 117.410156 127.203125 118.269531 122.433594 C 118.550781 120.882812 119.84375 119.707031 121.417969 119.589844 L 132.902344 118.726562 C 133.855469 118.65625 134.800781 118.988281 135.503906 119.625 C 136.203125 120.265625 136.617188 121.191406 136.621094 122.140625 C 136.695312 128.042969 136.082031 135.667969 132.75 138.496094 C 130.996094 139.988281 128.65625 140.75 126.34375 140.75 Z M 133.082031 121.128906 L 121.597656 121.988281 C 121.121094 122.027344 120.722656 122.382812 120.636719 122.851562 C 119.351562 129.964844 119.878906 135.234375 122.03125 136.945312 C 124.503906 138.910156 128.707031 138.773438 131.207031 136.648438 C 133.183594 134.964844 134.3125 129.550781 134.226562 122.164062 C 134.21875 121.867188 134.101562 121.589844 133.886719 121.394531 C 133.660156 121.199219 133.378906 121.105469 133.082031 121.128906 Z M 132.996094 119.925781 Z M 132.996094 119.925781 " fill-opacity="1" fill-rule="nonzero"/><path fill="#371a45" d="M 123.792969 124.859375 C 123.925781 126.3125 123.925781 127.6875 124.019531 129.058594 C 124.105469 130.421875 124.265625 131.761719 124.601562 133.023438 C 124.9375 134.277344 125.457031 135.445312 126.234375 136.320312 C 127.007812 137.199219 128.035156 137.757812 129.191406 138.027344 L 129.199219 138.027344 C 129.847656 138.175781 130.246094 138.828125 130.09375 139.476562 C 129.941406 140.121094 129.292969 140.527344 128.648438 140.375 C 128.621094 140.367188 128.589844 140.359375 128.570312 140.351562 C 127.8125 140.113281 127.066406 139.78125 126.378906 139.332031 C 125.703125 138.878906 125.09375 138.308594 124.601562 137.671875 C 123.613281 136.378906 123.101562 134.886719 122.820312 133.4375 C 122.539062 131.980469 122.472656 130.53125 122.472656 129.109375 C 122.464844 127.695312 122.566406 126.28125 122.539062 124.953125 L 122.539062 124.941406 C 122.53125 124.585938 122.804688 124.296875 123.160156 124.289062 C 123.476562 124.273438 123.757812 124.535156 123.792969 124.859375 Z M 123.792969 124.859375 " fill-opacity="1" fill-rule="nonzero"/><path fill="#371a45" d="M 126.207031 90.382812 C 125.152344 90.46875 124.074219 90.601562 123.015625 90.746094 C 121.953125 90.898438 120.890625 91.070312 119.84375 91.273438 C 118.789062 91.472656 117.75 91.703125 116.707031 91.957031 C 115.667969 92.203125 114.648438 92.5 113.636719 92.8125 L 113.617188 92.820312 C 112.980469 93.015625 112.308594 92.652344 112.113281 92.015625 C 111.917969 91.375 112.28125 90.703125 112.917969 90.507812 C 112.960938 90.492188 112.996094 90.484375 113.039062 90.476562 C 114.128906 90.265625 115.21875 90.070312 116.316406 89.925781 C 117.410156 89.773438 118.507812 89.660156 119.605469 89.570312 C 120.703125 89.476562 121.792969 89.410156 122.890625 89.375 C 123.988281 89.339844 125.074219 89.324219 126.183594 89.355469 C 126.472656 89.359375 126.699219 89.601562 126.691406 89.882812 C 126.683594 90.152344 126.472656 90.367188 126.214844 90.390625 Z M 126.207031 90.382812 " fill-opacity="1" fill-rule="nonzero"/><path fill="#371a45" d="M 123.699219 84.183594 C 118.664062 88.027344 112.917969 90.832031 106.8125 92.457031 L 106.785156 80.902344 C 106.785156 80.894531 116.398438 81.15625 123.699219 84.183594 Z M 123.699219 84.183594 " fill-opacity="0.349" fill-rule="nonzero"/><path fill="#ffffff" d="M 84.382812 186.828125 C 79.472656 198.253906 58.4375 196.367188 53.128906 191.640625 C 47.691406 186.789062 57.519531 180.746094 57.519531 180.746094 C 53.136719 173.269531 53.007812 158.996094 53.460938 149.835938 C 53.707031 144.8125 54.140625 141.316406 54.140625 141.316406 L 85.144531 124.476562 C 85.121094 130.8125 84.066406 136.226562 83.121094 140.5625 C 81.113281 149.785156 81.234375 156.878906 82.050781 162.679688 C 83.566406 173.429688 87.441406 179.722656 84.382812 186.828125 Z M 84.382812 186.828125 " fill-opacity="1" fill-rule="nonzero"/><path fill="#371a45" d="M 84.382812 186.828125 C 79.472656 198.253906 58.4375 196.367188 53.128906 191.640625 C 51.417969 190.109375 51.214844 188.464844 51.75 186.929688 C 58.921875 191.167969 77.191406 194.382812 80.738281 183.578125 C 82.46875 178.292969 79.082031 174.640625 77.234375 167.5 C 76.453125 164.492188 74.078125 162.152344 71.078125 161.375 C 64.714844 159.722656 56.890625 156.277344 53.65625 150.210938 C 53.589844 150.089844 53.527344 149.957031 53.460938 149.820312 C 53.707031 144.796875 54.140625 141.300781 54.140625 141.300781 L 81.890625 126.230469 L 85.144531 124.460938 C 85.121094 130.796875 84.066406 136.214844 83.121094 140.546875 C 82.976562 141.222656 82.839844 141.890625 82.707031 142.542969 C 82.578125 143.195312 82.46875 143.839844 82.367188 144.46875 C 82.316406 144.789062 82.269531 145.101562 82.222656 145.40625 C 82.078125 146.339844 81.964844 147.246094 81.871094 148.128906 C 81.835938 148.429688 81.804688 148.71875 81.785156 149.007812 C 81.726562 149.566406 81.683594 150.109375 81.648438 150.652344 C 81.53125 152.320312 81.488281 153.902344 81.503906 155.402344 C 81.503906 155.5625 81.507812 155.726562 81.507812 155.886719 C 81.515625 156.214844 81.523438 156.539062 81.539062 156.867188 C 81.550781 157.308594 81.574219 157.734375 81.601562 158.164062 C 81.625 158.476562 81.648438 158.78125 81.667969 159.085938 C 81.683594 159.289062 81.703125 159.484375 81.71875 159.679688 C 81.734375 159.851562 81.746094 160.027344 81.769531 160.195312 C 81.785156 160.351562 81.796875 160.511719 81.820312 160.671875 C 81.890625 161.351562 81.972656 162.003906 82.066406 162.652344 C 83.566406 173.429688 87.441406 179.722656 84.382812 186.828125 Z M 84.382812 186.828125 " fill-opacity="0.349" fill-rule="nonzero"/><path fill="#371a45" d="M 82.714844 142.554688 C 82.59375 143.207031 82.476562 143.855469 82.375 144.484375 C 82.476562 143.855469 82.59375 143.214844 82.714844 142.554688 Z M 82.714844 142.554688 " fill-opacity="0.349" fill-rule="nonzero"/><path fill="#371a45" d="M 67.113281 196.546875 C 60.816406 196.546875 54.871094 194.808594 52.335938 192.546875 C 50.472656 190.886719 50.203125 189.125 50.3125 187.945312 C 50.609375 184.550781 54.15625 181.621094 55.945312 180.355469 C 49.75 168.089844 52.820312 142.289062 52.960938 141.171875 C 53.042969 140.511719 53.640625 140.039062 54.304688 140.121094 C 54.964844 140.199219 55.433594 140.800781 55.355469 141.46875 C 55.316406 141.746094 52.066406 169.042969 58.574219 180.136719 C 58.90625 180.703125 58.726562 181.433594 58.171875 181.773438 C 56.734375 182.660156 52.949219 185.535156 52.722656 188.160156 C 52.644531 189.089844 53.042969 189.9375 53.953125 190.742188 C 56.941406 193.410156 65.835938 195.148438 73.265625 193.496094 C 76.777344 192.714844 81.371094 190.835938 83.300781 186.355469 C 85.199219 181.941406 84.203125 177.882812 82.824219 172.261719 C 80.980469 164.746094 78.683594 155.394531 81.972656 140.316406 C 82.996094 135.617188 83.945312 130.449219 83.964844 124.484375 C 83.964844 123.816406 84.515625 123.28125 85.171875 123.28125 C 85.835938 123.28125 86.371094 123.824219 86.371094 124.492188 C 86.347656 130.6875 85.375 136.011719 84.320312 140.839844 C 81.148438 155.371094 83.371094 164.417969 85.15625 171.699219 C 86.59375 177.546875 87.726562 182.164062 85.511719 187.320312 C 83.660156 191.613281 79.609375 194.5625 73.789062 195.867188 C 71.589844 196.332031 69.332031 196.546875 67.113281 196.546875 Z M 67.113281 196.546875 " fill-opacity="1" fill-rule="nonzero"/><path fill="#371a45" d="M 75.832031 171.921875 C 68.992188 171.921875 59.652344 171.15625 53.324219 167.585938 C 52.890625 167.339844 52.738281 166.789062 52.976562 166.355469 C 53.222656 165.921875 53.773438 165.769531 54.207031 166.007812 C 64.535156 171.835938 84.269531 169.710938 84.464844 169.699219 C 84.953125 169.648438 85.402344 170 85.460938 170.496094 C 85.519531 170.988281 85.15625 171.4375 84.664062 171.496094 C 84.320312 171.53125 80.707031 171.921875 75.832031 171.921875 Z M 75.832031 171.921875 " fill-opacity="1" fill-rule="nonzero"/><path fill="#ffffff" d="M 118.203125 124.839844 C 118.082031 129.484375 117.503906 133.421875 116.46875 136.46875 C 116.433594 136.566406 116.40625 136.664062 116.367188 136.757812 C 115.703125 138.632812 114.882812 140.410156 113.90625 142.0625 C 110.769531 147.414062 106.089844 151.523438 100.40625 154.0625 C 97.839844 155.207031 90.941406 158.039062 81.691406 158.148438 C 80.46875 158.164062 79.199219 158.128906 77.898438 158.039062 C 72.132812 157.632812 58.25 154.3125 53.65625 145.679688 C 50.578125 139.894531 51.316406 123.257812 55.078125 97.996094 C 56.574219 87.984375 58.539062 76.601562 60.9375 64.019531 L 105.84375 66.453125 C 109.085938 74.980469 111.671875 83.222656 113.625 90.949219 C 116.960938 104.15625 118.441406 115.84375 118.203125 124.839844 Z M 118.203125 124.839844 " fill-opacity="1" fill-rule="nonzero"/><path fill="#371a45" d="M 116.367188 136.765625 C 113.574219 144.722656 107.851562 150.746094 100.414062 154.066406 C 97.515625 155.367188 89.042969 158.832031 77.90625 158.046875 C 72.140625 157.640625 58.257812 154.320312 53.664062 145.6875 C 52.234375 143.003906 51.625 137.988281 51.765625 130.863281 C 51.878906 135.097656 52.5 138.15625 53.664062 139.953125 C 58.257812 147.035156 72.140625 149.761719 77.90625 150.09375 C 89.050781 150.742188 97.515625 147.898438 100.414062 146.832031 C 107.851562 144.109375 113.574219 139.164062 116.367188 132.640625 C 117.53125 129.921875 118.160156 126.316406 118.21875 122.003906 C 118.296875 128.050781 117.667969 133.074219 116.367188 136.765625 Z M 116.367188 136.765625 " fill-opacity="0.349" fill-rule="nonzero"/><path fill="#371a45" d="M 53.007812 113.785156 C 52.277344 120.375 51.851562 126.09375 51.765625 130.855469 C 51.640625 126.417969 52.074219 120.683594 53.007812 113.785156 Z M 53.007812 113.785156 " fill-opacity="0.349" fill-rule="nonzero"/><path fill="#371a45" d="M 118.21875 121.996094 C 118.1875 119.4375 118.03125 116.691406 117.75 113.777344 C 118.101562 116.734375 118.261719 119.480469 118.21875 121.996094 Z M 118.21875 121.996094 " fill-opacity="0.349" fill-rule="nonzero"/><path fill="#371a45" d="M 81.199219 159.367188 C 80.101562 159.367188 78.972656 159.332031 77.816406 159.25 C 77.78125 159.25 77.746094 159.242188 77.71875 159.238281 L 72.226562 158.367188 C 71.570312 158.265625 71.121094 157.640625 71.230469 156.988281 C 71.332031 156.328125 71.945312 155.878906 72.601562 155.980469 L 78.042969 156.84375 C 87.484375 157.496094 95.152344 155.097656 99.929688 152.964844 C 107.179688 149.734375 112.613281 143.832031 115.242188 136.359375 C 119.046875 125.535156 117.273438 99.859375 104.730469 66.890625 C 104.492188 66.265625 104.804688 65.570312 105.425781 65.332031 C 106.046875 65.089844 106.738281 65.402344 106.980469 66.027344 C 118.023438 95.066406 122.253906 123.648438 117.511719 137.15625 C 114.664062 145.261719 108.761719 151.652344 100.902344 155.164062 C 96.445312 157.15625 89.605469 159.367188 81.199219 159.367188 Z M 81.199219 159.367188 " fill-opacity="1" fill-rule="nonzero"/><path fill="#371a45" d="M 71.953125 158.28125 C 71.859375 158.28125 71.765625 158.273438 71.671875 158.242188 C 67.617188 157.273438 60.097656 154.902344 55.296875 149.929688 C 54.191406 148.785156 53.28125 147.542969 52.59375 146.253906 C 48.367188 138.316406 50.714844 111.347656 59.753906 63.800781 C 59.875 63.148438 60.503906 62.714844 61.160156 62.84375 C 61.8125 62.96875 62.246094 63.597656 62.113281 64.257812 C 53.300781 110.585938 50.808594 137.792969 54.710938 145.121094 C 55.289062 146.21875 56.070312 147.269531 57.023438 148.253906 C 61.398438 152.792969 68.429688 154.996094 72.226562 155.902344 C 72.871094 156.054688 73.273438 156.707031 73.117188 157.359375 C 72.992188 157.902344 72.5 158.28125 71.953125 158.28125 Z M 71.953125 158.28125 " fill-opacity="1" fill-rule="nonzero"/><path fill="#ffffff" d="M 82.679688 149.972656 C 82.679688 149.972656 77.976562 173.554688 87.734375 185.007812 C 87.734375 185.007812 77.90625 191.054688 83.34375 195.902344 C 88.644531 200.628906 109.679688 202.515625 114.597656 191.089844 C 119.300781 180.15625 107.601562 171.15625 113.34375 144.824219 C 114.289062 140.484375 115.34375 135.066406 115.363281 128.730469 Z M 82.679688 149.972656 " fill-opacity="1" fill-rule="nonzero"/><path fill="#371a45" d="M 113.335938 144.890625 C 107.59375 171.210938 119.292969 180.222656 114.59375 191.15625 C 109.679688 202.578125 88.644531 200.695312 83.335938 195.96875 C 81.914062 194.699219 81.539062 193.34375 81.761719 192.039062 C 88.898438 195.816406 106.789062 196.46875 111.269531 186.050781 C 112.886719 182.289062 103.113281 174.976562 103.050781 166.796875 C 102.992188 159.945312 104.90625 152.945312 106.90625 147.527344 C 108.515625 143.171875 105.441406 138.519531 100.816406 138.273438 C 100.773438 138.273438 100.730469 138.265625 100.695312 138.265625 C 98.078125 138.121094 95.21875 137.765625 92.15625 137.113281 C 92.15625 137.113281 87.203125 130.820312 92.71875 127.273438 C 92.71875 127.273438 109.515625 129.585938 118.210938 124.832031 C 118.089844 129.480469 117.511719 133.414062 116.476562 136.460938 C 115.980469 136.617188 115.40625 136.785156 114.785156 136.945312 C 114.390625 139.894531 113.847656 142.550781 113.335938 144.890625 Z M 113.335938 144.890625 " fill-opacity="0.349" fill-rule="nonzero"/><path fill="#371a45" d="M 83.070312 150.109375 C 83.128906 153.160156 82.988281 156.15625 82.890625 159.136719 C 82.824219 162.113281 82.800781 165.09375 83.019531 168.050781 C 83.121094 169.53125 83.316406 171.003906 83.574219 172.445312 C 83.835938 173.894531 84.183594 175.324219 84.636719 176.707031 C 85.09375 178.09375 85.613281 179.453125 86.292969 180.714844 C 86.960938 181.984375 87.742188 183.179688 88.652344 184.269531 C 89.085938 184.78125 89.015625 185.550781 88.5 185.988281 C 88.457031 186.023438 88.421875 186.050781 88.378906 186.082031 L 88.371094 186.085938 C 87.945312 186.355469 87.476562 186.695312 87.042969 187.023438 C 86.601562 187.355469 86.183594 187.710938 85.777344 188.082031 C 84.976562 188.8125 84.234375 189.609375 83.699219 190.464844 C 83.164062 191.316406 82.839844 192.214844 82.933594 192.988281 C 83.027344 193.757812 83.503906 194.511719 84.261719 195.136719 C 85 195.742188 85.957031 196.25 86.960938 196.65625 C 87.972656 197.0625 89.035156 197.382812 90.121094 197.644531 C 92.292969 198.144531 94.539062 198.40625 96.792969 198.441406 C 97.921875 198.453125 99.039062 198.410156 100.152344 198.308594 C 101.265625 198.195312 102.371094 198.042969 103.453125 197.796875 C 105.613281 197.308594 107.699219 196.535156 109.484375 195.34375 C 110.367188 194.742188 111.183594 194.054688 111.867188 193.265625 C 112.539062 192.460938 113.089844 191.566406 113.515625 190.613281 C 114.355469 188.632812 114.671875 186.5 114.496094 184.304688 C 114.347656 182.109375 113.828125 179.875 113.277344 177.621094 C 112.726562 175.359375 112.152344 173.066406 111.695312 170.734375 C 110.761719 166.074219 110.351562 161.265625 110.582031 156.496094 C 110.691406 154.113281 110.9375 151.742188 111.285156 149.390625 C 111.644531 147.050781 112.15625 144.695312 112.628906 142.449219 C 113.097656 140.179688 113.34375 137.886719 113.667969 135.617188 C 113.992188 133.34375 114.289062 131.089844 114.960938 128.769531 C 115.023438 128.542969 115.257812 128.421875 115.472656 128.484375 C 115.617188 128.527344 115.71875 128.636719 115.753906 128.777344 C 116.414062 131.136719 116.414062 133.550781 116.1875 135.921875 C 115.980469 138.300781 115.429688 140.621094 114.96875 142.933594 C 114.476562 145.261719 114 147.476562 113.644531 149.753906 C 113.3125 152.03125 113.074219 154.3125 112.972656 156.597656 C 112.757812 161.179688 113.148438 165.753906 114.050781 170.261719 C 114.492188 172.515625 115.054688 174.765625 115.609375 177.039062 C 116.160156 179.324219 116.714844 181.660156 116.890625 184.136719 C 117.082031 186.601562 116.714844 189.226562 115.71875 191.554688 C 115.199219 192.734375 114.511719 193.84375 113.683594 194.832031 C 112.835938 195.808594 111.855469 196.636719 110.8125 197.347656 C 108.703125 198.746094 106.351562 199.609375 103.964844 200.144531 C 102.773438 200.417969 101.566406 200.578125 100.371094 200.703125 C 99.164062 200.8125 97.957031 200.855469 96.75 200.839844 C 94.335938 200.796875 91.933594 200.519531 89.570312 199.976562 C 88.386719 199.695312 87.214844 199.347656 86.058594 198.882812 C 84.910156 198.410156 83.769531 197.847656 82.699219 196.96875 C 82.5625 196.867188 82.441406 196.746094 82.316406 196.621094 C 82.195312 196.496094 82.074219 196.382812 81.949219 196.25 C 81.71875 195.976562 81.488281 195.707031 81.300781 195.386719 C 80.910156 194.765625 80.621094 194.027344 80.535156 193.25 C 80.449219 192.472656 80.554688 191.707031 80.773438 191.023438 C 80.988281 190.335938 81.300781 189.726562 81.652344 189.160156 C 82.363281 188.039062 83.242188 187.125 84.152344 186.277344 C 84.617188 185.855469 85.085938 185.464844 85.574219 185.09375 C 86.074219 184.71875 86.542969 184.378906 87.105469 184.023438 L 86.824219 185.835938 C 85.785156 184.59375 84.902344 183.238281 84.160156 181.832031 C 83.410156 180.425781 82.839844 178.941406 82.347656 177.441406 C 81.855469 175.9375 81.503906 174.410156 81.199219 172.878906 C 81.039062 172.109375 80.929688 171.34375 80.808594 170.574219 C 80.714844 169.804688 80.605469 169.03125 80.535156 168.261719 C 80.203125 165.171875 80.164062 162.0625 80.410156 158.988281 C 80.527344 157.453125 80.707031 155.917969 81.011719 154.410156 C 81.320312 152.894531 81.691406 151.398438 82.289062 149.941406 C 82.375 149.734375 82.613281 149.632812 82.824219 149.71875 C 82.976562 149.785156 83.070312 149.929688 83.078125 150.089844 Z M 83.070312 150.109375 " fill-opacity="1" fill-rule="nonzero"/><path fill="#371a45" d="M 97.199219 173.765625 C 92.179688 173.765625 86.628906 173.011719 81.558594 170.632812 C 81.113281 170.421875 80.917969 169.878906 81.125 169.429688 C 81.335938 168.980469 81.871094 168.785156 82.324219 168.992188 C 95.320312 175.082031 112.382812 169.785156 112.554688 169.726562 C 113.03125 169.574219 113.539062 169.84375 113.6875 170.3125 C 113.839844 170.792969 113.574219 171.300781 113.105469 171.453125 C 112.640625 171.605469 105.6875 173.765625 97.199219 173.765625 Z M 97.199219 173.765625 " fill-opacity="1" fill-rule="nonzero"/><path fill="#ffffff" d="M 55.015625 123.46875 C 55.015625 123.835938 54.976562 124.203125 54.90625 124.5625 C 54.835938 124.925781 54.730469 125.277344 54.589844 125.617188 C 54.449219 125.957031 54.277344 126.28125 54.070312 126.585938 C 53.867188 126.890625 53.636719 127.175781 53.375 127.4375 C 53.117188 127.695312 52.835938 127.929688 52.53125 128.132812 C 52.222656 128.339844 51.902344 128.511719 51.5625 128.652344 C 51.222656 128.792969 50.875 128.898438 50.515625 128.972656 C 50.152344 129.042969 49.789062 129.078125 49.421875 129.078125 C 49.054688 129.078125 48.691406 129.042969 48.332031 128.972656 C 47.972656 128.898438 47.625 128.792969 47.285156 128.652344 C 46.945312 128.511719 46.621094 128.339844 46.316406 128.132812 C 46.011719 127.929688 45.730469 127.695312 45.46875 127.4375 C 45.210938 127.175781 44.980469 126.890625 44.773438 126.585938 C 44.570312 126.28125 44.398438 125.957031 44.257812 125.617188 C 44.117188 125.277344 44.011719 124.925781 43.941406 124.5625 C 43.867188 124.203125 43.832031 123.835938 43.832031 123.46875 C 43.832031 123.101562 43.867188 122.734375 43.941406 122.375 C 44.011719 122.011719 44.117188 121.664062 44.257812 121.320312 C 44.398438 120.980469 44.570312 120.65625 44.773438 120.351562 C 44.980469 120.046875 45.210938 119.761719 45.46875 119.5 C 45.730469 119.242188 46.011719 119.007812 46.316406 118.804688 C 46.621094 118.597656 46.945312 118.425781 47.285156 118.285156 C 47.625 118.144531 47.972656 118.039062 48.332031 117.964844 C 48.691406 117.894531 49.054688 117.859375 49.421875 117.859375 C 49.789062 117.859375 50.152344 117.894531 50.515625 117.964844 C 50.875 118.039062 51.222656 118.144531 51.5625 118.285156 C 51.902344 118.425781 52.222656 118.597656 52.53125 118.804688 C 52.835938 119.007812 53.117188 119.242188 53.375 119.5 C 53.636719 119.761719 53.867188 120.046875 54.070312 120.351562 C 54.277344 120.65625 54.449219 120.980469 54.589844 121.320312 C 54.730469 121.664062 54.835938 122.011719 54.90625 122.375 C 54.976562 122.734375 55.015625 123.101562 55.015625 123.46875 Z M 55.015625 123.46875 " fill-opacity="1" fill-rule="nonzero"/><path fill="#371a45" d="M 43.839844 123.613281 C 43.917969 126.710938 46.484375 129.160156 49.574219 129.078125 C 52.667969 129 55.101562 126.417969 55.019531 123.324219 C 55 122.46875 54.789062 121.65625 54.421875 120.9375 C 53.578125 122.851562 51.683594 124.222656 49.453125 124.28125 C 47.21875 124.339844 45.261719 123.078125 44.316406 121.207031 C 43.984375 121.9375 43.8125 122.757812 43.839844 123.613281 Z M 43.839844 123.613281 " fill-opacity="0.349" fill-rule="nonzero"/><path fill="#371a45" d="M 49.417969 130.285156 C 47.667969 130.285156 46.015625 129.625 44.742188 128.414062 C 43.429688 127.160156 42.675781 125.46875 42.625 123.644531 C 42.53125 119.886719 45.492188 116.75 49.242188 116.648438 C 52.992188 116.539062 56.113281 119.523438 56.214844 123.289062 C 56.265625 125.105469 55.597656 126.839844 54.351562 128.160156 C 53.101562 129.480469 51.410156 130.234375 49.597656 130.285156 C 49.539062 130.285156 49.480469 130.285156 49.417969 130.285156 Z M 45.039062 123.585938 C 45.066406 124.757812 45.550781 125.855469 46.402344 126.664062 C 47.257812 127.476562 48.363281 127.90625 49.539062 127.875 C 50.710938 127.847656 51.800781 127.363281 52.609375 126.507812 C 53.417969 125.652344 53.84375 124.535156 53.816406 123.359375 C 53.75 120.933594 51.734375 119.011719 49.316406 119.074219 C 46.886719 119.125 44.972656 121.15625 45.039062 123.585938 Z M 45.039062 123.585938 " fill-opacity="1" fill-rule="nonzero"/><path fill="#371a45" d="M 52.132812 128.933594 C 53.085938 122.636719 53.265625 116.792969 53.007812 111.59375 C 52.875 114.597656 52.59375 117.75 52.097656 121.027344 C 51.519531 124.875 51.335938 128.890625 51.691406 132.835938 C 51.792969 131.53125 51.9375 130.226562 52.132812 128.933594 Z M 52.132812 128.933594 " fill-opacity="0.349" fill-rule="nonzero"/><path fill="#ffffff" d="M 57.511719 139.800781 L 86.710938 141.308594 C 90.164062 141.492188 93.140625 138.792969 93.320312 135.320312 L 94.113281 119.726562 C 94.273438 116.691406 92.230469 114.023438 89.398438 113.292969 C 88.992188 113.183594 88.582031 113.125 88.148438 113.09375 L 58.964844 111.585938 C 55.503906 111.40625 52.53125 114.101562 52.355469 117.574219 L 51.71875 129.929688 L 51.554688 133.167969 C 51.375 136.640625 54.0625 139.621094 57.511719 139.800781 Z M 57.511719 139.800781 " fill-opacity="1" fill-rule="nonzero"/><path fill="#371a45" d="M 57.511719 139.800781 L 86.710938 141.308594 C 90.164062 141.492188 93.140625 138.792969 93.320312 135.320312 L 94.113281 119.726562 C 94.273438 116.691406 92.230469 114.023438 89.398438 113.292969 C 87.683594 114.3125 86.59375 114.964844 86.59375 114.964844 C 84.527344 127.40625 80.664062 133.464844 65.164062 132.921875 C 58.472656 132.683594 54.304688 131.441406 51.714844 129.929688 L 51.546875 133.167969 C 51.375 136.640625 54.0625 139.621094 57.511719 139.800781 Z M 57.511719 139.800781 " fill-opacity="0.349" fill-rule="nonzero"/><path fill="#371a45" d="M 87.035156 142.519531 C 86.90625 142.519531 86.773438 142.511719 86.644531 142.511719 L 57.449219 141.003906 C 55.453125 140.902344 53.621094 140.019531 52.269531 138.527344 C 50.917969 137.03125 50.238281 135.105469 50.339844 133.101562 L 51.140625 117.511719 C 51.242188 115.507812 52.125 113.667969 53.613281 112.3125 C 55.101562 110.964844 57.023438 110.273438 59.015625 110.375 L 88.210938 111.882812 C 90.207031 111.984375 92.039062 112.871094 93.390625 114.363281 C 94.734375 115.855469 95.421875 117.785156 95.320312 119.785156 L 94.519531 135.378906 C 94.316406 139.394531 90.992188 142.519531 87.035156 142.519531 Z M 86.769531 140.105469 C 89.570312 140.242188 91.96875 138.074219 92.113281 135.261719 L 92.914062 119.671875 C 92.988281 118.316406 92.515625 117.011719 91.609375 115.988281 C 90.691406 114.972656 89.449219 114.371094 88.097656 114.304688 L 58.898438 112.796875 C 57.550781 112.734375 56.25 113.195312 55.230469 114.109375 C 54.210938 115.023438 53.621094 116.277344 53.554688 117.632812 L 52.753906 133.226562 C 52.679688 134.582031 53.152344 135.886719 54.0625 136.910156 C 54.972656 137.929688 56.21875 138.527344 57.578125 138.589844 Z M 86.769531 140.105469 " fill-opacity="1" fill-rule="nonzero"/><path fill="#ffffff" d="M 56.351562 139.628906 C 56.726562 139.730469 57.109375 139.785156 57.511719 139.800781 L 86.710938 141.308594 C 89.246094 141.441406 91.511719 140.035156 92.617188 137.894531 C 93.023438 137.121094 93.269531 136.25 93.3125 135.320312 L 93.667969 128.390625 L 93.78125 126.109375 L 94.105469 119.726562 C 94.289062 116.257812 91.601562 113.277344 88.140625 113.09375 L 81.835938 112.769531 C 84.714844 113.472656 86.796875 116.15625 86.636719 119.226562 L 86.210938 127.652344 L 85.84375 134.828125 C 85.664062 138.292969 82.6875 140.992188 79.234375 140.816406 Z M 56.351562 139.628906 " fill-opacity="1" fill-rule="nonzero"/><path fill="#371a45" d="M 56.351562 139.628906 C 56.726562 139.730469 57.109375 139.785156 57.511719 139.800781 L 86.710938 141.308594 C 90.164062 141.492188 93.140625 138.792969 93.3125 135.320312 L 93.789062 126.109375 C 92.972656 127.695312 91.550781 129.628906 89.425781 129.726562 C 88.261719 129.78125 87.164062 128.882812 86.21875 127.644531 L 85.851562 134.820312 C 85.667969 138.285156 82.695312 140.984375 79.242188 140.808594 Z M 56.351562 139.628906 " fill-opacity="0.349" fill-rule="nonzero"/><path fill="#371a45" d="M 87.042969 142.519531 C 86.914062 142.519531 86.78125 142.511719 86.652344 142.511719 L 57.457031 141.003906 C 56.984375 140.984375 56.515625 140.910156 56.054688 140.792969 C 55.453125 140.640625 55.070312 140.054688 55.160156 139.445312 C 55.246094 138.835938 55.792969 138.386719 56.410156 138.425781 L 79.304688 139.605469 C 80.65625 139.679688 81.957031 139.207031 82.96875 138.292969 C 83.980469 137.371094 84.578125 136.125 84.644531 134.769531 L 85.445312 119.175781 C 85.570312 116.726562 83.9375 114.53125 81.558594 113.949219 C 80.960938 113.804688 80.5625 113.21875 80.65625 112.601562 C 80.75 111.984375 81.285156 111.542969 81.90625 111.574219 L 88.210938 111.898438 C 90.207031 112 92.046875 112.886719 93.390625 114.378906 C 94.734375 115.871094 95.421875 117.800781 95.320312 119.800781 L 94.519531 135.394531 C 94.417969 137.394531 93.542969 139.242188 92.046875 140.589844 C 90.652344 141.839844 88.890625 142.519531 87.042969 142.519531 Z M 84.679688 139.996094 L 86.773438 140.105469 C 88.125 140.171875 89.425781 139.707031 90.4375 138.792969 C 91.449219 137.875 92.046875 136.625 92.113281 135.269531 L 92.914062 119.675781 C 92.988281 118.320312 92.515625 117.015625 91.609375 115.996094 C 90.699219 114.972656 89.449219 114.378906 88.089844 114.304688 L 86.210938 114.210938 C 87.332031 115.609375 87.953125 117.410156 87.851562 119.300781 L 87.050781 134.894531 C 86.957031 136.84375 86.109375 138.648438 84.679688 139.996094 Z M 84.679688 139.996094 " fill-opacity="1" fill-rule="nonzero"/><path fill="#22a7f0" d="M 74.734375 126.558594 C 74.703125 127.136719 75.304688 131.828125 75.304688 131.828125 C 75.304688 131.828125 76.769531 131.890625 78.578125 131.980469 C 80.832031 132.082031 82.765625 129.828125 82.894531 126.933594 C 83.027344 124.042969 81.308594 121.621094 79.054688 121.511719 C 77.527344 121.4375 75.78125 121.359375 75.78125 121.359375 C 75.78125 121.359375 74.777344 125.621094 74.734375 126.558594 Z M 74.734375 126.558594 " fill-opacity="1" fill-rule="nonzero"/><path fill="#371a45" d="M 74.734375 126.558594 C 74.703125 127.136719 75.304688 131.828125 75.304688 131.828125 C 75.304688 131.828125 76.769531 131.890625 78.578125 131.980469 C 80.832031 132.082031 82.765625 129.828125 82.894531 126.933594 C 83.027344 124.042969 81.308594 121.621094 79.054688 121.511719 C 77.527344 121.4375 75.78125 121.359375 75.78125 121.359375 C 75.78125 121.359375 74.777344 125.621094 74.734375 126.558594 Z M 74.734375 126.558594 " fill-opacity="0.349" fill-rule="nonzero"/><path fill="#371a45" d="M 78.726562 132.886719 C 78.664062 132.886719 78.597656 132.886719 78.535156 132.878906 L 76.257812 132.777344 C 75.238281 132.734375 74.402344 131.957031 74.277344 130.941406 C 73.800781 127.058594 73.824219 126.664062 73.832031 126.519531 C 73.851562 125.96875 74.140625 124.492188 74.675781 122.136719 C 74.898438 121.140625 75.804688 120.460938 76.808594 120.503906 L 79.097656 120.605469 C 80.46875 120.671875 81.71875 121.394531 82.605469 122.648438 C 83.453125 123.839844 83.871094 125.375 83.800781 126.96875 C 83.726562 128.566406 83.164062 130.058594 82.21875 131.167969 C 81.265625 132.285156 80.035156 132.886719 78.726562 132.886719 Z M 75.636719 126.601562 C 75.636719 126.679688 75.652344 127.253906 76.078125 130.726562 C 76.09375 130.863281 76.207031 130.972656 76.34375 130.972656 L 78.621094 131.074219 C 79.429688 131.109375 80.222656 130.726562 80.851562 129.984375 C 81.539062 129.1875 81.941406 128.085938 82 126.890625 C 82.058594 125.695312 81.746094 124.5625 81.140625 123.699219 C 80.578125 122.910156 79.828125 122.453125 79.015625 122.417969 L 76.726562 122.316406 C 76.589844 122.308594 76.46875 122.402344 76.4375 122.542969 C 75.722656 125.671875 75.644531 126.433594 75.636719 126.601562 Z M 75.636719 126.601562 " fill-opacity="1" fill-rule="nonzero"/><path fill="#22a7f0" d="M 75.792969 121.351562 C 76.0625 121.363281 76.328125 121.410156 76.585938 121.488281 C 76.847656 121.566406 77.097656 121.679688 77.339844 121.820312 C 77.582031 121.964844 77.808594 122.136719 78.023438 122.335938 C 78.238281 122.539062 78.433594 122.765625 78.613281 123.015625 C 78.792969 123.269531 78.949219 123.539062 79.085938 123.832031 C 79.222656 124.125 79.332031 124.433594 79.421875 124.753906 C 79.507812 125.078125 79.570312 125.410156 79.609375 125.75 C 79.644531 126.089844 79.65625 126.429688 79.640625 126.773438 C 79.625 127.117188 79.582031 127.457031 79.515625 127.792969 C 79.449219 128.125 79.355469 128.449219 79.238281 128.761719 C 79.121094 129.074219 78.980469 129.371094 78.820312 129.652344 C 78.660156 129.929688 78.476562 130.1875 78.277344 130.421875 C 78.074219 130.65625 77.859375 130.863281 77.628906 131.042969 C 77.394531 131.226562 77.152344 131.375 76.898438 131.496094 C 76.644531 131.617188 76.386719 131.703125 76.121094 131.757812 C 75.855469 131.8125 75.585938 131.835938 75.320312 131.824219 C 75.050781 131.808594 74.785156 131.765625 74.527344 131.683594 C 74.265625 131.605469 74.015625 131.496094 73.773438 131.351562 C 73.53125 131.210938 73.304688 131.039062 73.089844 130.835938 C 72.875 130.636719 72.679688 130.410156 72.5 130.15625 C 72.320312 129.90625 72.164062 129.632812 72.027344 129.339844 C 71.890625 129.046875 71.78125 128.738281 71.691406 128.417969 C 71.605469 128.09375 71.542969 127.765625 71.503906 127.425781 C 71.46875 127.085938 71.457031 126.742188 71.472656 126.398438 C 71.488281 126.054688 71.53125 125.714844 71.597656 125.382812 C 71.664062 125.046875 71.757812 124.722656 71.875 124.410156 C 71.992188 124.097656 72.128906 123.800781 72.292969 123.523438 C 72.453125 123.242188 72.636719 122.984375 72.835938 122.75 C 73.039062 122.515625 73.253906 122.308594 73.484375 122.128906 C 73.71875 121.949219 73.960938 121.796875 74.214844 121.675781 C 74.46875 121.558594 74.726562 121.46875 74.992188 121.414062 C 75.257812 121.359375 75.527344 121.339844 75.792969 121.351562 Z M 75.792969 121.351562 " fill-opacity="1" fill-rule="nonzero"/><path fill="#371a45" d="M 75.449219 132.742188 C 75.382812 132.742188 75.324219 132.742188 75.261719 132.734375 C 73.890625 132.667969 72.640625 131.941406 71.75 130.6875 C 70.90625 129.5 70.488281 127.964844 70.558594 126.367188 C 70.632812 124.765625 71.195312 123.28125 72.140625 122.171875 C 73.136719 121.003906 74.453125 120.394531 75.824219 120.460938 C 77.195312 120.527344 78.445312 121.25 79.335938 122.503906 C 80.179688 123.695312 80.597656 125.230469 80.527344 126.824219 C 80.375 130.132812 78.113281 132.742188 75.449219 132.742188 Z M 75.636719 122.265625 C 74.863281 122.265625 74.113281 122.648438 73.511719 123.351562 C 72.828125 124.148438 72.421875 125.253906 72.363281 126.449219 C 72.308594 127.644531 72.617188 128.773438 73.222656 129.636719 C 73.789062 130.429688 74.539062 130.886719 75.347656 130.921875 C 77.109375 131 78.621094 129.125 78.726562 126.738281 C 78.785156 125.542969 78.476562 124.410156 77.867188 123.546875 C 77.304688 122.757812 76.554688 122.300781 75.746094 122.265625 C 75.703125 122.265625 75.664062 122.265625 75.636719 122.265625 Z M 71.460938 126.414062 Z M 71.460938 126.414062 " fill-opacity="1" fill-rule="nonzero"/><path fill="#371a45" d="M 66.601562 141.0625 C 66.59375 141.0625 66.585938 141.0625 66.578125 141.0625 C 66.082031 141.046875 65.691406 140.636719 65.703125 140.136719 L 65.992188 129.796875 L 61.550781 126.664062 C 61.296875 126.484375 61.152344 126.195312 61.167969 125.882812 L 61.839844 111.761719 C 61.863281 111.261719 62.28125 110.878906 62.785156 110.898438 C 63.285156 110.921875 63.667969 111.347656 63.644531 111.847656 L 62.996094 125.46875 L 67.429688 128.59375 C 67.675781 128.769531 67.820312 129.058594 67.8125 129.363281 L 67.519531 140.191406 C 67.480469 140.671875 67.085938 141.0625 66.601562 141.0625 Z M 66.601562 141.0625 " fill-opacity="1" fill-rule="nonzero"/><path fill="#ffffff" d="M 119.460938 119.46875 C 119.460938 119.46875 122.160156 121.628906 122.285156 124.953125 C 122.421875 128.804688 120.023438 130.363281 120.023438 130.363281 C 120.023438 130.363281 109.519531 135.757812 92.675781 132.175781 C 92.675781 132.175781 87.722656 125.882812 93.238281 122.339844 C 93.238281 122.332031 111.023438 124.78125 119.460938 119.46875 Z M 119.460938 119.46875 " fill-opacity="1" fill-rule="nonzero"/><path fill="#371a45" d="M 122.285156 124.953125 C 122.421875 128.796875 120.023438 130.363281 120.023438 130.363281 C 120.023438 130.363281 109.527344 135.757812 92.675781 132.175781 C 92.675781 132.175781 91.042969 130.101562 90.699219 127.671875 C 90.777344 127.796875 90.828125 127.855469 90.828125 127.855469 C 103.144531 130.480469 112.0625 128.296875 115.972656 126.933594 C 118.6875 125.984375 120.5 123.511719 120.4375 120.75 C 120.4375 120.714844 120.4375 120.671875 120.429688 120.632812 C 120.429688 120.570312 120.429688 120.503906 120.414062 120.445312 C 121.207031 121.386719 122.210938 122.960938 122.285156 124.953125 Z M 122.285156 124.953125 " fill-opacity="0.349" fill-rule="nonzero"/><path fill="#371a45" d="M 104.089844 134.617188 C 100.652344 134.617188 96.75 134.269531 92.429688 133.355469 C 92.15625 133.300781 91.910156 133.148438 91.738281 132.921875 C 91.621094 132.777344 88.921875 129.296875 89.519531 125.707031 C 89.816406 123.917969 90.855469 122.441406 92.597656 121.324219 C 92.835938 121.171875 93.125 121.105469 93.40625 121.140625 C 93.578125 121.164062 110.859375 123.46875 118.824219 118.445312 C 119.257812 118.167969 119.8125 118.207031 120.210938 118.523438 C 120.339844 118.625 123.347656 121.070312 123.484375 124.910156 C 123.644531 129.390625 120.796875 131.296875 120.675781 131.378906 C 120.636719 131.398438 120.601562 131.421875 120.566406 131.441406 C 120.242188 131.601562 114.222656 134.617188 104.089844 134.617188 Z M 93.378906 131.089844 C 108.667969 134.210938 118.507812 129.753906 119.402344 129.320312 C 119.667969 129.117188 121.179688 127.832031 121.078125 124.992188 C 121.011719 123.15625 119.957031 121.714844 119.28125 120.960938 C 111.046875 125.441406 96.390625 123.925781 93.535156 123.585938 C 92.589844 124.28125 92.046875 125.105469 91.882812 126.09375 C 91.550781 128.101562 92.828125 130.269531 93.378906 131.089844 Z M 93.378906 131.089844 " fill-opacity="1" fill-rule="nonzero"/><path fill="#ffffff" d="M 110.445312 83.03125 C 110.445312 83.03125 125.609375 105.28125 119.769531 120.9375 C 116.066406 130.878906 99.667969 130.261719 94.699219 122.894531 L 84.992188 105.722656 Z M 110.445312 83.03125 " fill-opacity="1" fill-rule="nonzero"/><path fill="#371a45" d="M 119.769531 120.9375 C 116.066406 130.878906 99.675781 130.261719 94.699219 122.894531 L 84.992188 105.730469 L 88.59375 102.519531 L 96.921875 111.585938 C 100.296875 118.910156 116.238281 123.746094 119.9375 113.804688 C 120.414062 112.523438 120.746094 111.179688 120.941406 109.8125 C 121.324219 113.632812 121.070312 117.445312 119.769531 120.9375 Z M 119.769531 120.9375 " fill-opacity="0.349" fill-rule="nonzero"/><path fill="#371a45" d="M 107.074219 129.625 C 101.496094 129.625 96.214844 127.296875 93.703125 123.570312 C 93.328125 123.019531 93.472656 122.265625 94.019531 121.894531 C 94.570312 121.519531 95.320312 121.664062 95.6875 122.214844 C 98.035156 125.6875 103.691406 127.738281 109.136719 127.085938 C 113.828125 126.527344 117.292969 124.128906 118.636719 120.511719 C 124.183594 105.628906 109.59375 83.925781 109.449219 83.707031 C 109.074219 83.15625 109.21875 82.410156 109.765625 82.03125 C 110.316406 81.65625 111.058594 81.800781 111.433594 82.34375 C 112.070312 83.273438 126.878906 105.296875 120.890625 121.359375 C 119.214844 125.847656 115.039062 128.8125 109.421875 129.484375 C 108.640625 129.578125 107.851562 129.625 107.074219 129.625 Z M 107.074219 129.625 " fill-opacity="1" fill-rule="nonzero"/><path fill="#371a45" d="M 113.632812 90.957031 C 106.089844 98.386719 96.265625 103.121094 85.8125 104.453125 C 84.910156 104.5625 84 104.65625 83.082031 104.722656 C 80.570312 104.894531 78.035156 104.875 75.492188 104.648438 C 73.390625 104.460938 71.28125 104.128906 69.179688 103.65625 C 66.746094 103.105469 64.324219 102.359375 61.933594 101.402344 C 61.148438 101.082031 60.367188 100.75 59.601562 100.394531 C 58.039062 99.675781 56.539062 98.871094 55.085938 98.007812 C 56.582031 88 58.546875 76.625 60.945312 64.03125 L 105.851562 66.46875 C 109.09375 74.984375 111.679688 83.234375 113.632812 90.957031 Z M 113.632812 90.957031 " fill-opacity="0.349" fill-rule="nonzero"/><path fill="#ffffff" d="M 38.421875 71.90625 C 42.324219 78.777344 47.984375 84.691406 55.085938 88.957031 C 56.539062 89.824219 58.039062 90.621094 59.601562 91.339844 C 60.359375 91.695312 61.140625 92.027344 61.925781 92.347656 C 64.316406 93.304688 66.738281 94.050781 69.171875 94.601562 C 71.273438 95.082031 73.382812 95.40625 75.484375 95.59375 C 78.027344 95.828125 80.5625 95.84375 83.078125 95.675781 C 83.992188 95.609375 84.902344 95.515625 85.808594 95.40625 C 102.390625 93.289062 117.417969 82.613281 124.199219 66.179688 C 134.195312 41.964844 122.523438 14.425781 98.136719 4.667969 C 93.433594 2.789062 88.609375 1.703125 83.800781 1.363281 C 83.234375 1.320312 82.671875 1.289062 82.109375 1.269531 C 80.597656 1.210938 79.097656 1.226562 77.601562 1.3125 C 74.140625 1.507812 70.730469 2.082031 67.429688 3 C 64.128906 3.90625 60.9375 5.167969 57.910156 6.757812 C 56.949219 7.257812 56.003906 7.792969 55.070312 8.367188 C 53.679688 9.222656 52.328125 10.140625 51.027344 11.140625 C 44.519531 16.101562 39.203125 22.777344 35.871094 30.84375 C 30.117188 44.769531 31.539062 59.792969 38.421875 71.90625 Z M 38.421875 71.90625 " fill-opacity="1" fill-rule="nonzero"/><path fill="#371a45" d="M 79.753906 95.90625 C 78.324219 95.90625 76.894531 95.84375 75.476562 95.71875 C 73.339844 95.523438 71.207031 95.191406 69.148438 94.71875 C 66.695312 94.160156 64.246094 93.40625 61.890625 92.457031 C 61.015625 92.101562 60.257812 91.773438 59.558594 91.449219 C 58.027344 90.738281 56.503906 89.933594 55.027344 89.058594 C 48.085938 84.894531 42.308594 78.988281 38.320312 71.964844 C 31.121094 59.296875 30.179688 44.292969 35.757812 30.792969 C 38.980469 22.988281 44.230469 16.160156 50.953125 11.039062 C 52.226562 10.070312 53.589844 9.132812 55.015625 8.257812 C 55.929688 7.699219 56.886719 7.15625 57.859375 6.648438 C 60.894531 5.058594 64.109375 3.792969 67.410156 2.878906 C 70.738281 1.949219 74.171875 1.382812 77.601562 1.1875 C 79.097656 1.101562 80.613281 1.085938 82.125 1.144531 C 82.722656 1.167969 83.277344 1.195312 83.820312 1.238281 C 88.726562 1.585938 93.558594 2.703125 98.1875 4.558594 C 110.054688 9.300781 119.308594 18.363281 124.226562 30.070312 C 129.109375 41.683594 129.140625 54.523438 124.316406 66.214844 C 117.761719 82.097656 103.011719 93.328125 85.828125 95.523438 C 84.925781 95.640625 84 95.726562 83.089844 95.792969 C 81.980469 95.871094 80.867188 95.90625 79.753906 95.90625 Z M 38.523438 71.847656 C 42.496094 78.835938 48.246094 84.714844 55.152344 88.855469 C 56.609375 89.730469 58.128906 90.527344 59.660156 91.238281 C 60.359375 91.566406 61.117188 91.890625 61.984375 92.246094 C 64.332031 93.183594 66.757812 93.941406 69.207031 94.492188 C 71.257812 94.957031 73.375 95.296875 75.507812 95.488281 C 78 95.710938 80.546875 95.742188 83.078125 95.566406 C 83.988281 95.5 84.902344 95.40625 85.800781 95.296875 C 102.898438 93.117188 117.574219 81.945312 124.089844 66.140625 C 128.894531 54.507812 128.863281 41.742188 124.003906 30.1875 C 119.105469 18.535156 109.902344 9.519531 98.09375 4.792969 C 93.484375 2.949219 88.675781 1.839844 83.800781 1.492188 C 83.265625 1.449219 82.714844 1.421875 82.117188 1.398438 C 80.613281 1.339844 79.105469 1.355469 77.617188 1.441406 C 74.199219 1.636719 70.789062 2.203125 67.472656 3.125 C 64.1875 4.03125 60.996094 5.300781 57.976562 6.878906 C 57.007812 7.386719 56.054688 7.921875 55.144531 8.480469 C 53.726562 9.351562 52.371094 10.28125 51.105469 11.25 C 44.410156 16.324219 39.1875 23.125 35.980469 30.890625 C 30.433594 44.316406 31.363281 59.242188 38.523438 71.847656 Z M 38.523438 71.847656 " fill-opacity="1" fill-rule="nonzero"/><path fill="#371a45" d="M 124.199219 66.171875 C 117.417969 82.613281 102.390625 93.289062 85.808594 95.398438 C 84.898438 95.515625 83.992188 95.601562 83.078125 95.667969 C 80.5625 95.84375 78.027344 95.820312 75.484375 95.59375 C 73.382812 95.40625 71.265625 95.082031 69.171875 94.601562 C 66.738281 94.050781 64.316406 93.304688 61.925781 92.347656 C 61.140625 92.023438 60.359375 91.695312 59.601562 91.339844 C 58.039062 90.617188 56.539062 89.816406 55.085938 88.949219 C 47.980469 84.691406 42.324219 78.769531 38.414062 71.898438 C 36.269531 68.128906 34.652344 64.070312 33.625 59.851562 C 37.503906 66.316406 42.964844 71.890625 49.742188 75.957031 C 51.191406 76.828125 52.695312 77.625 54.253906 78.351562 C 55.015625 78.703125 55.792969 79.03125 56.582031 79.355469 C 58.972656 80.3125 61.390625 81.0625 63.828125 81.613281 C 65.929688 82.089844 68.039062 82.417969 70.140625 82.605469 C 72.683594 82.835938 75.21875 82.851562 77.730469 82.675781 C 78.648438 82.613281 79.558594 82.519531 80.460938 82.402344 C 97.046875 80.285156 112.0625 69.613281 118.855469 53.171875 C 122.8125 43.582031 123.367188 33.46875 121.085938 24.15625 C 128.453125 36.425781 130.101562 51.882812 124.199219 66.171875 Z M 124.199219 66.171875 " fill-opacity="0.349" fill-rule="nonzero"/><path fill="#371a45" d="M 79.753906 96.726562 C 78.292969 96.726562 76.84375 96.660156 75.40625 96.53125 C 73.230469 96.335938 71.0625 95.996094 68.96875 95.515625 C 66.46875 94.949219 63.984375 94.183594 61.585938 93.21875 C 60.699219 92.855469 59.925781 92.523438 59.210938 92.1875 C 57.652344 91.472656 56.105469 90.652344 54.609375 89.753906 C 47.546875 85.527344 41.671875 79.507812 37.613281 72.363281 C 30.289062 59.472656 29.34375 44.207031 35.011719 30.476562 C 38.285156 22.539062 43.628906 15.59375 50.464844 10.386719 C 51.757812 9.402344 53.144531 8.445312 54.589844 7.5625 C 55.519531 6.988281 56.488281 6.4375 57.484375 5.921875 C 60.570312 4.304688 63.832031 3.015625 67.191406 2.085938 C 70.582031 1.144531 74.070312 0.566406 77.558594 0.371094 C 79.074219 0.28125 80.621094 0.269531 82.160156 0.328125 C 82.773438 0.347656 83.335938 0.378906 83.886719 0.421875 C 88.863281 0.777344 93.78125 1.914062 98.492188 3.792969 C 110.570312 8.625 119.980469 17.847656 124.984375 29.75 C 129.957031 41.566406 129.984375 54.628906 125.074219 66.527344 C 118.40625 82.675781 103.410156 94.09375 85.9375 96.328125 C 85.011719 96.445312 84.082031 96.539062 83.15625 96.601562 C 82.015625 96.683594 80.878906 96.726562 79.753906 96.726562 Z M 39.230469 71.441406 C 43.132812 78.304688 48.78125 84.082031 55.570312 88.152344 C 57.007812 89.011719 58.496094 89.796875 60 90.492188 C 60.683594 90.8125 61.4375 91.136719 62.289062 91.484375 C 64.59375 92.40625 66.984375 93.152344 69.386719 93.6875 C 71.402344 94.144531 73.492188 94.480469 75.578125 94.667969 C 78.027344 94.890625 80.535156 94.914062 83.019531 94.738281 C 83.90625 94.675781 84.808594 94.589844 85.699219 94.472656 C 102.507812 92.328125 116.933594 81.34375 123.339844 65.808594 C 128.054688 54.375 128.027344 41.828125 123.261719 30.484375 C 118.441406 19.035156 109.398438 10.179688 97.789062 5.53125 C 93.261719 3.71875 88.53125 2.632812 83.734375 2.285156 C 83.207031 2.238281 82.664062 2.210938 82.078125 2.195312 C 80.597656 2.136719 79.109375 2.152344 77.652344 2.234375 C 74.292969 2.421875 70.941406 2.980469 67.675781 3.886719 C 64.449219 4.777344 61.304688 6.023438 58.335938 7.574219 C 57.382812 8.074219 56.445312 8.605469 55.554688 9.15625 C 54.160156 10.011719 52.824219 10.925781 51.589844 11.875 C 45.015625 16.875 39.882812 23.558594 36.730469 31.1875 C 31.277344 44.386719 32.195312 59.058594 39.230469 71.441406 Z M 39.230469 71.441406 " fill-opacity="1" fill-rule="nonzero"/><path fill="#371a45" d="M 79.753906 96.996094 C 78.289062 96.996094 76.828125 96.929688 75.382812 96.800781 C 73.195312 96.601562 71.019531 96.253906 68.910156 95.777344 C 66.398438 95.210938 63.898438 94.4375 61.484375 93.472656 C 60.589844 93.109375 59.808594 92.769531 59.09375 92.433594 C 57.527344 91.710938 55.976562 90.890625 54.464844 89.992188 C 47.371094 85.738281 41.457031 79.691406 37.375 72.507812 C 30.007812 59.546875 29.054688 44.191406 34.761719 30.382812 C 38.054688 22.398438 43.429688 15.410156 50.296875 10.179688 C 51.597656 9.183594 52.992188 8.226562 54.445312 7.335938 C 55.375 6.761719 56.359375 6.207031 57.355469 5.683594 C 60.453125 4.058594 63.738281 2.761719 67.113281 1.828125 C 70.515625 0.878906 74.027344 0.296875 77.535156 0.101562 C 79.0625 0.015625 80.621094 0 82.160156 0.0585938 C 82.773438 0.078125 83.34375 0.109375 83.898438 0.152344 C 88.90625 0.507812 93.847656 1.652344 98.585938 3.542969 C 110.726562 8.402344 120.191406 17.671875 125.230469 29.65625 C 130.230469 41.539062 130.257812 54.671875 125.320312 66.640625 C 118.617188 82.878906 103.539062 94.363281 85.964844 96.609375 C 85.042969 96.726562 84.101562 96.820312 83.171875 96.886719 C 82.03125 96.957031 80.886719 96.996094 79.753906 96.996094 Z M 39.460938 71.3125 C 43.339844 78.132812 48.953125 83.882812 55.699219 87.917969 C 57.128906 88.773438 58.613281 89.558594 60.097656 90.246094 C 60.785156 90.566406 61.53125 90.882812 62.375 91.230469 C 64.664062 92.144531 67.042969 92.882812 69.433594 93.429688 C 71.441406 93.886719 73.507812 94.210938 75.585938 94.398438 C 78.019531 94.617188 80.511719 94.644531 82.984375 94.472656 C 83.863281 94.40625 84.765625 94.320312 85.648438 94.210938 C 102.363281 92.078125 116.699219 81.164062 123.078125 65.714844 C 127.765625 54.347656 127.746094 41.878906 123 30.589844 C 118.21875 19.210938 109.226562 10.402344 97.683594 5.785156 C 93.175781 3.988281 88.472656 2.898438 83.707031 2.558594 C 83.179688 2.515625 82.644531 2.488281 82.066406 2.472656 C 80.59375 2.414062 79.109375 2.429688 77.660156 2.507812 C 74.328125 2.695312 70.992188 3.253906 67.757812 4.152344 C 64.542969 5.046875 61.421875 6.277344 58.46875 7.820312 C 57.519531 8.316406 56.589844 8.84375 55.699219 9.386719 C 54.3125 10.234375 52.992188 11.148438 51.757812 12.089844 C 45.21875 17.066406 40.113281 23.703125 36.984375 31.296875 C 31.558594 44.417969 32.46875 58.996094 39.460938 71.3125 Z M 39.460938 71.3125 " fill-opacity="1" fill-rule="nonzero"/><path fill="#371a45" d="M 45.726562 81.582031 C 73.976562 100.359375 111.804688 85.789062 113.3125 52.355469 C 114.339844 29.605469 92.648438 11.179688 70.53125 11.730469 C 54.429688 12.128906 38.847656 19.492188 32.5 44.402344 C 32.5 44.402344 31.410156 55.847656 34.644531 63.386719 C 37.878906 70.925781 42.324219 77.710938 42.324219 77.710938 Z M 45.726562 81.582031 " fill-opacity="1" fill-rule="nonzero"/><path fill="#220f2d" d="M 113.3125 52.355469 C 111.804688 85.789062 73.976562 100.359375 45.726562 81.582031 L 45.039062 80.800781 C 75.890625 85.605469 106.269531 66.742188 108.429688 32.960938 C 111.78125 38.726562 113.625 45.328125 113.3125 52.355469 Z M 113.3125 52.355469 " fill-opacity="1" fill-rule="nonzero"/><path fill="#371a45" d="M 72.539062 95.914062 C 71.398438 95.914062 70.25 95.878906 69.09375 95.796875 C 69.027344 95.792969 68.96875 95.785156 68.90625 95.769531 C 66.390625 95.203125 63.890625 94.429688 61.480469 93.464844 C 60.582031 93.101562 59.804688 92.761719 59.089844 92.425781 C 57.519531 91.703125 55.96875 90.882812 54.457031 89.984375 C 47.371094 85.738281 41.457031 79.691406 37.375 72.507812 C 30.007812 59.546875 29.054688 44.191406 34.761719 30.382812 C 38.054688 22.398438 43.429688 15.410156 50.296875 10.179688 C 50.363281 10.128906 50.433594 10.082031 50.507812 10.046875 C 56.191406 7.328125 62.824219 5.855469 70.210938 5.675781 C 83.503906 5.34375 97.207031 11.054688 106.855469 20.941406 C 115.550781 29.84375 120.054688 41.089844 119.53125 52.601562 C 118.960938 65.128906 113.992188 75.949219 105.144531 83.902344 C 96.539062 91.628906 84.808594 95.914062 72.539062 95.914062 Z M 69.34375 93.398438 C 82.171875 94.210938 94.632812 90.09375 103.53125 82.097656 C 111.890625 74.59375 116.585938 64.351562 117.121094 52.484375 C 117.609375 41.652344 113.347656 31.046875 105.128906 22.625 C 95.941406 13.214844 82.902344 7.777344 70.269531 8.089844 C 63.269531 8.265625 57.007812 9.640625 51.65625 12.171875 C 45.167969 17.136719 40.097656 23.75 36.984375 31.296875 C 31.566406 44.410156 32.476562 58.996094 39.46875 71.304688 C 43.347656 78.125 48.960938 83.875 55.707031 87.910156 C 57.136719 88.765625 58.617188 89.550781 60.105469 90.238281 C 60.792969 90.558594 61.535156 90.875 62.382812 91.222656 C 64.644531 92.128906 66.992188 92.863281 69.34375 93.398438 Z M 69.34375 93.398438 " fill-opacity="1" fill-rule="nonzero"/><path fill="#371a45" d="M 72.660156 91.078125 C 63.175781 91.078125 53.527344 88.214844 45.054688 82.582031 C 44.964844 82.523438 44.886719 82.453125 44.816406 82.371094 L 41.414062 78.507812 C 41.375 78.464844 41.339844 78.421875 41.3125 78.371094 C 41.132812 78.089844 36.777344 71.414062 33.53125 63.867188 C 30.210938 56.128906 31.25 44.765625 31.292969 44.285156 C 31.300781 44.226562 31.308594 44.164062 31.320312 44.105469 C 36.871094 22.328125 50.050781 11.035156 70.488281 10.527344 C 82.339844 10.230469 94.570312 15.324219 103.1875 24.148438 C 110.945312 32.097656 114.96875 42.132812 114.496094 52.410156 C 113.828125 67.300781 105.988281 79.648438 92.996094 86.28125 C 86.695312 89.492188 79.726562 91.078125 72.660156 91.078125 Z M 46.519531 80.664062 C 60.554688 89.925781 77.941406 91.253906 91.925781 84.121094 C 104.125 77.898438 111.484375 66.292969 112.113281 52.296875 C 112.546875 42.699219 108.769531 33.296875 101.480469 25.835938 C 93.320312 17.476562 81.761719 12.65625 70.558594 12.933594 C 51.351562 13.410156 38.949219 24.066406 33.683594 44.605469 C 33.597656 45.675781 32.816406 56.085938 35.742188 62.910156 C 38.726562 69.855469 42.800781 76.246094 43.277344 76.980469 Z M 46.519531 80.664062 " fill-opacity="1" fill-rule="nonzero"/><path fill="#ffffff" d="M 134.441406 49.839844 C 135.15625 59.132812 130.207031 67.375 123.398438 68.246094 C 116.578125 69.113281 110.480469 62.285156 109.765625 52.992188 C 109.757812 52.933594 109.757812 52.867188 109.757812 52.8125 C 109.117188 43.589844 114.050781 35.449219 120.820312 34.585938 C 126.085938 33.910156 130.921875 37.832031 133.183594 43.9375 C 133.84375 45.734375 134.28125 47.730469 134.441406 49.839844 Z M 134.441406 49.839844 " fill-opacity="1" fill-rule="nonzero"/><path fill="#371a45" d="M 134.441406 49.839844 C 135.15625 59.132812 130.207031 67.375 123.398438 68.246094 C 116.578125 69.113281 110.480469 62.285156 109.765625 52.992188 C 109.757812 52.933594 109.757812 52.867188 109.757812 52.8125 C 110.582031 53.667969 111.816406 54.457031 113.378906 53.941406 C 116.101562 53.035156 120.609375 46.425781 120.609375 46.425781 C 120.609375 46.425781 126.054688 45.316406 133.183594 43.9375 C 133.84375 45.734375 134.28125 47.730469 134.441406 49.839844 Z M 134.441406 49.839844 " fill-opacity="0.349" fill-rule="nonzero"/><path fill="#371a45" d="M 122.210938 69.527344 C 119.683594 69.527344 117.234375 68.605469 115.054688 66.832031 C 111.371094 63.820312 109.007812 58.8125 108.566406 53.09375 C 107.808594 43.183594 113.234375 34.347656 120.660156 33.398438 C 123.65625 33.011719 126.589844 33.917969 129.152344 36.015625 C 132.839844 39.03125 135.199219 44.03125 135.640625 49.75 C 136.398438 59.660156 130.972656 68.496094 123.546875 69.449219 C 123.101562 69.5 122.660156 69.527344 122.210938 69.527344 Z M 121.988281 35.722656 C 121.648438 35.722656 121.308594 35.746094 120.96875 35.789062 C 114.792969 36.578125 110.308594 44.257812 110.972656 52.90625 C 111.355469 57.890625 113.449219 62.402344 116.585938 64.960938 C 118.621094 66.628906 120.925781 67.351562 123.261719 67.046875 C 129.4375 66.257812 133.921875 58.582031 133.257812 49.933594 C 132.875 44.945312 130.78125 40.4375 127.644531 37.878906 C 125.894531 36.457031 123.960938 35.722656 121.988281 35.722656 Z M 121.988281 35.722656 " fill-opacity="1" fill-rule="nonzero"/><path fill="#ffffff" d="M 126.453125 39.085938 C 127.117188 39.101562 127.769531 39.199219 128.417969 39.382812 C 129.066406 39.566406 129.691406 39.832031 130.300781 40.183594 C 130.90625 40.53125 131.480469 40.957031 132.023438 41.457031 C 132.566406 41.957031 133.066406 42.523438 133.523438 43.152344 C 133.980469 43.785156 134.386719 44.472656 134.738281 45.210938 C 135.09375 45.949219 135.390625 46.730469 135.628906 47.546875 C 135.867188 48.367188 136.042969 49.207031 136.15625 50.074219 C 136.269531 50.941406 136.316406 51.816406 136.300781 52.695312 C 136.285156 53.578125 136.203125 54.449219 136.058594 55.308594 C 135.910156 56.171875 135.703125 57.007812 135.433594 57.816406 C 135.164062 58.625 134.839844 59.390625 134.457031 60.117188 C 134.074219 60.84375 133.644531 61.511719 133.164062 62.125 C 132.679688 62.738281 132.160156 63.285156 131.601562 63.765625 C 131.039062 64.242188 130.449219 64.644531 129.828125 64.972656 C 129.210938 65.296875 128.574219 65.539062 127.917969 65.699219 C 127.265625 65.859375 126.605469 65.933594 125.945312 65.917969 C 125.28125 65.90625 124.625 65.808594 123.976562 65.625 C 123.332031 65.4375 122.703125 65.171875 122.097656 64.824219 C 121.492188 64.476562 120.914062 64.050781 120.375 63.550781 C 119.832031 63.050781 119.332031 62.484375 118.875 61.851562 C 118.417969 61.222656 118.011719 60.535156 117.65625 59.796875 C 117.300781 59.058594 117.003906 58.277344 116.765625 57.460938 C 116.527344 56.640625 116.351562 55.796875 116.238281 54.933594 C 116.125 54.066406 116.078125 53.191406 116.09375 52.3125 C 116.109375 51.429688 116.191406 50.558594 116.339844 49.695312 C 116.484375 48.835938 116.691406 48 116.960938 47.191406 C 117.230469 46.382812 117.554688 45.617188 117.9375 44.890625 C 118.320312 44.164062 118.753906 43.496094 119.234375 42.882812 C 119.714844 42.265625 120.234375 41.71875 120.796875 41.242188 C 121.355469 40.761719 121.945312 40.359375 122.566406 40.035156 C 123.1875 39.710938 123.820312 39.46875 124.476562 39.308594 C 125.128906 39.148438 125.789062 39.074219 126.453125 39.085938 Z M 126.453125 39.085938 " fill-opacity="1" fill-rule="nonzero"/><path fill="#371a45" d="M 126.097656 66.046875 C 125.058594 66.046875 124.019531 65.832031 123 65.402344 C 117.648438 63.148438 114.722656 55.527344 116.476562 48.417969 C 117.453125 44.453125 119.707031 41.328125 122.652344 39.839844 C 124.839844 38.738281 127.175781 38.652344 129.398438 39.589844 C 134.753906 41.84375 137.675781 49.460938 135.921875 56.574219 C 134.945312 60.539062 132.695312 63.664062 129.746094 65.148438 C 128.5625 65.75 127.332031 66.046875 126.097656 66.046875 Z M 126.300781 39.195312 C 125.109375 39.195312 123.917969 39.488281 122.769531 40.066406 C 119.886719 41.515625 117.683594 44.582031 116.722656 48.476562 C 114.996094 55.472656 117.855469 62.960938 123.101562 65.171875 C 125.253906 66.078125 127.515625 65.988281 129.636719 64.925781 C 132.519531 63.472656 134.722656 60.40625 135.683594 56.515625 C 137.410156 49.519531 134.550781 42.03125 129.304688 39.820312 C 128.324219 39.40625 127.3125 39.195312 126.300781 39.195312 Z M 135.808594 56.542969 Z M 135.808594 56.542969 " fill-opacity="1" fill-rule="nonzero"/><path fill="#371a45" d="M 117.121094 58.929688 C 116.3125 56.523438 116.160156 53.882812 116.570312 51.359375 C 118.890625 56.6875 124.105469 58.515625 128.640625 55.398438 C 131.574219 53.382812 133.546875 49.765625 134.179688 45.859375 C 134.332031 46.191406 134.464844 46.546875 134.585938 46.910156 C 136.652344 53.035156 134.417969 60.699219 129.59375 64.011719 C 124.769531 67.339844 119.1875 65.054688 117.121094 58.929688 Z M 117.121094 58.929688 " fill-opacity="0.349" fill-rule="nonzero"/><path fill="#371a45" d="M 126.351562 67.136719 C 124.488281 67.136719 122.667969 66.453125 121.042969 65.128906 C 118.066406 62.707031 116.074219 58.355469 115.71875 53.5 C 115.121094 45.308594 119.316406 38.007812 125.066406 37.230469 C 127.289062 36.925781 129.488281 37.601562 131.414062 39.175781 C 134.390625 41.597656 136.382812 45.945312 136.738281 50.800781 C 137.339844 58.996094 133.140625 66.292969 127.390625 67.070312 C 127.042969 67.113281 126.699219 67.136719 126.351562 67.136719 Z M 126.089844 39.566406 C 125.859375 39.566406 125.621094 39.582031 125.390625 39.617188 C 120.875 40.226562 117.609375 46.375 118.117188 53.316406 C 118.421875 57.523438 120.082031 61.234375 122.550781 63.25 C 123.953125 64.386719 125.511719 64.878906 127.066406 64.671875 C 131.582031 64.0625 134.847656 57.914062 134.339844 50.96875 C 134.035156 46.765625 132.375 43.054688 129.90625 41.039062 C 128.707031 40.074219 127.40625 39.566406 126.089844 39.566406 Z M 126.089844 39.566406 " fill-opacity="1" fill-rule="nonzero"/><path fill="#ffffff" d="M 82.050781 19.761719 C 82.050781 19.761719 60.4375 21.667969 48.78125 34.296875 C 48.765625 34.3125 48.757812 34.324219 48.746094 34.339844 C 46.289062 36.992188 44.605469 40.253906 43.839844 43.769531 C 42.828125 48.417969 42.8125 51.765625 42.921875 54.710938 C 43.246094 63.671875 45.089844 67.792969 45.089844 67.792969 C 39.773438 63.277344 36.679688 58.023438 36.335938 50.5625 C 36.304688 49.832031 36.296875 49.070312 36.3125 48.289062 C 36.320312 48.105469 36.328125 47.933594 36.335938 47.75 C 36.328125 47.75 36.335938 47.742188 36.335938 47.734375 C 36.488281 46.15625 36.761719 44.089844 37.273438 41.785156 C 38.804688 34.832031 42.425781 25.691406 50.992188 21.160156 C 67.019531 12.707031 82.757812 18.789062 82.050781 19.761719 Z M 82.050781 19.761719 " fill-opacity="0.698" fill-rule="nonzero"/><g mask="url(#6591e83f1f)"><g transform="matrix(1, 0, 0, 1, 90, 32)"><g clip-path="url(#2b79db3acc)"><path fill="#ffffff" d="M 15.027344 7.183594 C 15.175781 7.644531 15.28125 8.113281 15.347656 8.589844 C 15.414062 9.066406 15.4375 9.539062 15.421875 10.015625 C 15.402344 10.488281 15.347656 10.953125 15.246094 11.40625 C 15.144531 11.859375 15.007812 12.296875 14.828125 12.710938 C 14.652344 13.128906 14.4375 13.515625 14.1875 13.878906 C 13.933594 14.242188 13.652344 14.570312 13.339844 14.867188 C 13.027344 15.160156 12.691406 15.414062 12.328125 15.632812 C 11.964844 15.847656 11.582031 16.019531 11.183594 16.148438 C 10.785156 16.277344 10.375 16.359375 9.957031 16.394531 C 9.535156 16.429688 9.113281 16.417969 8.6875 16.363281 C 8.261719 16.304688 7.84375 16.203125 7.429688 16.054688 C 7.015625 15.902344 6.617188 15.710938 6.230469 15.476562 C 5.84375 15.242188 5.476562 14.96875 5.132812 14.660156 C 4.789062 14.347656 4.472656 14.003906 4.183594 13.628906 C 3.898438 13.253906 3.640625 12.851562 3.417969 12.425781 C 3.199219 12 3.011719 11.554688 2.867188 11.097656 C 2.71875 10.636719 2.613281 10.167969 2.546875 9.691406 C 2.480469 9.214844 2.457031 8.738281 2.472656 8.265625 C 2.488281 7.792969 2.546875 7.328125 2.648438 6.875 C 2.746094 6.417969 2.886719 5.984375 3.066406 5.566406 C 3.242188 5.152344 3.457031 4.761719 3.707031 4.402344 C 3.957031 4.039062 4.242188 3.710938 4.554688 3.414062 C 4.867188 3.121094 5.203125 2.863281 5.566406 2.648438 C 5.929688 2.433594 6.308594 2.261719 6.710938 2.132812 C 7.109375 2.003906 7.519531 1.921875 7.9375 1.886719 C 8.359375 1.851562 8.78125 1.859375 9.207031 1.917969 C 9.632812 1.976562 10.050781 2.078125 10.464844 2.226562 C 10.878906 2.375 11.277344 2.566406 11.664062 2.800781 C 12.050781 3.039062 12.417969 3.308594 12.761719 3.621094 C 13.105469 3.933594 13.421875 4.277344 13.707031 4.652344 C 13.996094 5.027344 14.253906 5.429688 14.472656 5.855469 C 14.695312 6.28125 14.882812 6.722656 15.027344 7.183594 Z M 15.027344 7.183594 " fill-opacity="1" fill-rule="nonzero"/></g></g></g><g mask="url(#c5c5cd7a66)"><g transform="matrix(1, 0, 0, 1, 99, 49)"><g clip-path="url(#f4c36c5da2)"><path fill="#ffffff" d="M 6.324219 3.882812 C 6.480469 4.253906 6.570312 4.636719 6.59375 5.03125 C 6.613281 5.425781 6.570312 5.800781 6.453125 6.160156 C 6.335938 6.519531 6.160156 6.835938 5.921875 7.105469 C 5.6875 7.375 5.40625 7.578125 5.085938 7.714844 C 4.761719 7.851562 4.425781 7.914062 4.066406 7.898438 C 3.710938 7.882812 3.363281 7.792969 3.023438 7.628906 C 2.683594 7.464844 2.378906 7.238281 2.113281 6.949219 C 1.84375 6.660156 1.628906 6.328125 1.472656 5.957031 C 1.316406 5.585938 1.226562 5.203125 1.203125 4.808594 C 1.179688 4.414062 1.226562 4.039062 1.34375 3.679688 C 1.460938 3.320312 1.636719 3.003906 1.871094 2.734375 C 2.109375 2.46875 2.390625 2.265625 2.710938 2.125 C 3.03125 1.988281 3.371094 1.925781 3.730469 1.941406 C 4.085938 1.957031 4.433594 2.046875 4.773438 2.210938 C 5.113281 2.375 5.414062 2.601562 5.683594 2.890625 C 5.953125 3.179688 6.164062 3.511719 6.324219 3.882812 Z M 6.324219 3.882812 " fill-opacity="1" fill-rule="nonzero"/></g></g></g><path fill="#000000" d="M 84.371094 129.679688 C 84.371094 129.679688 84.371094 129.777344 84.277344 129.941406 C 84.304688 129.839844 84.332031 129.753906 84.371094 129.679688 Z M 84.371094 129.679688 " fill-opacity="0.349" fill-rule="nonzero"/><path fill="#ce2e2e" d="M 69.128906 115.574219 C 69.128906 115.574219 71.28125 126.027344 70.761719 127.667969 C 70.242188 129.304688 65.71875 138.097656 64.273438 135.320312 C 62.828125 132.546875 58.285156 127.527344 59.90625 122.46875 C 61.523438 117.410156 61.914062 115.21875 63.261719 115.574219 C 64.605469 115.929688 69.128906 115.574219 69.128906 115.574219 Z M 69.128906 115.574219 " fill-opacity="1" fill-rule="nonzero"/><path fill="#6b184e" d="M 71.476562 127.527344 C 71.015625 127.527344 70.601562 127.203125 70.507812 126.730469 L 68.160156 115.253906 C 68.050781 114.71875 68.398438 114.191406 68.933594 114.082031 C 69.46875 113.972656 69.996094 114.320312 70.105469 114.855469 L 72.453125 126.332031 C 72.558594 126.867188 72.214844 127.398438 71.679688 127.507812 C 71.605469 127.519531 71.542969 127.527344 71.476562 127.527344 Z M 71.476562 127.527344 " fill-opacity="1" fill-rule="nonzero"/><path fill="#6b184e" d="M 59.074219 126.050781 C 58.972656 126.050781 58.871094 126.035156 58.769531 126 C 58.25 125.832031 57.960938 125.265625 58.128906 124.746094 L 61.492188 114.21875 C 61.660156 113.695312 62.214844 113.40625 62.742188 113.574219 C 63.261719 113.742188 63.550781 114.304688 63.386719 114.828125 L 60.011719 125.359375 C 59.882812 125.78125 59.492188 126.050781 59.074219 126.050781 Z M 59.074219 126.050781 " fill-opacity="1" fill-rule="nonzero"/><path fill="#33aef1" d="M 75.3125 129.128906 L 14.457031 129.128906 L 14.167969 128.1875 L 13.972656 127.566406 L 13.191406 125.027344 L 9.125 111.847656 L 7.476562 106.519531 L 2.363281 89.941406 C 1.664062 87.664062 3.359375 85.351562 5.738281 85.351562 L 59 85.351562 C 60.640625 85.351562 62.085938 86.425781 62.578125 87.992188 L 72.414062 119.773438 L 73.222656 122.375 Z M 75.3125 129.128906 " fill-opacity="1" fill-rule="nonzero"/><path fill="#ffffff" d="M 72.40625 119.773438 C 69.777344 119.207031 67.589844 117.269531 66.753906 114.617188 L 60.683594 95.429688 C 59.722656 92.390625 56.90625 90.316406 53.726562 90.316406 L 16.949219 90.316406 C 13.515625 90.316406 10.425781 88.367188 8.914062 85.34375 L 61.753906 85.34375 Z M 72.40625 119.773438 " fill-opacity="0.349" fill-rule="nonzero"/><path fill="#f92323" d="M 76.148438 129.128906 L 76.148438 135.039062 L 17.894531 135.039062 C 16.320312 135.039062 14.996094 133.980469 14.585938 132.539062 C 14.5 132.234375 14.449219 131.914062 14.449219 131.582031 L 14.449219 129.128906 Z M 76.148438 129.128906 " fill-opacity="1" fill-rule="nonzero"/><path fill="#848484" d="M 76.691406 129.128906 L 105.613281 114.9375 C 106.660156 114.4375 107.875 115.175781 107.902344 116.34375 C 107.917969 116.945312 107.601562 117.503906 107.078125 117.792969 L 76.148438 135.039062 Z M 76.691406 129.128906 " fill-opacity="1" fill-rule="nonzero"/><path fill="#371a45" d="M 76.148438 131.949219 L 76.148438 134.453125 L 17.894531 134.453125 C 16.320312 134.453125 14.996094 133.394531 14.585938 131.949219 Z M 76.148438 131.949219 " fill-opacity="0.349" fill-rule="nonzero"/><path fill="#33aef1" d="M 105.027344 115.226562 L 95.210938 122.816406 L 74.964844 128.730469 L 70.957031 114.777344 L 73.121094 114.804688 L 96.734375 115.117188 Z M 105.027344 115.226562 " fill-opacity="1" fill-rule="nonzero"/><path fill="#ffffff" d="M 73.925781 126.238281 L 89.578125 118.046875 L 72.683594 118.046875 Z M 73.925781 126.238281 " fill-opacity="0.6" fill-rule="nonzero"/><g clip-path="url(#37119b0e74)"><path fill="#371a45" d="M 75.3125 130.339844 L 14.457031 130.339844 C 13.929688 130.339844 13.457031 129.992188 13.308594 129.492188 L 1.136719 90.027344 C 0.703125 88.636719 0.957031 87.164062 1.816406 85.992188 C 2.675781 84.816406 4.003906 84.140625 5.460938 84.140625 L 59.3125 84.140625 C 61.304688 84.140625 63.046875 85.425781 63.632812 87.339844 L 76.460938 128.773438 C 76.574219 129.144531 76.503906 129.542969 76.28125 129.847656 C 76.054688 130.152344 75.695312 130.339844 75.3125 130.339844 Z M 15.34375 127.925781 L 73.679688 127.925781 L 61.335938 88.054688 C 61.058594 87.164062 60.242188 86.554688 59.304688 86.554688 L 5.457031 86.554688 C 4.777344 86.554688 4.15625 86.875 3.742188 87.417969 C 3.332031 87.960938 3.222656 88.65625 3.425781 89.3125 Z M 15.34375 127.925781 " fill-opacity="1" fill-rule="nonzero"/></g><path fill="#371a45" d="M 76.148438 136.242188 L 17.894531 136.242188 C 15.328125 136.242188 13.25 134.148438 13.25 131.582031 L 13.25 129.128906 C 13.25 128.464844 13.785156 127.925781 14.457031 127.925781 L 76.15625 127.925781 C 76.820312 127.925781 77.363281 128.464844 77.363281 129.128906 C 77.363281 129.796875 76.828125 130.332031 76.15625 130.332031 L 15.65625 130.332031 L 15.65625 131.574219 C 15.65625 132.8125 16.660156 133.820312 17.894531 133.820312 L 76.148438 133.820312 C 76.8125 133.820312 77.355469 134.355469 77.355469 135.023438 C 77.355469 135.691406 76.8125 136.242188 76.148438 136.242188 Z M 76.148438 136.242188 " fill-opacity="1" fill-rule="nonzero"/><path fill="#f92323" d="M 76.691406 129.128906 L 105.613281 114.9375 C 106.660156 114.4375 107.875 115.175781 107.902344 116.34375 C 107.917969 116.945312 107.601562 117.503906 107.078125 117.792969 L 76.148438 135.039062 Z M 76.691406 129.128906 " fill-opacity="1" fill-rule="nonzero"/><path fill="#371a45" d="M 107.902344 116.34375 L 107.902344 116.386719 C 107.902344 116.964844 107.585938 117.503906 107.078125 117.785156 L 76.148438 135.03125 L 76.417969 132.066406 L 106.558594 116.457031 C 106.828125 116.320312 107.035156 116.117188 107.195312 115.871094 C 107.3125 115.675781 107.390625 115.457031 107.417969 115.226562 C 107.699219 115.507812 107.890625 115.894531 107.902344 116.34375 Z M 107.902344 116.34375 " fill-opacity="0.349" fill-rule="nonzero"/><path fill="#371a45" d="M 76.148438 136.242188 C 75.730469 136.242188 75.320312 136.015625 75.09375 135.617188 C 74.769531 135.039062 74.980469 134.300781 75.566406 133.980469 L 106.496094 116.734375 C 106.625 116.660156 106.703125 116.523438 106.695312 116.371094 C 106.691406 116.183594 106.574219 116.082031 106.507812 116.046875 C 106.445312 116.007812 106.300781 115.945312 106.132812 116.023438 L 77.21875 130.21875 C 76.617188 130.507812 75.902344 130.261719 75.609375 129.667969 C 75.3125 129.074219 75.566406 128.347656 76.15625 128.050781 L 105.078125 113.855469 C 105.945312 113.4375 106.941406 113.488281 107.757812 113.988281 C 108.574219 114.488281 109.074219 115.355469 109.101562 116.308594 C 109.132812 117.359375 108.582031 118.328125 107.664062 118.84375 L 76.734375 136.089844 C 76.554688 136.199219 76.351562 136.242188 76.148438 136.242188 Z M 76.148438 136.242188 " fill-opacity="1" fill-rule="nonzero"/><path fill="#371a45" d="M 105.929688 115.988281 L 70.957031 115.988281 C 70.292969 115.988281 69.75 115.453125 69.75 114.785156 C 69.75 114.117188 70.285156 113.582031 70.957031 113.582031 L 105.929688 113.582031 C 106.597656 113.582031 107.128906 114.117188 107.128906 114.785156 C 107.128906 115.453125 106.597656 115.988281 105.929688 115.988281 Z M 105.929688 115.988281 " fill-opacity="1" fill-rule="nonzero"/><path fill="#371a45" d="M 75.796875 136.242188 C 75.132812 136.242188 74.589844 135.707031 74.589844 135.039062 L 74.589844 129.128906 C 74.589844 128.464844 75.125 127.925781 75.796875 127.925781 C 76.46875 127.925781 77 128.464844 77 129.128906 L 77 135.039062 C 77 135.707031 76.460938 136.242188 75.796875 136.242188 Z M 75.796875 136.242188 " fill-opacity="1" fill-rule="nonzero"/><path fill="#ffffff" d="M 46.230469 135.511719 C 46.230469 135.511719 40.273438 142.492188 30.738281 142.035156 C 14.332031 141.25 17.972656 128.753906 21.402344 126.449219 C 30.390625 120.410156 39.816406 126.914062 40.863281 129.585938 C 42.8125 134.558594 46.230469 135.511719 46.230469 135.511719 Z M 46.230469 135.511719 " fill-opacity="1" fill-rule="nonzero"/><path fill="#371a45" d="M 46.230469 135.511719 C 46.230469 135.511719 40.273438 142.484375 30.738281 142.027344 C 20.878906 141.554688 18.253906 136.859375 18.484375 132.683594 C 20.097656 135.058594 23.417969 136.929688 29.464844 137.222656 C 35.503906 137.511719 40.113281 134.8125 42.675781 132.796875 C 44.417969 135.003906 46.230469 135.511719 46.230469 135.511719 Z M 46.230469 135.511719 " fill-opacity="0.349" fill-rule="nonzero"/><path fill="#371a45" d="M 31.640625 143.257812 C 31.320312 143.257812 31.003906 143.253906 30.679688 143.238281 C 21.484375 142.796875 18.484375 138.875 17.597656 135.65625 C 16.484375 131.625 18.355469 127.042969 20.734375 125.441406 C 25.898438 121.96875 30.902344 122.476562 34.191406 123.503906 C 38.167969 124.753906 41.277344 127.355469 41.984375 129.144531 C 43.667969 133.429688 46.449219 134.304688 46.5625 134.34375 C 46.953125 134.457031 47.261719 134.769531 47.378906 135.160156 C 47.496094 135.554688 47.40625 135.980469 47.148438 136.292969 C 46.894531 136.589844 41.082031 143.257812 31.640625 143.257812 Z M 29.351562 125.164062 C 27.148438 125.164062 24.632812 125.730469 22.074219 127.449219 C 20.644531 128.40625 19.058594 131.914062 19.917969 135.007812 C 20.890625 138.519531 24.648438 140.535156 30.792969 140.824219 C 37.316406 141.136719 42.121094 137.671875 44.195312 135.828125 C 42.851562 134.953125 41.007812 133.234375 39.75 130.035156 C 39.390625 129.117188 36.984375 126.917969 33.480469 125.816406 C 32.320312 125.449219 30.910156 125.164062 29.351562 125.164062 Z M 29.351562 125.164062 " fill-opacity="1" fill-rule="nonzero"/><path fill="#371a45" d="M 96.734375 115.117188 C 93.679688 124.511719 74.742188 124.09375 73.179688 115.191406 C 73.160156 115.058594 73.136719 114.9375 73.121094 114.804688 Z M 96.734375 115.117188 " fill-opacity="0.349" fill-rule="nonzero"/><path fill="#ffffff" d="M 110.105469 105.332031 C 110.105469 105.332031 101.734375 97.300781 92.273438 97.300781 C 82.527344 97.300781 71.476562 102.554688 73.179688 112.3125 C 74.835938 121.765625 96.085938 121.65625 97.113281 110.382812 Z M 110.105469 105.332031 " fill-opacity="1" fill-rule="nonzero"/><path fill="#371a45" d="M 97.113281 110.390625 C 96.09375 121.664062 74.835938 121.773438 73.179688 112.320312 C 72.898438 110.703125 72.964844 109.210938 73.324219 107.847656 C 75.441406 115.445312 90.835938 116.234375 95.6875 109.253906 C 96.128906 108.621094 97.113281 108.914062 97.113281 109.6875 Z M 97.113281 110.390625 " fill-opacity="0.349" fill-rule="nonzero"/><path fill="#371a45" d="M 84.570312 120.359375 C 79.03125 120.359375 72.949219 117.972656 71.996094 112.535156 C 71.382812 109.027344 72.257812 105.738281 74.515625 103.035156 C 78.042969 98.828125 85.003906 96.101562 92.273438 96.101562 C 102.109375 96.101562 110.582031 104.128906 110.9375 104.46875 C 111.414062 104.933594 111.433594 105.695312 110.972656 106.171875 C 110.511719 106.652344 109.753906 106.671875 109.277344 106.207031 C 109.160156 106.101562 101.113281 98.515625 92.273438 98.515625 C 85.691406 98.515625 79.445312 100.894531 76.359375 104.585938 C 74.539062 106.757812 73.867188 109.289062 74.367188 112.117188 C 75.082031 116.207031 80.398438 118.132812 85.273438 117.929688 C 90.242188 117.71875 95.464844 115.277344 95.914062 110.289062 C 95.96875 109.621094 96.554688 109.136719 97.21875 109.195312 C 97.882812 109.253906 98.367188 109.839844 98.3125 110.507812 C 97.726562 116.953125 91.390625 120.089844 85.375 120.34375 C 85.105469 120.351562 84.839844 120.359375 84.570312 120.359375 Z M 84.570312 120.359375 " fill-opacity="1" fill-rule="nonzero"/><path fill="#371a45" d="M 104.59375 186.246094 C 103.257812 185.695312 101.855469 185.304688 100.464844 185.050781 C 99.070312 184.796875 97.667969 184.667969 96.28125 184.703125 C 94.894531 184.738281 93.527344 184.878906 92.183594 185.167969 C 91.507812 185.269531 90.847656 185.480469 90.175781 185.625 C 89.835938 185.6875 89.519531 185.820312 89.1875 185.90625 C 88.855469 186.007812 88.523438 186.09375 88.183594 186.183594 L 88.066406 186.210938 C 87.425781 186.371094 86.773438 185.972656 86.617188 185.328125 C 86.480469 184.753906 86.769531 184.175781 87.289062 183.941406 C 87.640625 183.78125 87.996094 183.628906 88.355469 183.484375 C 88.71875 183.347656 89.070312 183.179688 89.453125 183.09375 C 90.207031 182.890625 90.957031 182.667969 91.738281 182.585938 C 93.277344 182.316406 94.859375 182.363281 96.394531 182.535156 C 97.941406 182.710938 99.4375 183.117188 100.859375 183.671875 C 102.277344 184.246094 103.621094 184.972656 104.78125 185.957031 C 104.855469 186.023438 104.863281 186.132812 104.804688 186.203125 C 104.753906 186.261719 104.675781 186.285156 104.609375 186.253906 Z M 104.59375 186.246094 " fill-opacity="1" fill-rule="nonzero"/><path fill="#371a45" d="M 73.5625 181.96875 C 72.257812 181.5 70.921875 181.136719 69.582031 180.882812 C 68.246094 180.621094 66.910156 180.484375 65.597656 180.46875 C 65.265625 180.476562 64.9375 180.457031 64.613281 180.476562 C 64.289062 180.5 63.964844 180.527344 63.640625 180.542969 C 63.3125 180.558594 62.996094 180.628906 62.679688 180.664062 C 62.519531 180.6875 62.359375 180.703125 62.203125 180.722656 C 62.042969 180.753906 61.890625 180.789062 61.730469 180.816406 C 60.460938 181.007812 59.277344 181.460938 58.039062 181.839844 L 57.917969 181.875 C 57.28125 182.070312 56.609375 181.710938 56.421875 181.070312 C 56.25 180.507812 56.515625 179.910156 57.023438 179.652344 C 57.355469 179.476562 57.703125 179.308594 58.039062 179.148438 L 58.5625 178.917969 C 58.734375 178.847656 58.921875 178.800781 59.101562 178.746094 C 59.464844 178.628906 59.832031 178.519531 60.191406 178.425781 C 60.5625 178.351562 60.9375 178.289062 61.3125 178.230469 C 62.808594 178.011719 64.332031 178.046875 65.792969 178.292969 C 67.257812 178.527344 68.671875 178.941406 70.011719 179.503906 C 71.339844 180.078125 72.609375 180.773438 73.746094 181.671875 C 73.816406 181.730469 73.832031 181.839844 73.773438 181.917969 C 73.722656 181.976562 73.648438 182 73.578125 181.976562 Z M 73.5625 181.96875 " fill-opacity="1" fill-rule="nonzero"/><path fill="#371a45" d="M 100.738281 128.210938 C 100.261719 128.210938 99.863281 127.832031 99.835938 127.355469 C 99.804688 126.855469 100.1875 126.425781 100.6875 126.40625 C 103.386719 126.261719 106.046875 124.214844 107.621094 121.070312 C 110.265625 115.769531 109.355469 108.867188 105.179688 102.589844 C 104.90625 102.179688 105.015625 101.613281 105.425781 101.335938 C 105.835938 101.0625 106.402344 101.171875 106.675781 101.582031 C 111.210938 108.40625 112.164062 115.988281 109.226562 121.875 C 107.363281 125.601562 104.125 128.027344 100.773438 128.210938 C 100.765625 128.210938 100.753906 128.210938 100.738281 128.210938 Z M 100.738281 128.210938 " fill-opacity="1" fill-rule="nonzero"/><path fill="#ffffff" d="M 39.722656 114.589844 C 39.699219 114.601562 39.679688 114.617188 39.65625 114.632812 C 36.964844 116.3125 33.351562 115.589844 31.515625 112.992188 C 29.480469 110.117188 30.289062 106.15625 33.222656 104.300781 C 33.234375 104.292969 33.25 104.289062 33.265625 104.273438 C 34.09375 103.757812 35.085938 104.644531 34.710938 105.550781 C 34.089844 107.058594 34.175781 108.824219 35.105469 110.3125 C 36.039062 111.789062 37.589844 112.636719 39.210938 112.726562 C 40.191406 112.785156 40.554688 114.058594 39.722656 114.589844 Z M 39.722656 114.589844 " fill-opacity="1" fill-rule="nonzero"/><g clip-path="url(#bb1f5fe761)"><path fill="#d7a84d" d="M 71.976562 27.777344 L 67.613281 39.210938 L 76.523438 37.875 L 55.96875 69.40625 L 63.609375 48.59375 L 57.242188 49.394531 L 62.878906 27.777344 Z M 71.976562 27.777344 " fill-opacity="1" fill-rule="nonzero"/></g><g clip-path="url(#3a9f77f367)"><path fill="#d7a84d" d="M 62.878906 27.777344 L 64.519531 27.777344 L 57.242188 49.394531 Z M 55.96875 69.40625 L 65.246094 48.59375 L 63.609375 48.59375 Z M 55.96875 69.40625 " fill-opacity="1" fill-rule="nonzero"/></g></svg>