<svg xmlns="http://www.w3.org/2000/svg" xmlns:xlink="http://www.w3.org/1999/xlink" width="500" zoomAndPan="magnify" viewBox="0 0 375 374.999991" height="500" preserveAspectRatio="xMidYMid meet" version="1.0"><defs><filter x="0%" y="0%" width="100%" height="100%" id="c36a380299"><feColorMatrix values="0 0 0 0 1 0 0 0 0 1 0 0 0 0 1 0 0 0 1 0" color-interpolation-filters="sRGB"/></filter><mask id="fcf688a69c"><g filter="url(#c36a380299)"><rect x="-37.5" width="450" fill="#000000" y="-37.499999" height="449.999989" fill-opacity="0.698"/></g></mask><clipPath id="2de157ee07"><rect x="0" width="30" y="0" height="38"/></clipPath><mask id="d1eb2a6add"><g filter="url(#c36a380299)"><rect x="-37.5" width="450" fill="#000000" y="-37.499999" height="449.999989" fill-opacity="0.698"/></g></mask><clipPath id="b1e4a98676"><rect x="0" width="18" y="0" height="20"/></clipPath><clipPath id="7e421cd11f"><path d="M 30 282 L 345.796875 282 L 345.796875 375 L 30 375 Z M 30 282 " clip-rule="nonzero"/></clipPath><clipPath id="0755d541d1"><path d="M 302 320 L 345.796875 320 L 345.796875 326 L 302 326 Z M 302 320 " clip-rule="nonzero"/></clipPath><clipPath id="ce4bc87778"><path d="M 297 289 L 345.796875 289 L 345.796875 375 L 297 375 Z M 297 289 " clip-rule="nonzero"/></clipPath><clipPath id="8a7cbea472"><path d="M 167.371094 68 L 221.371094 68 L 221.371094 179.617188 L 167.371094 179.617188 Z M 167.371094 68 " clip-rule="nonzero"/></clipPath><clipPath id="2ddb60c39e"><path d="M 167.371094 68 L 192 68 L 192 179.617188 L 167.371094 179.617188 Z M 167.371094 68 " clip-rule="nonzero"/></clipPath></defs><path fill="#ffffff" d="M 283.132812 204.746094 L 283.132812 317.179688 C 283.132812 331.578125 271.464844 343.242188 257.0625 343.242188 L 119.714844 343.242188 C 105.3125 343.242188 93.644531 331.578125 93.644531 317.179688 L 93.644531 205.011719 C 93.644531 204.886719 93.644531 204.773438 93.644531 204.648438 C 93.785156 194.414062 99.8125 185.605469 108.507812 181.472656 C 111.902344 179.859375 115.703125 178.949219 119.714844 178.949219 L 257.0625 178.949219 C 259.613281 178.949219 262.082031 179.3125 264.410156 180 C 275.140625 183.152344 283.007812 193.023438 283.132812 204.746094 Z M 283.132812 204.746094 " fill-opacity="1" fill-rule="nonzero"/><path fill="#371a45" d="M 257.0625 345.582031 L 119.714844 345.582031 C 104.050781 345.582031 91.300781 332.839844 91.300781 317.179688 L 91.300781 205.011719 C 91.300781 189.351562 104.050781 176.605469 119.714844 176.605469 L 257.0625 176.605469 C 272.726562 176.605469 285.476562 189.351562 285.476562 205.011719 L 285.476562 317.179688 C 285.476562 332.839844 272.726562 345.582031 257.0625 345.582031 Z M 119.714844 181.289062 C 106.628906 181.289062 95.984375 191.929688 95.984375 205.011719 L 95.984375 317.179688 C 95.984375 330.257812 106.628906 340.902344 119.714844 340.902344 L 257.0625 340.902344 C 270.148438 340.902344 280.792969 330.257812 280.792969 317.179688 L 280.792969 205.011719 C 280.792969 191.929688 270.148438 181.289062 257.0625 181.289062 Z M 119.714844 181.289062 " fill-opacity="1" fill-rule="nonzero"/><path fill="#ffffff" d="M 135.480469 267.109375 L 238.914062 267.109375 L 238.914062 348.527344 L 135.480469 348.527344 Z M 135.480469 267.109375 " fill-opacity="1" fill-rule="nonzero"/><path fill="#ffffff" d="M 311.714844 272.101562 C 306.652344 293.089844 291.984375 294.757812 283.132812 293.679688 C 278.980469 293.175781 276.136719 292.082031 276.136719 292.082031 L 100.570312 292.082031 C 100.570312 292.082031 97.738281 293.175781 93.644531 293.679688 C 84.808594 294.785156 70.039062 293.175781 64.976562 272.113281 C 59.171875 247.984375 76.574219 221.542969 93.644531 204.675781 C 99.167969 199.207031 104.652344 194.75 109.308594 191.691406 C 111.019531 190.570312 112.71875 189.492188 114.429688 188.4375 C 120.234375 184.878906 126.011719 181.722656 131.621094 178.960938 C 162.097656 163.902344 187.835938 159.851562 187.835938 159.851562 L 188.84375 159.851562 C 188.84375 159.851562 214.566406 163.902344 245.042969 178.960938 C 249.640625 181.234375 254.355469 183.757812 259.09375 186.546875 C 261.84375 188.160156 264.605469 189.882812 267.371094 191.679688 C 272.054688 194.75 277.578125 199.234375 283.132812 204.746094 C 300.175781 221.613281 317.507812 248 311.714844 272.101562 Z M 311.714844 272.101562 " fill-opacity="1" fill-rule="nonzero"/><path fill="#371a45" d="M 311.714844 272.101562 C 304.296875 302.917969 276.136719 292.082031 276.136719 292.082031 L 100.570312 292.082031 C 100.570312 292.082031 72.410156 302.917969 64.976562 272.101562 C 63.644531 266.578125 63.53125 260.914062 64.359375 255.289062 C 64.511719 256.328125 64.722656 257.367188 64.976562 258.402344 C 72.394531 289.21875 100.570312 278.382812 100.570312 278.382812 L 276.121094 278.382812 C 276.121094 278.382812 304.28125 289.21875 311.703125 258.402344 C 311.953125 257.367188 312.164062 256.328125 312.320312 255.289062 C 313.160156 260.914062 313.035156 266.5625 311.714844 272.101562 Z M 311.714844 272.101562 " fill-opacity="0.349" fill-rule="nonzero"/><path fill="#371a45" d="M 89.617188 296.273438 C 85.675781 296.273438 81.21875 295.570312 76.953125 293.328125 C 69.925781 289.640625 65.128906 282.671875 62.71875 272.632812 C 54.445312 238.253906 90.390625 201.296875 108.046875 189.714844 C 147.09375 164.113281 187.089844 157.59375 187.484375 157.523438 C 187.609375 157.507812 187.722656 157.496094 187.847656 157.496094 L 188.859375 157.496094 C 188.984375 157.496094 189.097656 157.507812 189.222656 157.523438 C 189.617188 157.578125 229.613281 164.113281 268.660156 189.714844 C 286.332031 201.296875 322.277344 238.253906 313.988281 272.632812 C 311.574219 282.671875 306.78125 289.628906 299.753906 293.328125 C 288.519531 299.230469 275.828125 294.464844 275.292969 294.253906 C 274.085938 293.792969 273.484375 292.429688 273.945312 291.226562 C 274.410156 290.019531 275.769531 289.417969 276.976562 289.878906 C 277.089844 289.921875 288.28125 294.085938 297.621094 289.164062 C 303.386719 286.121094 307.367188 280.191406 309.457031 271.539062 C 313.527344 254.632812 305.277344 237.371094 297.636719 225.875 C 287.578125 210.730469 274.367188 199.039062 266.105469 193.628906 C 229.195312 169.425781 191.550781 162.667969 188.675781 162.179688 L 188.042969 162.179688 C 185.183594 162.667969 147.484375 169.457031 110.613281 193.628906 C 102.351562 199.039062 89.140625 210.730469 79.085938 225.875 C 71.441406 237.371094 63.195312 254.632812 67.261719 271.539062 C 69.351562 280.191406 73.320312 286.121094 79.097656 289.164062 C 88.441406 294.085938 99.632812 289.921875 99.742188 289.878906 C 100.949219 289.417969 102.296875 290.019531 102.773438 291.226562 C 103.234375 292.429688 102.632812 293.777344 101.425781 294.238281 C 101.078125 294.378906 96.054688 296.273438 89.617188 296.273438 Z M 89.617188 296.273438 " fill-opacity="1" fill-rule="nonzero"/><path fill="#ffffff" d="M 283.933594 120.914062 C 282.839844 121.070312 281.84375 120.3125 281.6875 119.21875 L 273.695312 62.421875 C 273.539062 61.328125 274.296875 60.332031 275.390625 60.175781 C 286.820312 58.566406 297.382812 66.527344 298.996094 77.957031 L 301.714844 97.320312 C 303.316406 108.746094 295.363281 119.304688 283.933594 120.914062 Z M 283.933594 120.914062 " fill-opacity="1" fill-rule="nonzero"/><path fill="#371a45" d="M 283.652344 121.351562 C 282.472656 121.351562 281.4375 120.480469 281.269531 119.273438 L 273.273438 62.476562 C 273.089844 61.160156 274.003906 59.9375 275.320312 59.757812 C 286.960938 58.117188 297.761719 66.25 299.402344 77.886719 L 302.125 97.25 C 303.765625 108.886719 295.628906 119.679688 283.988281 121.320312 C 283.875 121.351562 283.765625 121.351562 283.652344 121.351562 Z M 278.308594 60.386719 C 277.355469 60.386719 276.402344 60.457031 275.449219 60.585938 C 274.59375 60.710938 273.988281 61.496094 274.117188 62.363281 L 282.109375 119.164062 C 282.234375 120.019531 283.019531 120.621094 283.890625 120.496094 C 295.070312 118.925781 302.878906 108.550781 301.308594 97.375 L 298.574219 78.011719 C 297.128906 67.789062 288.351562 60.386719 278.308594 60.386719 Z M 278.308594 60.386719 " fill-opacity="1" fill-rule="nonzero"/><path fill="#371a45" d="M 300.441406 88.234375 L 301.714844 97.320312 C 303.316406 108.730469 295.363281 119.304688 283.933594 120.914062 C 282.839844 121.070312 281.84375 120.3125 281.675781 119.21875 L 279.542969 104.117188 C 279.949219 104.761719 280.707031 105.140625 281.507812 105.03125 L 282.851562 104.832031 C 291.886719 103.570312 298.757812 96.703125 300.441406 88.234375 Z M 300.441406 88.234375 " fill-opacity="0.349" fill-rule="nonzero"/><path fill="#371a45" d="M 283.652344 123.269531 C 281.535156 123.269531 279.667969 121.699219 279.359375 119.542969 L 271.367188 62.742188 C 271.03125 60.375 272.683594 58.1875 275.054688 57.851562 C 287.746094 56.054688 299.515625 64.929688 301.308594 77.621094 L 304.03125 96.980469 C 305.8125 109.671875 296.949219 121.433594 284.253906 123.230469 C 284.058594 123.257812 283.847656 123.269531 283.652344 123.269531 Z M 283.609375 118.589844 Z M 276.050781 62.449219 L 283.945312 118.546875 C 293.890625 116.960938 300.789062 107.652344 299.386719 97.640625 L 296.667969 78.277344 C 295.980469 73.371094 293.414062 69.023438 289.457031 66.050781 C 285.589844 63.136719 280.847656 61.859375 276.050781 62.449219 Z M 276.050781 62.449219 " fill-opacity="1" fill-rule="nonzero"/><path fill="#ffffff" d="M 87.863281 86.566406 C 88.957031 86.410156 89.953125 87.167969 90.109375 88.261719 L 98.101562 145.058594 C 98.257812 146.152344 97.5 147.148438 96.40625 147.300781 C 84.976562 148.914062 74.414062 140.949219 72.800781 129.523438 L 70.082031 110.160156 C 68.484375 98.734375 76.449219 88.175781 87.863281 86.566406 Z M 87.863281 86.566406 " fill-opacity="1" fill-rule="nonzero"/><path fill="#371a45" d="M 93.488281 147.917969 C 83.039062 147.917969 73.894531 140.207031 72.394531 129.582031 L 69.675781 110.21875 C 68.035156 98.582031 76.167969 87.785156 87.808594 86.144531 C 89.128906 85.960938 90.347656 86.875 90.53125 88.191406 L 98.523438 144.988281 C 98.609375 145.632812 98.453125 146.265625 98.0625 146.769531 C 97.667969 147.289062 97.105469 147.609375 96.476562 147.710938 C 95.480469 147.847656 94.484375 147.917969 93.488281 147.917969 Z M 88.144531 86.957031 C 88.074219 86.957031 88.003906 86.957031 87.921875 86.972656 C 76.742188 88.542969 68.929688 98.917969 70.503906 110.089844 L 73.222656 129.453125 C 74.792969 140.628906 85.171875 148.4375 96.351562 146.867188 C 96.769531 146.8125 97.136719 146.585938 97.386719 146.265625 C 97.640625 145.941406 97.753906 145.523438 97.695312 145.101562 L 89.703125 88.304688 C 89.589844 87.53125 88.917969 86.957031 88.144531 86.957031 Z M 87.863281 86.566406 Z M 87.863281 86.566406 " fill-opacity="1" fill-rule="nonzero"/><path fill="#371a45" d="M 95.902344 129.300781 L 98.117188 145.058594 C 98.269531 146.152344 97.515625 147.148438 96.421875 147.316406 C 90.417969 148.15625 84.652344 146.363281 80.304688 142.816406 C 76.378906 139.605469 73.585938 134.964844 72.832031 129.539062 L 71.679688 121.378906 C 75.929688 128.078125 83.855469 132.046875 92.242188 130.871094 L 94.316406 130.574219 C 95.058594 130.464844 95.648438 129.957031 95.902344 129.300781 Z M 95.902344 129.300781 " fill-opacity="0.349" fill-rule="nonzero"/><path fill="#371a45" d="M 93.488281 149.839844 C 82.101562 149.839844 72.128906 141.441406 70.503906 129.847656 L 67.78125 110.484375 C 66 97.796875 74.863281 86.03125 87.554688 84.238281 C 88.707031 84.070312 89.84375 84.363281 90.769531 85.0625 C 91.695312 85.765625 92.28125 86.773438 92.449219 87.925781 L 100.445312 144.722656 C 100.613281 145.871094 100.320312 147.007812 99.617188 147.933594 C 98.917969 148.859375 97.90625 149.449219 96.757812 149.617188 C 95.648438 149.769531 94.570312 149.839844 93.488281 149.839844 Z M 87.851562 88.933594 C 77.90625 90.519531 70.992188 99.828125 72.410156 109.839844 L 75.128906 129.203125 C 76.546875 139.210938 85.746094 146.25 95.746094 145.03125 Z M 87.863281 86.566406 Z M 87.863281 86.566406 " fill-opacity="1" fill-rule="nonzero"/><path fill="#371a45" d="M 264.410156 180 C 262.742188 182.257812 260.960938 184.429688 259.09375 186.53125 C 242.6875 205.054688 219.277344 217.40625 192.632812 219.242188 C 162.070312 221.347656 133.824219 209.175781 114.429688 188.425781 C 112.351562 186.195312 110.375 183.882812 108.507812 181.472656 C 111.902344 179.859375 115.703125 178.949219 119.714844 178.949219 L 131.636719 178.949219 C 162.113281 163.890625 187.847656 159.835938 187.847656 159.835938 L 188.859375 159.835938 C 188.859375 159.835938 214.578125 163.890625 245.054688 178.949219 L 257.0625 178.949219 C 259.613281 178.949219 262.066406 179.324219 264.410156 180 Z M 264.410156 180 " fill-opacity="0.349" fill-rule="nonzero"/><path fill="#ffffff" d="M 283.679688 103.738281 C 283.679688 105.339844 283.640625 106.9375 283.5625 108.535156 C 283.484375 110.132812 283.367188 111.726562 283.210938 113.320312 C 283.054688 114.910156 282.855469 116.5 282.621094 118.082031 C 282.386719 119.664062 282.113281 121.238281 281.800781 122.808594 C 281.488281 124.375 281.140625 125.9375 280.75 127.488281 C 280.363281 129.039062 279.933594 130.582031 279.46875 132.113281 C 279.007812 133.644531 278.503906 135.160156 277.964844 136.667969 C 277.425781 138.171875 276.851562 139.664062 276.238281 141.144531 C 275.625 142.621094 274.976562 144.082031 274.292969 145.527344 C 273.609375 146.976562 272.890625 148.402344 272.136719 149.8125 C 271.382812 151.222656 270.59375 152.617188 269.769531 153.988281 C 268.949219 155.359375 268.09375 156.710938 267.203125 158.039062 C 266.316406 159.371094 265.394531 160.679688 264.441406 161.960938 C 263.488281 163.246094 262.503906 164.507812 261.488281 165.746094 C 260.472656 166.980469 259.429688 168.191406 258.355469 169.378906 C 257.28125 170.5625 256.175781 171.71875 255.046875 172.851562 C 253.914062 173.984375 252.753906 175.085938 251.570312 176.160156 C 250.382812 177.234375 249.171875 178.277344 247.9375 179.292969 C 246.699219 180.308594 245.4375 181.292969 244.152344 182.246094 C 242.867188 183.199219 241.558594 184.117188 240.230469 185.007812 C 238.898438 185.894531 237.546875 186.75 236.175781 187.574219 C 234.804688 188.394531 233.410156 189.183594 232 189.9375 C 230.589844 190.691406 229.160156 191.410156 227.714844 192.09375 C 226.265625 192.777344 224.804688 193.425781 223.328125 194.039062 C 221.847656 194.652344 220.355469 195.226562 218.851562 195.765625 C 217.34375 196.304688 215.824219 196.804688 214.292969 197.269531 C 212.761719 197.734375 211.21875 198.160156 209.667969 198.550781 C 208.117188 198.9375 206.554688 199.289062 204.988281 199.601562 C 203.417969 199.914062 201.839844 200.1875 200.257812 200.421875 C 198.675781 200.65625 197.089844 200.851562 195.496094 201.007812 C 193.902344 201.164062 192.308594 201.28125 190.710938 201.359375 C 189.113281 201.4375 187.511719 201.480469 185.914062 201.480469 C 184.3125 201.480469 182.714844 201.4375 181.117188 201.359375 C 179.519531 201.28125 177.921875 201.164062 176.328125 201.007812 C 174.738281 200.851562 173.148438 200.65625 171.566406 200.421875 C 169.984375 200.1875 168.410156 199.914062 166.839844 199.601562 C 165.269531 199.289062 163.710938 198.9375 162.15625 198.550781 C 160.605469 198.160156 159.0625 197.734375 157.53125 197.269531 C 156 196.804688 154.484375 196.304688 152.976562 195.765625 C 151.46875 195.226562 149.976562 194.652344 148.5 194.039062 C 147.019531 193.425781 145.558594 192.777344 144.113281 192.09375 C 142.664062 191.410156 141.238281 190.691406 139.824219 189.9375 C 138.414062 189.183594 137.023438 188.394531 135.648438 187.574219 C 134.277344 186.75 132.925781 185.894531 131.597656 185.007812 C 130.265625 184.117188 128.957031 183.199219 127.671875 182.246094 C 126.386719 181.292969 125.125 180.308594 123.890625 179.292969 C 122.652344 178.277344 121.441406 177.234375 120.257812 176.160156 C 119.070312 175.085938 117.914062 173.984375 116.78125 172.851562 C 115.648438 171.71875 114.546875 170.5625 113.472656 169.378906 C 112.398438 168.191406 111.351562 166.980469 110.335938 165.746094 C 109.324219 164.507812 108.339844 163.246094 107.386719 161.960938 C 106.433594 160.679688 105.511719 159.371094 104.621094 158.039062 C 103.734375 156.710938 102.878906 155.359375 102.054688 153.988281 C 101.230469 152.617188 100.445312 151.222656 99.691406 149.8125 C 98.933594 148.402344 98.214844 146.976562 97.53125 145.527344 C 96.847656 144.082031 96.199219 142.621094 95.585938 141.144531 C 94.976562 139.664062 94.398438 138.171875 93.859375 136.667969 C 93.320312 135.160156 92.820312 133.644531 92.355469 132.113281 C 91.890625 130.582031 91.464844 129.039062 91.074219 127.488281 C 90.6875 125.9375 90.335938 124.375 90.023438 122.808594 C 89.710938 121.238281 89.4375 119.664062 89.203125 118.082031 C 88.96875 116.5 88.773438 114.910156 88.617188 113.320312 C 88.460938 111.726562 88.339844 110.132812 88.261719 108.535156 C 88.183594 106.9375 88.144531 105.339844 88.144531 103.738281 C 88.144531 102.140625 88.183594 100.542969 88.261719 98.945312 C 88.339844 97.347656 88.460938 95.75 88.617188 94.160156 C 88.773438 92.566406 88.96875 90.980469 89.203125 89.398438 C 89.4375 87.816406 89.710938 86.242188 90.023438 84.671875 C 90.335938 83.101562 90.6875 81.542969 91.074219 79.992188 C 91.464844 78.441406 91.890625 76.898438 92.355469 75.367188 C 92.820312 73.835938 93.320312 72.320312 93.859375 70.8125 C 94.398438 69.308594 94.976562 67.816406 95.585938 66.335938 C 96.199219 64.859375 96.847656 63.398438 97.53125 61.953125 C 98.214844 60.503906 98.933594 59.078125 99.691406 57.667969 C 100.445312 56.253906 101.230469 54.863281 102.054688 53.492188 C 102.878906 52.121094 103.734375 50.769531 104.621094 49.4375 C 105.511719 48.109375 106.433594 46.800781 107.386719 45.515625 C 108.339844 44.230469 109.324219 42.972656 110.335938 41.734375 C 111.351562 40.5 112.398438 39.289062 113.472656 38.101562 C 114.546875 36.917969 115.648438 35.757812 116.78125 34.628906 C 117.914062 33.496094 119.070312 32.394531 120.257812 31.320312 C 121.441406 30.246094 122.652344 29.203125 123.890625 28.1875 C 125.125 27.171875 126.386719 26.1875 127.671875 25.234375 C 128.957031 24.28125 130.265625 23.363281 131.597656 22.472656 C 132.925781 21.585938 134.277344 20.730469 135.648438 19.90625 C 137.023438 19.085938 138.414062 18.296875 139.824219 17.542969 C 141.238281 16.789062 142.664062 16.070312 144.113281 15.386719 C 145.558594 14.703125 147.019531 14.054688 148.5 13.441406 C 149.976562 12.828125 151.46875 12.253906 152.976562 11.714844 C 154.484375 11.175781 156 10.675781 157.53125 10.210938 C 159.0625 9.746094 160.605469 9.320312 162.15625 8.929688 C 163.710938 8.542969 165.269531 8.191406 166.839844 7.878906 C 168.410156 7.566406 169.984375 7.292969 171.566406 7.058594 C 173.148438 6.824219 174.738281 6.628906 176.328125 6.472656 C 177.921875 6.316406 179.519531 6.199219 181.117188 6.117188 C 182.714844 6.039062 184.3125 6 185.914062 6 C 187.511719 6 189.113281 6.039062 190.710938 6.117188 C 192.308594 6.199219 193.902344 6.316406 195.496094 6.472656 C 197.089844 6.628906 198.675781 6.824219 200.257812 7.058594 C 201.839844 7.292969 203.417969 7.566406 204.988281 7.878906 C 206.554688 8.191406 208.117188 8.542969 209.667969 8.929688 C 211.21875 9.320312 212.761719 9.746094 214.292969 10.210938 C 215.824219 10.675781 217.34375 11.175781 218.851562 11.714844 C 220.355469 12.253906 221.847656 12.828125 223.328125 13.441406 C 224.804688 14.054688 226.265625 14.703125 227.714844 15.386719 C 229.160156 16.070312 230.589844 16.789062 232 17.542969 C 233.410156 18.296875 234.804688 19.085938 236.175781 19.90625 C 237.546875 20.730469 238.898438 21.585938 240.230469 22.472656 C 241.558594 23.363281 242.867188 24.28125 244.152344 25.234375 C 245.4375 26.1875 246.699219 27.171875 247.9375 28.1875 C 249.171875 29.203125 250.382812 30.246094 251.570312 31.320312 C 252.753906 32.394531 253.914062 33.496094 255.046875 34.628906 C 256.175781 35.757812 257.28125 36.917969 258.355469 38.101562 C 259.429688 39.289062 260.472656 40.5 261.488281 41.734375 C 262.503906 42.972656 263.488281 44.230469 264.441406 45.515625 C 265.394531 46.800781 266.316406 48.109375 267.203125 49.4375 C 268.09375 50.769531 268.949219 52.121094 269.769531 53.492188 C 270.59375 54.863281 271.382812 56.253906 272.136719 57.667969 C 272.890625 59.078125 273.609375 60.503906 274.292969 61.953125 C 274.976562 63.398438 275.625 64.859375 276.238281 66.335938 C 276.851562 67.816406 277.425781 69.308594 277.964844 70.8125 C 278.503906 72.320312 279.007812 73.835938 279.46875 75.367188 C 279.933594 76.898438 280.363281 78.441406 280.75 79.992188 C 281.140625 81.542969 281.488281 83.101562 281.800781 84.671875 C 282.113281 86.242188 282.386719 87.816406 282.621094 89.398438 C 282.855469 90.980469 283.054688 92.566406 283.210938 94.160156 C 283.367188 95.75 283.484375 97.347656 283.5625 98.945312 C 283.640625 100.542969 283.679688 102.140625 283.679688 103.738281 Z M 283.679688 103.738281 " fill-opacity="1" fill-rule="nonzero"/><path fill="#371a45" d="M 185.773438 201.898438 C 162.085938 201.898438 139.460938 193.457031 121.425781 177.753906 C 101.652344 160.539062 89.773438 136.648438 87.964844 110.496094 C 84.230469 56.503906 125.144531 9.546875 179.152344 5.820312 C 205.324219 4.011719 230.609375 12.507812 250.398438 29.722656 C 270.175781 46.941406 282.066406 70.832031 283.863281 96.980469 C 285.671875 123.144531 277.171875 148.425781 259.949219 168.207031 C 242.726562 187.992188 218.828125 199.867188 192.671875 201.660156 C 190.359375 201.816406 188.058594 201.898438 185.773438 201.898438 Z M 186.054688 6.421875 C 183.78125 6.421875 181.496094 6.507812 179.210938 6.660156 C 125.675781 10.347656 85.117188 56.898438 88.804688 110.429688 C 90.601562 136.351562 102.378906 160.046875 121.988281 177.109375 C 141.59375 194.175781 166.683594 202.601562 192.617188 200.804688 C 246.164062 197.117188 286.722656 150.554688 283.035156 97.023438 C 281.238281 71.101562 269.460938 47.40625 249.851562 30.339844 C 231.972656 14.792969 209.542969 6.421875 186.054688 6.421875 Z M 186.054688 6.421875 " fill-opacity="1" fill-rule="nonzero"/><path fill="#371a45" d="M 281.578125 83.578125 C 282.503906 87.9375 283.132812 92.425781 283.441406 97.011719 C 287.144531 150.863281 246.5 197.523438 192.632812 201.242188 C 138.761719 204.941406 92.085938 164.308594 88.371094 110.457031 C 88.257812 108.914062 88.1875 107.355469 88.160156 105.828125 C 98.003906 152.839844 141.273438 186.574219 190.554688 183.179688 C 242.882812 179.5625 282.726562 135.453125 281.578125 83.578125 Z M 281.578125 83.578125 " fill-opacity="0.349" fill-rule="nonzero"/><path fill="#371a45" d="M 185.773438 203.820312 C 161.621094 203.820312 138.566406 195.210938 120.179688 179.199219 C 100.011719 161.644531 87.894531 137.292969 86.054688 110.625 C 82.253906 55.566406 123.964844 7.699219 179.027344 3.898438 C 234.101562 0.0976562 281.984375 41.796875 285.785156 96.855469 C 289.585938 151.902344 247.875 199.78125 192.8125 203.582031 C 190.441406 203.734375 188.101562 203.820312 185.773438 203.820312 Z M 185.984375 8.34375 C 183.78125 8.34375 181.578125 8.414062 179.347656 8.566406 C 126.855469 12.183594 87.109375 57.820312 90.726562 110.300781 C 92.480469 135.722656 104.035156 158.941406 123.25 175.667969 C 142.464844 192.394531 167.0625 200.652344 192.492188 198.898438 C 244.984375 195.28125 284.746094 149.644531 281.113281 97.164062 C 277.636719 46.929688 235.632812 8.34375 185.984375 8.34375 Z M 185.984375 8.34375 " fill-opacity="1" fill-rule="nonzero"/><path fill="#371a45" d="M 283.300781 99.535156 C 284.902344 118.589844 280.203125 136.800781 270.863281 152.335938 C 263.847656 163.972656 232.855469 185.929688 192.601562 189.671875 C 155.28125 193.148438 119.632812 176.101562 110.78125 165.796875 C 98.972656 152.042969 91.285156 134.878906 89.6875 115.8125 C 85.4375 65.394531 127.023438 40.84375 180.484375 36.34375 C 233.949219 31.839844 279.066406 49.101562 283.300781 99.535156 Z M 283.300781 99.535156 " fill-opacity="1" fill-rule="nonzero"/><path fill="#371a45" d="M 182.40625 192.492188 C 147.933594 192.492188 117.445312 177.152344 109.015625 167.339844 C 96.449219 152.714844 88.957031 134.964844 87.359375 116.035156 C 85.285156 91.375 93.574219 71.519531 112 57.035156 C 128.101562 44.390625 151.707031 36.425781 180.304688 34.027344 C 208.886719 31.617188 233.5 35.527344 251.480469 45.300781 C 272.066406 56.503906 283.566406 74.6875 285.644531 99.351562 C 287.242188 118.292969 282.824219 137.023438 272.867188 153.554688 C 265.96875 165.011719 235.40625 188.0625 192.828125 192.027344 C 189.320312 192.335938 185.84375 192.492188 182.40625 192.492188 Z M 196.332031 37.996094 C 191.285156 37.996094 186.054688 38.222656 180.683594 38.667969 C 153.011719 40.996094 130.261719 48.609375 114.890625 60.695312 C 97.78125 74.140625 90.082031 92.621094 92.015625 115.628906 C 93.53125 133.578125 100.628906 150.402344 112.5625 164.28125 C 120.261719 173.242188 149.828125 187.808594 182.5625 187.808594 C 185.816406 187.808594 189.097656 187.667969 192.390625 187.359375 C 232.8125 183.589844 262.585938 161.546875 268.855469 151.144531 C 278.296875 135.46875 282.488281 117.691406 280.972656 99.746094 C 279.039062 76.75 268.367188 59.8125 249.234375 49.410156 C 235.394531 41.867188 217.316406 37.996094 196.332031 37.996094 Z M 196.332031 37.996094 " fill-opacity="1" fill-rule="nonzero"/><g mask="url(#fcf688a69c)"><g transform="matrix(1, 0, 0, 1, 236, 76)"><g clip-path="url(#2de157ee07)"><path fill="#ffffff" d="M 16.9375 2.101562 C 17.757812 2.179688 18.558594 2.367188 19.339844 2.667969 C 20.121094 2.964844 20.871094 3.363281 21.589844 3.871094 C 22.304688 4.375 22.972656 4.976562 23.59375 5.667969 C 24.214844 6.363281 24.777344 7.136719 25.28125 7.992188 C 25.785156 8.847656 26.21875 9.765625 26.582031 10.75 C 26.949219 11.734375 27.238281 12.761719 27.453125 13.835938 C 27.664062 14.914062 27.800781 16.011719 27.851562 17.136719 C 27.90625 18.261719 27.878906 19.386719 27.769531 20.519531 C 27.664062 21.652344 27.476562 22.761719 27.210938 23.855469 C 26.945312 24.949219 26.605469 26.003906 26.191406 27.019531 C 25.777344 28.035156 25.296875 28.992188 24.753906 29.886719 C 24.207031 30.785156 23.605469 31.605469 22.949219 32.347656 C 22.292969 33.09375 21.59375 33.746094 20.855469 34.308594 C 20.113281 34.875 19.34375 35.335938 18.542969 35.695312 C 17.746094 36.054688 16.933594 36.308594 16.109375 36.453125 C 15.285156 36.597656 14.460938 36.628906 13.640625 36.550781 C 12.824219 36.472656 12.019531 36.285156 11.238281 35.988281 C 10.457031 35.6875 9.707031 35.289062 8.992188 34.78125 C 8.273438 34.277344 7.605469 33.679688 6.984375 32.984375 C 6.363281 32.292969 5.800781 31.515625 5.296875 30.660156 C 4.796875 29.808594 4.359375 28.886719 3.996094 27.902344 C 3.628906 26.917969 3.339844 25.890625 3.128906 24.816406 C 2.914062 23.742188 2.78125 22.640625 2.726562 21.515625 C 2.671875 20.390625 2.699219 19.265625 2.808594 18.132812 C 2.914062 17.003906 3.101562 15.890625 3.367188 14.796875 C 3.632812 13.703125 3.972656 12.648438 4.386719 11.632812 C 4.800781 10.617188 5.28125 9.664062 5.828125 8.765625 C 6.371094 7.867188 6.972656 7.046875 7.628906 6.304688 C 8.285156 5.558594 8.984375 4.90625 9.722656 4.34375 C 10.464844 3.78125 11.234375 3.316406 12.035156 2.957031 C 12.832031 2.597656 13.644531 2.34375 14.46875 2.199219 C 15.292969 2.058594 16.117188 2.023438 16.9375 2.101562 Z M 16.9375 2.101562 " fill-opacity="1" fill-rule="nonzero"/></g></g></g><g mask="url(#d1eb2a6add)"><g transform="matrix(1, 0, 0, 1, 230, 121)"><g clip-path="url(#b1e4a98676)"><path fill="#ffffff" d="M 10.691406 2.03125 C 11.125 2.132812 11.542969 2.285156 11.949219 2.484375 C 12.351562 2.6875 12.730469 2.929688 13.085938 3.222656 C 13.441406 3.511719 13.769531 3.839844 14.0625 4.207031 C 14.359375 4.574219 14.617188 4.976562 14.839844 5.40625 C 15.0625 5.839844 15.242188 6.292969 15.386719 6.773438 C 15.527344 7.253906 15.625 7.746094 15.679688 8.253906 C 15.734375 8.761719 15.746094 9.273438 15.710938 9.792969 C 15.679688 10.308594 15.601562 10.820312 15.480469 11.328125 C 15.359375 11.835938 15.195312 12.328125 14.992188 12.804688 C 14.789062 13.28125 14.550781 13.734375 14.269531 14.164062 C 13.992188 14.589844 13.683594 14.988281 13.339844 15.351562 C 13 15.714844 12.628906 16.039062 12.238281 16.324219 C 11.84375 16.609375 11.433594 16.851562 11.003906 17.046875 C 10.574219 17.242188 10.136719 17.386719 9.6875 17.484375 C 9.238281 17.582031 8.789062 17.632812 8.339844 17.628906 C 7.886719 17.625 7.445312 17.570312 7.007812 17.46875 C 6.574219 17.363281 6.15625 17.210938 5.75 17.011719 C 5.347656 16.8125 4.96875 16.566406 4.613281 16.277344 C 4.257812 15.988281 3.929688 15.65625 3.636719 15.289062 C 3.339844 14.921875 3.082031 14.523438 2.859375 14.089844 C 2.636719 13.660156 2.457031 13.203125 2.3125 12.722656 C 2.171875 12.246094 2.074219 11.75 2.019531 11.242188 C 1.964844 10.734375 1.953125 10.222656 1.988281 9.707031 C 2.019531 9.1875 2.097656 8.675781 2.21875 8.167969 C 2.339844 7.664062 2.503906 7.171875 2.707031 6.695312 C 2.910156 6.21875 3.148438 5.765625 3.429688 5.335938 C 3.707031 4.90625 4.015625 4.511719 4.359375 4.148438 C 4.703125 3.78125 5.070312 3.457031 5.460938 3.171875 C 5.855469 2.886719 6.265625 2.648438 6.695312 2.453125 C 7.125 2.257812 7.5625 2.109375 8.011719 2.011719 C 8.460938 1.914062 8.910156 1.867188 9.359375 1.871094 C 9.8125 1.871094 10.253906 1.925781 10.691406 2.03125 Z M 10.691406 2.03125 " fill-opacity="1" fill-rule="nonzero"/></g></g></g><path fill="#111a28" d="M 260.511719 54.078125 C 273.300781 64.371094 281.589844 79.289062 283.300781 99.535156 C 284.902344 118.589844 280.203125 136.800781 270.863281 152.335938 C 263.847656 163.972656 232.839844 185.929688 192.601562 189.6875 C 178.394531 191.019531 164.425781 189.363281 152.085938 186.238281 C 201.453125 180.574219 239.207031 153.652344 247.902344 139.210938 C 259.769531 119.5 265.730469 96.378906 263.695312 72.207031 C 263.148438 65.730469 262.066406 59.699219 260.511719 54.078125 Z M 260.511719 54.078125 " fill-opacity="0.349" fill-rule="nonzero"/><path fill="#371a45" d="M 93.347656 74.578125 C 92.898438 74.578125 92.4375 74.449219 92.03125 74.171875 C 90.976562 73.46875 90.699219 72.039062 91.355469 70.972656 C 106.308594 44.488281 138.214844 27.339844 178.886719 23.90625 C 219.320312 20.5 253.609375 31.632812 272.980469 54.429688 C 273.695312 55.226562 273.792969 56.449219 273.148438 57.34375 C 272.390625 58.398438 270.945312 58.648438 269.894531 57.890625 C 269.738281 57.78125 269.585938 57.640625 269.460938 57.484375 C 251.085938 35.824219 218.210938 25.28125 179.292969 28.5625 C 140.148438 31.882812 109.574219 48.191406 95.410156 73.34375 C 95.367188 73.414062 95.324219 73.484375 95.269531 73.554688 C 94.820312 74.226562 94.09375 74.578125 93.347656 74.578125 Z M 93.347656 74.578125 " fill-opacity="1" fill-rule="nonzero"/><path fill="#ffffff" d="M 113.953125 143.992188 C 113.953125 143.992188 94.132812 95.550781 119.292969 73.46875 C 144.457031 51.386719 183.039062 48.21875 182.351562 50.769531 C 182.351562 50.769531 140.5 64.707031 126.628906 99.871094 C 115.929688 127 113.953125 143.992188 113.953125 143.992188 Z M 113.953125 143.992188 " fill-opacity="0.698" fill-rule="nonzero"/><path fill="#ffffff" d="M 80.292969 214.925781 L 89.042969 202.011719 C 89.042969 202.011719 126.070312 191.285156 157.484375 199.976562 C 188.003906 208.417969 188.382812 224.21875 188.382812 224.21875 L 188.382812 255.289062 L 87.050781 255.289062 Z M 80.292969 214.925781 " fill-opacity="1" fill-rule="nonzero"/><path fill="#ffffff" d="M 188.394531 224.21875 L 188.394531 255.289062 L 87.050781 255.289062 L 80.292969 214.925781 L 85.84375 206.738281 L 89.042969 202.011719 C 89.042969 202.011719 126.070312 191.285156 157.5 199.976562 C 188.015625 208.433594 188.394531 224.21875 188.394531 224.21875 Z M 188.394531 224.21875 " fill-opacity="1" fill-rule="nonzero"/><path fill="#6b184e" d="M 185.730469 229.535156 L 185.730469 255.289062 L 87.050781 255.289062 L 80.292969 214.925781 L 85.84375 206.738281 C 94.554688 204.605469 126.347656 197.875 153.949219 205.292969 C 185.339844 213.746094 185.730469 229.535156 185.730469 229.535156 Z M 185.730469 229.535156 " fill-opacity="0.298" fill-rule="nonzero"/><path fill="#ffffff" d="M 296.484375 214.925781 L 287.734375 202.011719 C 287.734375 202.011719 250.707031 191.285156 219.292969 199.976562 C 188.773438 208.417969 188.394531 224.21875 188.394531 224.21875 L 188.394531 255.289062 L 289.726562 255.289062 Z M 296.484375 214.925781 " fill-opacity="1" fill-rule="nonzero"/><path fill="#ffffff" d="M 296.484375 214.925781 L 289.710938 255.289062 L 188.382812 255.289062 L 188.382812 224.21875 C 188.382812 224.21875 188.761719 208.433594 219.277344 199.976562 C 250.707031 191.285156 287.734375 202.011719 287.734375 202.011719 L 290.652344 206.316406 Z M 296.484375 214.925781 " fill-opacity="1" fill-rule="nonzero"/><path fill="#6b184e" d="M 296.484375 214.925781 L 289.710938 255.289062 L 191.171875 255.289062 L 191.171875 229.746094 C 191.171875 229.746094 191.566406 213.957031 223.710938 205.503906 C 249.558594 198.714844 278.996094 203.777344 290.652344 206.316406 Z M 296.484375 214.925781 " fill-opacity="0.298" fill-rule="nonzero"/><path fill="#ffffff" d="M 174.453125 223.113281 C 142.925781 195.660156 74.527344 208.613281 74.527344 208.613281 L 91.972656 321.214844 C 91.972656 321.214844 142.925781 308.261719 174.453125 335.714844 Z M 174.453125 223.113281 " fill-opacity="1" fill-rule="nonzero"/><path fill="#ffffff" d="M 174.453125 223.113281 C 142.925781 195.660156 74.527344 208.613281 74.527344 208.613281 L 91.972656 321.214844 C 91.972656 321.214844 142.925781 308.261719 174.453125 335.714844 Z M 174.453125 223.113281 " fill-opacity="1" fill-rule="nonzero"/><path fill="#371a45" d="M 188.382812 257.632812 L 87.050781 257.632812 C 85.902344 257.632812 84.933594 256.804688 84.738281 255.683594 L 77.964844 215.316406 C 77.863281 214.726562 77.992188 214.113281 78.328125 213.621094 L 87.078125 200.707031 C 87.386719 200.257812 87.835938 199.921875 88.371094 199.769531 C 89.914062 199.320312 126.390625 188.957031 158.085938 197.722656 C 189.925781 206.527344 190.679688 223.449219 190.710938 224.164062 L 190.710938 255.289062 C 190.722656 256.582031 189.6875 257.632812 188.382812 257.632812 Z M 89.042969 252.949219 L 186.054688 252.949219 L 186.054688 224.289062 C 185.996094 223.644531 184.523438 209.90625 156.867188 202.25 C 128.972656 194.539062 96.011719 202.601562 90.5 204.058594 L 82.761719 215.472656 Z M 89.042969 252.949219 " fill-opacity="1" fill-rule="nonzero"/><path fill="#371a45" d="M 289.710938 257.632812 L 188.382812 257.632812 C 187.089844 257.632812 186.039062 256.582031 186.039062 255.289062 L 186.039062 224.21875 C 186.054688 223.449219 186.824219 206.539062 218.660156 197.722656 C 250.355469 188.945312 286.851562 199.320312 288.378906 199.769531 C 288.898438 199.921875 289.359375 200.246094 289.667969 200.707031 L 298.421875 213.621094 C 298.757812 214.125 298.898438 214.726562 298.785156 215.316406 L 292.011719 255.683594 C 291.84375 256.804688 290.859375 257.632812 289.710938 257.632812 Z M 190.722656 252.949219 L 287.734375 252.949219 L 294.015625 215.457031 L 286.273438 204.042969 C 280.75 202.585938 247.789062 194.511719 219.910156 202.234375 C 192.253906 209.890625 190.78125 223.644531 190.722656 224.277344 Z M 190.722656 252.949219 " fill-opacity="1" fill-rule="nonzero"/><path fill="#f92323" d="M 174.453125 223.113281 L 174.453125 335.714844 C 142.925781 308.261719 91.972656 321.214844 91.972656 321.214844 L 87.277344 290.890625 L 78.550781 246.820312 L 74.511719 208.601562 C 74.527344 208.617188 142.941406 195.644531 174.453125 223.113281 Z M 174.453125 223.113281 " fill-opacity="1" fill-rule="nonzero"/><path fill="#ffffff" d="M 174.453125 223.113281 L 174.453125 225.257812 C 153.445312 211.238281 121.144531 210.730469 100.234375 212.261719 C 88.890625 213.085938 80.488281 221.808594 81.527344 231.695312 L 83.769531 252.933594 L 91.988281 321.214844 C 89.140625 321.707031 91.988281 321.214844 91.988281 321.214844 L 87.289062 290.890625 L 78.566406 246.820312 L 74.527344 208.601562 C 74.527344 208.617188 142.941406 195.644531 174.453125 223.113281 Z M 174.453125 223.113281 " fill-opacity="0.4471" fill-rule="nonzero"/><path fill="#371a45" d="M 174.453125 223.113281 L 174.453125 335.714844 C 142.925781 308.261719 91.972656 321.214844 91.972656 321.214844 L 90.5 307.265625 C 101.902344 305.457031 122.296875 302.738281 145.269531 310.617188 C 155.746094 314.207031 167.078125 307.433594 167.078125 297.617188 L 167.078125 217.769531 C 169.714844 219.355469 172.183594 221.121094 174.453125 223.113281 Z M 174.453125 223.113281 " fill-opacity="0.349" fill-rule="nonzero"/><path fill="#f92323" d="M 301.15625 208.617188 L 296.035156 241.648438 L 288.238281 291.953125 L 283.707031 321.214844 C 283.707031 321.214844 232.742188 308.261719 201.226562 335.714844 L 201.226562 223.113281 C 232.742188 195.644531 301.15625 208.617188 301.15625 208.617188 Z M 301.15625 208.617188 " fill-opacity="1" fill-rule="nonzero"/><path fill="#371a45" d="M 174.453125 338.054688 C 173.894531 338.054688 173.347656 337.859375 172.910156 337.480469 C 142.703125 311.164062 93.039062 323.359375 92.550781 323.488281 C 91.902344 323.65625 91.230469 323.527344 90.683594 323.164062 C 90.136719 322.800781 89.757812 322.226562 89.660156 321.566406 L 72.214844 208.964844 C 72.015625 207.71875 72.859375 206.539062 74.09375 206.300781 C 74.792969 206.160156 91.652344 203.019531 112.6875 203.21875 C 141.1875 203.484375 162.492188 209.570312 175.996094 221.332031 C 176.503906 221.78125 176.796875 222.425781 176.796875 223.097656 L 176.796875 335.699219 C 176.796875 336.609375 176.265625 337.453125 175.421875 337.832031 C 175.113281 337.984375 174.792969 338.054688 174.453125 338.054688 Z M 119.953125 315.816406 C 120.445312 315.816406 120.9375 315.816406 121.425781 315.832031 C 141.71875 316.070312 159.125 321.242188 172.113281 330.835938 L 172.113281 224.191406 C 144.664062 201.367188 89 208.671875 77.191406 210.535156 L 93.910156 318.382812 C 98.285156 317.472656 107.992188 315.816406 119.953125 315.816406 Z M 119.953125 315.816406 " fill-opacity="1" fill-rule="nonzero"/><path fill="#371a45" d="M 201.59375 223.113281 L 201.59375 335.714844 C 233.121094 308.261719 284.074219 321.214844 284.074219 321.214844 L 285.546875 307.265625 C 274.144531 305.457031 253.75 302.738281 230.777344 310.617188 C 220.300781 314.207031 208.96875 307.433594 208.96875 297.617188 L 208.96875 217.769531 C 206.347656 219.355469 203.878906 221.121094 201.59375 223.113281 Z M 201.59375 223.113281 " fill-opacity="0.349" fill-rule="nonzero"/><path fill="#ffffff" d="M 201.214844 223.113281 L 201.214844 225.257812 C 222.222656 211.238281 254.523438 210.730469 275.433594 212.261719 C 286.78125 213.085938 295.179688 221.808594 294.144531 231.695312 L 291.898438 252.933594 L 283.679688 321.214844 C 286.527344 321.707031 283.679688 321.214844 283.679688 321.214844 L 288.40625 290.691406 L 295.195312 246.878906 L 301.128906 208.613281 C 301.15625 208.617188 232.742188 195.644531 201.214844 223.113281 Z M 201.214844 223.113281 " fill-opacity="0.4471" fill-rule="nonzero"/><path fill="#371a45" d="M 201.214844 338.054688 C 200.890625 338.054688 200.554688 337.984375 200.246094 337.84375 C 199.417969 337.464844 198.871094 336.636719 198.871094 335.714844 L 198.871094 223.113281 C 198.871094 222.441406 199.167969 221.792969 199.671875 221.347656 C 213.175781 209.582031 234.46875 203.484375 262.980469 203.230469 C 284.003906 203.050781 300.875 206.191406 301.578125 206.316406 C 302.808594 206.554688 303.652344 207.730469 303.457031 208.980469 L 286.007812 321.582031 C 285.910156 322.226562 285.53125 322.8125 284.984375 323.179688 C 284.4375 323.542969 283.75 323.65625 283.121094 323.5 C 282.613281 323.375 232.964844 311.175781 202.757812 337.492188 C 202.320312 337.84375 201.773438 338.054688 201.214844 338.054688 Z M 203.554688 224.191406 L 203.554688 330.835938 C 216.542969 321.230469 233.949219 316.054688 254.242188 315.832031 C 266.878906 315.675781 277.199219 317.445312 281.757812 318.382812 L 298.476562 210.535156 C 286.667969 208.671875 231.015625 201.367188 203.554688 224.191406 Z M 203.554688 224.191406 " fill-opacity="1" fill-rule="nonzero"/><path fill="#371a45" d="M 296.035156 241.648438 L 288.238281 291.953125 C 275.757812 287.988281 250.425781 281.578125 257.621094 256.847656 C 261.660156 242.980469 288.292969 241.71875 296.035156 241.648438 Z M 296.035156 241.648438 " fill-opacity="0.349" fill-rule="nonzero"/><path fill="#371a45" d="M 79.589844 241.648438 L 87.386719 291.953125 C 99.871094 287.988281 125.199219 281.578125 118.003906 256.847656 C 113.964844 242.980469 87.316406 241.71875 79.589844 241.648438 Z M 79.589844 241.648438 " fill-opacity="0.349" fill-rule="nonzero"/><path fill="#ffffff" d="M 298.125 232.296875 C 298.125 232.296875 262.347656 231.230469 257.609375 247.496094 C 249.992188 273.628906 278.714844 279.292969 290.214844 283.261719 C 290.230469 283.261719 308.082031 263.492188 298.125 232.296875 Z M 298.125 232.296875 " fill-opacity="1" fill-rule="nonzero"/><path fill="#371a45" d="M 290.230469 283.246094 C 278.882812 279.335938 250.734375 273.753906 257.339844 248.476562 C 258.953125 253.398438 262.40625 257.097656 266.597656 259.960938 C 280.035156 269.15625 298.53125 260.730469 300.679688 244.59375 C 300.691406 244.4375 300.722656 244.269531 300.734375 244.117188 C 303.652344 268.398438 290.230469 283.246094 290.230469 283.246094 Z M 290.230469 283.246094 " fill-opacity="0.349" fill-rule="nonzero"/><path fill="#371a45" d="M 290.230469 285.589844 C 289.976562 285.589844 289.710938 285.546875 289.472656 285.464844 C 288.324219 285.070312 286.949219 284.636719 285.488281 284.1875 C 272.363281 280.09375 247.917969 272.464844 255.378906 246.835938 C 260.566406 229.042969 296.667969 229.914062 298.210938 229.953125 C 299.207031 229.984375 300.0625 230.640625 300.371094 231.582031 C 310.609375 263.6875 292.742188 283.976562 291.984375 284.816406 C 291.519531 285.324219 290.890625 285.589844 290.230469 285.589844 Z M 296.289062 234.609375 C 285.785156 234.609375 263.132812 236.9375 259.867188 248.140625 C 254.15625 267.726562 270.078125 274.484375 286.878906 279.714844 C 287.777344 279.996094 288.632812 280.261719 289.445312 280.527344 C 292.839844 276.082031 303.636719 259.398438 296.402344 234.609375 C 296.359375 234.609375 296.316406 234.609375 296.289062 234.609375 Z M 296.289062 234.609375 " fill-opacity="1" fill-rule="nonzero"/><path fill="#ffffff" d="M 140.09375 322 C 128.777344 280.851562 103.320312 282.183594 93.824219 287.398438 C 88.285156 290.441406 81.847656 294.96875 77.402344 305.835938 C 69.953125 278.832031 33.730469 281.804688 32.382812 318.539062 C 31.597656 340.15625 39.351562 355.652344 45.003906 362.519531 C 50.585938 369.308594 54.738281 371.5625 60.671875 372.320312 C 66.167969 373.023438 77.808594 372.097656 83.011719 369.867188 C 91.679688 366.152344 102.183594 356.378906 124.289062 355.382812 C 124.289062 355.382812 154.316406 355.734375 187.820312 355.511719 C 221.339844 355.734375 251.351562 355.382812 251.351562 355.382812 C 273.457031 356.378906 283.960938 366.152344 292.640625 369.867188 C 297.847656 372.097656 309.488281 373.023438 314.984375 372.320312 C 320.929688 371.5625 325.082031 369.308594 330.648438 362.519531 C 336.289062 355.652344 344.058594 340.15625 343.273438 318.539062 C 341.925781 281.804688 305.699219 278.832031 298.253906 305.835938 C 293.820312 294.96875 287.382812 290.441406 281.828125 287.398438 C 272.335938 282.167969 246.878906 280.851562 235.5625 322 L 235.5625 339.429688 L 140.402344 339.429688 C 140.316406 339.429688 140.246094 326.542969 140.234375 326.460938 Z M 140.09375 322 " fill-opacity="1" fill-rule="nonzero"/><path fill="#371a45" d="M 330.664062 362.535156 C 325.097656 369.320312 320.929688 371.578125 315 372.335938 C 309.5 373.035156 297.859375 372.109375 292.65625 369.882812 C 283.976562 366.167969 273.46875 356.394531 251.367188 355.398438 C 251.367188 355.398438 221.339844 355.75 187.820312 355.539062 C 154.300781 355.761719 124.289062 355.398438 124.289062 355.398438 C 102.183594 356.394531 91.679688 366.167969 83.011719 369.882812 C 77.808594 372.109375 66.167969 373.035156 60.671875 372.335938 C 54.722656 371.578125 50.574219 369.320312 45.003906 362.535156 C 39.367188 355.679688 31.597656 340.171875 32.382812 318.550781 C 32.453125 316.644531 32.621094 314.808594 32.875 313.082031 C 34.65625 328.253906 40.503906 339.234375 45.003906 344.699219 C 50.574219 351.488281 54.722656 353.742188 60.671875 354.5 C 60.726562 354.5 60.78125 354.515625 60.839844 354.515625 C 77.894531 356.746094 89.113281 343.523438 82.5625 327.625 C 77.710938 315.859375 75.945312 307.027344 77.402344 305.863281 C 80.125 303.675781 92.578125 336.863281 112.269531 336.023438 C 138.242188 334.914062 137.175781 313.082031 137.175781 313.082031 C 137.175781 313.082031 138.59375 314.890625 140.191406 317.835938 C 146.855469 330.078125 159.574219 337.800781 173.515625 337.761719 C 178.15625 337.761719 182.953125 337.730469 187.835938 337.703125 C 193.359375 337.746094 198.789062 337.761719 204.003906 337.773438 C 216.867188 337.800781 228.746094 330.664062 234.507812 319.167969 C 236.375 315.4375 238.226562 313.082031 238.226562 313.082031 C 238.226562 313.082031 237.144531 334.914062 263.132812 336.023438 C 282.824219 336.863281 286.542969 309.453125 300.511719 300.074219 C 297.480469 302.105469 296.851562 313.980469 293.132812 326.375 C 289.011719 340.117188 298.980469 354.207031 313.316406 354.558594 C 313.960938 354.570312 314.519531 354.558594 314.984375 354.5 C 320.917969 353.742188 325.082031 351.488281 330.648438 344.699219 C 335.152344 339.234375 341 328.253906 342.78125 313.082031 C 343.035156 314.824219 343.203125 316.644531 343.273438 318.550781 C 344.085938 340.171875 336.316406 355.664062 330.664062 362.535156 Z M 330.664062 362.535156 " fill-opacity="0.349" fill-rule="nonzero"/><path fill="#371a45" d="M 81.652344 325.015625 C 80.390625 321.917969 79.308594 318.832031 78.257812 315.761719 C 77.738281 314.21875 77.191406 312.691406 76.742188 311.148438 C 76.292969 309.59375 75.859375 308.050781 75.621094 306.453125 L 75.621094 306.425781 C 75.453125 305.261719 76.253906 304.195312 77.417969 304.011719 C 78.382812 303.871094 79.296875 304.40625 79.660156 305.261719 C 80.332031 306.789062 80.796875 308.386719 81.160156 310.011719 C 81.539062 311.625 81.765625 313.28125 81.960938 314.933594 C 82.15625 316.589844 82.28125 318.242188 82.351562 319.910156 C 82.410156 321.582031 82.410156 323.25 82.253906 324.945312 C 82.242188 325.113281 82.085938 325.238281 81.917969 325.226562 C 81.792969 325.199219 81.695312 325.113281 81.652344 325.015625 Z M 81.652344 325.015625 " fill-opacity="1" fill-rule="nonzero"/><path fill="#371a45" d="M 70.390625 374.691406 C 69.097656 374.691406 68.046875 373.640625 68.046875 372.347656 C 68.046875 371.269531 68.777344 370.371094 69.757812 370.09375 C 69.96875 370.035156 70.179688 370.007812 70.402344 370.007812 C 71.695312 370.007812 72.746094 371.058594 72.746094 372.347656 C 72.746094 373.429688 72.015625 374.339844 71.019531 374.605469 C 70.824219 374.648438 70.601562 374.691406 70.390625 374.691406 Z M 70.390625 374.691406 " fill-opacity="1" fill-rule="nonzero"/><path fill="#371a45" d="M 293.429688 324.929688 C 293.273438 323.25 293.289062 321.582031 293.34375 319.898438 C 293.414062 318.230469 293.539062 316.574219 293.738281 314.921875 C 293.933594 313.265625 294.15625 311.613281 294.535156 310 C 294.902344 308.386719 295.363281 306.773438 296.035156 305.246094 C 296.511719 304.179688 297.761719 303.691406 298.828125 304.167969 C 299.726562 304.558594 300.203125 305.5 300.074219 306.410156 L 300.074219 306.4375 C 299.835938 308.050781 299.402344 309.59375 298.953125 311.136719 C 298.503906 312.675781 297.957031 314.207031 297.4375 315.746094 C 296.375 318.816406 295.292969 321.902344 294.046875 325 C 293.976562 325.15625 293.804688 325.238281 293.636719 325.167969 C 293.511719 325.140625 293.441406 325.042969 293.429688 324.929688 Z M 293.429688 324.929688 " fill-opacity="1" fill-rule="nonzero"/><g clip-path="url(#7e421cd11f)"><path fill="#371a45" d="M 234.832031 321.804688 C 236.304688 314.21875 238.746094 306.703125 242.867188 299.875 C 243.386719 299.019531 243.949219 298.207031 244.496094 297.367188 C 245.085938 296.554688 245.671875 295.738281 246.289062 294.953125 C 247.582031 293.414062 248.925781 291.882812 250.457031 290.539062 C 251.183594 289.824219 252 289.207031 252.796875 288.5625 C 253.203125 288.253906 253.640625 287.972656 254.058594 287.664062 C 254.480469 287.371094 254.902344 287.074219 255.351562 286.824219 C 257.089844 285.714844 258.984375 284.816406 260.933594 284.089844 C 264.832031 282.617188 269.09375 282.070312 273.273438 282.40625 C 275.363281 282.589844 277.441406 283.007812 279.460938 283.667969 C 280.46875 284.019531 281.464844 284.410156 282.445312 284.917969 C 282.953125 285.167969 283.386719 285.421875 283.820312 285.660156 C 284.253906 285.898438 284.691406 286.164062 285.125 286.417969 C 288.589844 288.492188 291.855469 291.199219 294.4375 294.410156 C 295.726562 296.007812 296.863281 297.71875 297.886719 299.484375 C 298.910156 301.25 299.738281 303.101562 300.511719 304.953125 L 295.953125 305.21875 C 296.792969 302.328125 297.972656 299.511719 299.613281 296.917969 C 301.253906 294.339844 303.34375 291.984375 305.839844 290.132812 C 308.335938 288.265625 311.226562 286.921875 314.269531 286.207031 C 317.3125 285.492188 320.523438 285.421875 323.59375 286.039062 C 326.667969 286.65625 329.585938 287.902344 332.152344 289.640625 C 334.71875 291.378906 336.917969 293.582031 338.714844 296.035156 C 340.523438 298.488281 341.871094 301.222656 342.90625 304.011719 C 343.144531 304.714844 343.453125 305.414062 343.636719 306.128906 L 344.238281 308.273438 C 344.4375 308.988281 344.546875 309.71875 344.703125 310.449219 C 344.855469 311.175781 344.996094 311.890625 345.082031 312.621094 L 345.375 314.808594 C 345.445312 315.539062 345.488281 316.265625 345.53125 316.996094 C 345.65625 318.46875 345.644531 319.898438 345.671875 321.328125 C 345.699219 324.203125 345.53125 327.089844 345.265625 329.964844 C 344.6875 335.714844 343.441406 341.390625 341.601562 346.875 C 339.683594 352.34375 337.214844 357.640625 333.707031 362.4375 C 333.257812 363.027344 332.796875 363.628906 332.332031 364.203125 C 331.855469 364.765625 331.40625 365.324219 330.902344 365.859375 C 329.933594 366.953125 328.882812 368.015625 327.746094 369.027344 C 326.609375 370.035156 325.375 370.976562 324.015625 371.789062 C 322.667969 372.601562 321.195312 373.246094 319.683594 373.722656 C 318.183594 374.199219 316.652344 374.480469 315.152344 374.664062 C 313.609375 374.84375 312.136719 374.886719 310.679688 374.886719 C 307.761719 374.886719 304.886719 374.691406 302.011719 374.355469 C 300.582031 374.171875 299.136719 373.976562 297.691406 373.695312 C 296.246094 373.414062 294.800781 373.09375 293.328125 372.601562 C 292.613281 372.363281 291.785156 372.054688 291.140625 371.746094 C 290.453125 371.4375 289.78125 371.117188 289.136719 370.78125 C 288.476562 370.441406 287.847656 370.105469 287.230469 369.753906 L 285.378906 368.71875 C 282.9375 367.332031 280.539062 365.96875 278.113281 364.738281 C 275.6875 363.503906 273.191406 362.4375 270.664062 361.496094 C 265.589844 359.675781 260.273438 358.484375 254.886719 357.992188 C 253.542969 357.910156 252.25 357.769531 250.875 357.738281 L 246.683594 357.753906 L 238.28125 357.769531 L 221.480469 357.796875 L 187.875 357.867188 L 154.273438 357.796875 L 137.472656 357.769531 L 129.070312 357.753906 L 124.875 357.738281 C 123.503906 357.769531 122.199219 357.910156 120.851562 357.992188 C 115.453125 358.46875 110.152344 359.675781 105.074219 361.496094 C 102.535156 362.4375 100.050781 363.503906 97.625 364.738281 C 95.1875 365.96875 92.800781 367.332031 90.359375 368.71875 L 88.511719 369.753906 C 87.894531 370.105469 87.246094 370.441406 86.601562 370.78125 C 85.972656 371.117188 85.285156 371.4375 84.597656 371.746094 C 83.953125 372.054688 83.136719 372.378906 82.410156 372.601562 C 80.921875 373.09375 79.492188 373.414062 78.046875 373.695312 C 76.601562 373.976562 75.171875 374.171875 73.726562 374.355469 C 70.851562 374.691406 67.976562 374.886719 65.058594 374.886719 C 63.601562 374.886719 62.128906 374.84375 60.585938 374.664062 C 59.085938 374.480469 57.570312 374.1875 56.054688 373.722656 C 54.554688 373.261719 53.082031 372.601562 51.722656 371.789062 C 50.363281 370.976562 49.128906 370.035156 47.992188 369.027344 C 46.855469 368.015625 45.816406 366.953125 44.835938 365.859375 C 44.34375 365.3125 43.882812 364.75 43.40625 364.203125 C 42.941406 363.628906 42.480469 363.027344 42.03125 362.4375 C 38.523438 357.640625 36.058594 352.328125 34.136719 346.875 C 32.285156 341.378906 31.050781 335.699219 30.460938 329.964844 C 30.195312 327.089844 30.027344 324.214844 30.054688 321.328125 C 30.082031 319.882812 30.054688 318.453125 30.195312 316.996094 C 30.25 316.265625 30.277344 315.539062 30.347656 314.808594 L 30.644531 312.621094 C 30.726562 311.890625 30.867188 311.164062 31.023438 310.449219 C 31.175781 309.734375 31.300781 309.003906 31.484375 308.273438 L 32.085938 306.128906 C 32.269531 305.414062 32.578125 304.714844 32.816406 304.011719 C 33.867188 301.222656 35.203125 298.488281 37.011719 296.035156 C 38.804688 293.582031 41.007812 291.378906 43.574219 289.640625 C 46.125 287.902344 49.058594 286.640625 52.128906 286.039062 C 55.199219 285.421875 58.414062 285.492188 61.457031 286.207031 C 64.511719 286.921875 67.386719 288.28125 69.886719 290.144531 C 72.382812 292.011719 74.472656 294.351562 76.097656 296.945312 C 77.726562 299.539062 78.902344 302.359375 79.730469 305.246094 L 75.296875 304.980469 C 76.082031 303.128906 76.925781 301.292969 77.949219 299.539062 C 78.972656 297.789062 80.109375 296.089844 81.414062 294.492188 C 84.007812 291.308594 87.246094 288.617188 90.699219 286.554688 C 91.132812 286.304688 91.554688 286.039062 91.988281 285.800781 C 92.410156 285.546875 92.84375 285.308594 93.347656 285.054688 C 94.316406 284.550781 95.3125 284.160156 96.308594 283.808594 C 98.3125 283.136719 100.375 282.714844 102.464844 282.519531 C 106.617188 282.125 110.878906 282.617188 114.808594 284.03125 C 116.769531 284.746094 118.675781 285.617188 120.429688 286.710938 C 120.878906 286.964844 121.3125 287.242188 121.734375 287.539062 C 122.15625 287.832031 122.605469 288.113281 123.011719 288.421875 C 123.824219 289.050781 124.652344 289.683594 125.382812 290.382812 C 128.4375 293.117188 130.992188 296.316406 133.066406 299.734375 C 137.234375 306.578125 139.660156 314.164062 140.894531 321.804688 C 140.964844 322.238281 140.667969 322.632812 140.246094 322.703125 C 139.882812 322.757812 139.53125 322.5625 139.390625 322.226562 L 139.390625 322.210938 C 137.90625 318.679688 136.460938 315.1875 134.804688 311.820312 C 133.164062 308.457031 131.328125 305.21875 129.253906 302.203125 C 128.734375 301.445312 128.160156 300.746094 127.640625 299.988281 C 127.0625 299.289062 126.503906 298.574219 125.914062 297.886719 C 124.695312 296.554688 123.472656 295.234375 122.113281 294.101562 C 119.433594 291.773438 116.417969 289.878906 113.136719 288.703125 C 109.882812 287.480469 106.351562 287.003906 102.886719 287.273438 C 101.160156 287.410156 99.433594 287.75 97.808594 288.28125 C 96.996094 288.5625 96.210938 288.855469 95.464844 289.234375 C 95.117188 289.402344 94.710938 289.628906 94.300781 289.851562 C 93.894531 290.074219 93.515625 290.3125 93.125 290.539062 C 90.011719 292.402344 87.277344 294.6875 85.03125 297.4375 C 82.789062 300.183594 81.019531 303.367188 79.632812 306.734375 C 79.140625 307.925781 77.765625 308.5 76.574219 308.007812 C 75.886719 307.726562 75.410156 307.152344 75.214844 306.492188 L 75.199219 306.464844 C 74.484375 303.96875 73.476562 301.574219 72.128906 299.425781 C 70.78125 297.28125 69.070312 295.375 67.078125 293.890625 C 63.109375 290.890625 57.90625 289.640625 53.042969 290.621094 C 50.613281 291.113281 48.285156 292.109375 46.210938 293.511719 C 44.136719 294.914062 42.3125 296.722656 40.8125 298.78125 C 39.296875 300.84375 38.132812 303.199219 37.222656 305.640625 C 37.011719 306.253906 36.742188 306.859375 36.589844 307.488281 L 36.058594 309.394531 C 35.886719 310.027344 35.789062 310.6875 35.636719 311.34375 C 35.496094 311.992188 35.371094 312.636719 35.300781 313.308594 L 35.03125 315.285156 C 34.964844 315.945312 34.933594 316.617188 34.894531 317.289062 C 34.765625 318.609375 34.792969 319.980469 34.765625 321.34375 C 34.738281 324.0625 34.90625 326.78125 35.144531 329.488281 C 35.691406 334.898438 36.855469 340.226562 38.582031 345.359375 C 40.363281 350.449219 42.703125 355.414062 45.816406 359.675781 C 46.226562 360.195312 46.605469 360.710938 47.023438 361.21875 C 47.460938 361.734375 47.894531 362.253906 48.34375 362.746094 C 49.226562 363.742188 50.152344 364.679688 51.121094 365.535156 C 53.042969 367.246094 55.117188 368.550781 57.457031 369.265625 C 58.621094 369.628906 59.871094 369.867188 61.148438 370.023438 C 62.382812 370.175781 63.726562 370.21875 65.058594 370.21875 C 67.738281 370.234375 70.472656 370.035156 73.167969 369.726562 C 75.84375 369.390625 78.550781 368.941406 80.9375 368.171875 C 81.246094 368.085938 81.511719 367.976562 81.792969 367.863281 C 82.058594 367.765625 82.367188 367.636719 82.660156 367.484375 C 83.25 367.21875 83.839844 366.9375 84.441406 366.613281 C 85.03125 366.320312 85.636719 366 86.238281 365.648438 L 88.046875 364.636719 C 90.472656 363.265625 92.957031 361.847656 95.523438 360.542969 C 98.089844 359.238281 100.753906 358.089844 103.472656 357.082031 C 108.945312 355.117188 114.667969 353.828125 120.429688 353.324219 C 121.890625 353.238281 123.375 353.085938 124.804688 353.058594 L 129.015625 353.070312 L 137.429688 353.085938 L 154.257812 353.113281 L 187.90625 353.183594 L 221.550781 353.113281 L 238.378906 353.085938 L 246.796875 353.070312 L 251.003906 353.058594 C 252.417969 353.085938 253.917969 353.238281 255.378906 353.324219 C 261.140625 353.84375 266.863281 355.132812 272.335938 357.082031 C 275.054688 358.089844 277.71875 359.238281 280.285156 360.542969 C 282.851562 361.847656 285.335938 363.265625 287.761719 364.636719 L 289.570312 365.648438 C 290.175781 365.984375 290.777344 366.304688 291.367188 366.613281 C 291.957031 366.9375 292.558594 367.203125 293.148438 367.484375 C 293.441406 367.625 293.738281 367.765625 294.015625 367.863281 C 294.296875 367.976562 294.5625 368.085938 294.871094 368.171875 C 297.269531 368.941406 299.976562 369.390625 302.640625 369.726562 C 305.335938 370.035156 308.054688 370.234375 310.75 370.21875 C 312.082031 370.21875 313.425781 370.175781 314.660156 370.023438 C 315.9375 369.867188 317.1875 369.617188 318.351562 369.265625 C 320.691406 368.550781 322.769531 367.261719 324.6875 365.535156 C 325.65625 364.679688 326.570312 363.742188 327.464844 362.746094 C 327.914062 362.253906 328.351562 361.734375 328.785156 361.21875 C 329.207031 360.699219 329.597656 360.195312 329.992188 359.675781 C 333.105469 355.414062 335.445312 350.449219 337.226562 345.359375 C 338.953125 340.226562 340.117188 334.898438 340.664062 329.488281 C 340.917969 326.78125 341.070312 324.0625 341.042969 321.34375 C 341.015625 319.980469 341.042969 318.609375 340.917969 317.289062 C 340.859375 316.617188 340.832031 315.957031 340.777344 315.285156 L 340.507812 313.308594 C 340.4375 312.648438 340.3125 311.992188 340.171875 311.34375 C 340.03125 310.699219 339.933594 310.042969 339.765625 309.394531 L 339.234375 307.488281 C 339.078125 306.84375 338.796875 306.253906 338.589844 305.640625 C 337.675781 303.199219 336.511719 300.84375 334.996094 298.78125 C 333.484375 296.722656 331.660156 294.914062 329.585938 293.511719 C 327.507812 292.109375 325.179688 291.097656 322.753906 290.621094 C 317.886719 289.640625 312.683594 290.875 308.730469 293.902344 C 304.71875 296.902344 302.039062 301.515625 300.652344 306.492188 C 300.300781 307.769531 298.96875 308.527344 297.691406 308.175781 C 296.960938 307.980469 296.402344 307.449219 296.121094 306.800781 L 296.105469 306.773438 C 294.703125 303.421875 292.921875 300.269531 290.664062 297.535156 C 288.40625 294.816406 285.6875 292.558594 282.585938 290.691406 C 282.195312 290.46875 281.816406 290.230469 281.410156 290.003906 C 281 289.78125 280.609375 289.558594 280.257812 289.390625 C 279.527344 289.011719 278.742188 288.714844 277.945312 288.433594 C 276.332031 287.902344 274.621094 287.566406 272.910156 287.410156 C 269.460938 287.089844 265.9375 287.511719 262.65625 288.671875 C 259.347656 289.796875 256.289062 291.660156 253.570312 293.972656 C 252.179688 295.109375 250.933594 296.414062 249.726562 297.757812 C 249.136719 298.445312 248.546875 299.148438 247.972656 299.847656 C 247.425781 300.589844 246.863281 301.304688 246.347656 302.0625 C 244.242188 305.09375 242.40625 308.34375 240.792969 311.738281 C 239.179688 315.132812 237.777344 318.648438 236.429688 322.226562 L 236.429688 322.238281 C 236.277344 322.644531 235.828125 322.84375 235.421875 322.6875 C 234.957031 322.546875 234.761719 322.167969 234.832031 321.804688 Z M 234.832031 321.804688 " fill-opacity="1" fill-rule="nonzero"/></g><path fill="#afafb2" d="M 330.664062 362.535156 C 325.097656 369.320312 320.929688 371.578125 315 372.335938 C 312.558594 372.644531 308.910156 372.628906 305.136719 372.335938 C 305.136719 372.335938 305.136719 372.335938 305.125 372.335938 C 295.785156 369.855469 300.621094 356.519531 303.21875 341.378906 C 305.585938 327.46875 301.632812 316.839844 309.554688 302.398438 C 319.164062 284.875 331.6875 292.292969 332.429688 292.738281 C 332.445312 292.738281 332.460938 292.753906 332.472656 292.769531 C 338.417969 297.617188 342.835938 306.171875 343.300781 318.566406 C 344.085938 340.171875 336.316406 355.664062 330.664062 362.535156 Z M 330.664062 362.535156 " fill-opacity="1" fill-rule="nonzero"/><path fill="#afafb2" d="M 70.417969 372.335938 C 66.703125 372.628906 63.097656 372.628906 60.683594 372.335938 C 54.738281 371.578125 50.585938 369.320312 45.019531 362.535156 C 39.378906 355.679688 31.609375 340.171875 32.394531 318.550781 C 32.84375 306.085938 37.320312 297.519531 43.320312 292.667969 C 43.320312 292.667969 43.335938 292.667969 43.335938 292.65625 C 43.855469 292.320312 56.421875 284.691406 66.125 302.386719 C 74.050781 316.828125 70.09375 327.457031 72.464844 341.363281 C 75.046875 356.492188 79.730469 369.839844 70.417969 372.335938 Z M 70.417969 372.335938 " fill-opacity="1" fill-rule="nonzero"/><path fill="#ffffff" d="M 66.125 302.386719 C 70.964844 311.21875 71.371094 318.636719 71.496094 326.25 C 70.980469 321.019531 69.703125 315.636719 66.394531 309.59375 C 56.476562 291.507812 43.644531 299.316406 43.097656 299.652344 C 43.097656 299.652344 43.082031 299.652344 43.082031 299.664062 C 37.796875 303.929688 33.6875 311.023438 32.339844 321.046875 C 32.339844 320.21875 32.355469 319.394531 32.394531 318.550781 C 32.84375 306.085938 37.320312 297.519531 43.320312 292.667969 C 43.320312 292.667969 43.335938 292.667969 43.335938 292.65625 C 43.867188 292.332031 56.433594 284.691406 66.125 302.386719 Z M 66.125 302.386719 " fill-opacity="0.698" fill-rule="nonzero"/><path fill="#afafb2" d="M 71.917969 337.214844 C 71.554688 333.398438 71.554688 329.796875 71.496094 326.25 C 71.863281 329.921875 71.863281 333.527344 71.917969 337.214844 Z M 71.917969 337.214844 " fill-opacity="1" fill-rule="nonzero"/><path fill="#371a45" d="M 70.417969 372.335938 C 66.703125 372.628906 63.097656 372.628906 60.683594 372.335938 C 54.738281 371.578125 50.585938 369.320312 45.019531 362.535156 C 41.878906 358.722656 38.078125 352.214844 35.453125 343.46875 C 35.875 344.042969 36.296875 344.589844 36.703125 345.078125 C 42.269531 351.863281 46.40625 354.332031 52.367188 354.878906 C 63.070312 355.859375 70.726562 345.863281 72.042969 338.433594 C 72.15625 339.402344 72.285156 340.367188 72.453125 341.363281 C 75.046875 356.492188 79.730469 369.839844 70.417969 372.335938 Z M 70.417969 372.335938 " fill-opacity="0.349" fill-rule="nonzero"/><path fill="#371a45" d="M 65.058594 374.902344 C 63.277344 374.902344 61.679688 374.816406 60.390625 374.648438 C 53.519531 373.78125 48.863281 370.890625 43.210938 364.007812 C 36.351562 355.679688 29.296875 339.332031 30.054688 318.46875 C 30.488281 306.4375 34.683594 296.636719 41.847656 290.847656 C 41.917969 290.789062 41.988281 290.75 42.058594 290.691406 C 42.074219 290.679688 42.085938 290.679688 42.085938 290.679688 C 42.664062 290.3125 47.867188 287.203125 54.445312 288.898438 C 59.828125 290.285156 64.441406 294.449219 68.1875 301.265625 C 73.644531 311.203125 73.753906 319.617188 73.867188 327.75 C 73.925781 331.96875 73.980469 336.332031 74.78125 340.972656 C 75.214844 343.550781 75.71875 346.089844 76.210938 348.542969 C 78.59375 360.585938 80.851562 371.972656 71.035156 374.605469 C 70.878906 374.648438 70.726562 374.675781 70.570312 374.675781 C 68.636719 374.832031 66.769531 374.902344 65.058594 374.902344 Z M 70.417969 372.335938 Z M 44.683594 294.589844 C 38.652344 299.527344 35.132812 308.0625 34.738281 318.636719 C 33.8125 343.886719 44.640625 358.398438 46.828125 361.046875 C 52.355469 367.777344 56.070312 369.390625 60.980469 370.007812 C 63.140625 370.273438 66.503906 370.289062 70.011719 370.023438 C 75.128906 368.480469 74.007812 361.527344 71.609375 349.453125 C 71.117188 346.972656 70.613281 344.40625 70.164062 341.757812 C 69.308594 336.75 69.253906 332.207031 69.183594 327.820312 C 69.070312 319.910156 68.972656 312.4375 64.078125 303.523438 C 60.992188 297.886719 57.359375 294.492188 53.265625 293.441406 C 48.902344 292.304688 45.269531 294.238281 44.683594 294.589844 Z M 44.683594 294.589844 " fill-opacity="1" fill-rule="nonzero"/><path fill="#371a45" d="M 70.417969 374.675781 C 69.800781 374.675781 69.199219 374.4375 68.75 373.988281 C 67.835938 373.078125 67.835938 371.59375 68.75 370.679688 C 69.167969 370.261719 69.714844 370.035156 70.261719 369.992188 C 75.285156 369.601562 79.703125 368.746094 82.101562 367.722656 C 84.105469 366.867188 86.253906 365.632812 88.734375 364.230469 C 96.421875 359.84375 106.964844 353.828125 124.203125 353.058594 C 124.246094 353.058594 124.289062 353.058594 124.328125 353.058594 C 124.625 353.058594 154.722656 353.40625 187.820312 353.195312 C 220.960938 353.40625 251.042969 353.070312 251.351562 353.058594 C 251.394531 353.058594 251.4375 353.058594 251.480469 353.058594 C 268.714844 353.828125 279.25 359.84375 286.933594 364.21875 C 289.417969 365.632812 291.5625 366.851562 293.566406 367.722656 C 295.964844 368.746094 300.34375 369.601562 305.308594 369.992188 C 306.597656 370.09375 307.566406 371.226562 307.453125 372.519531 C 307.339844 373.808594 306.21875 374.761719 304.929688 374.664062 C 302.320312 374.453125 295.8125 373.78125 291.71875 372.027344 C 289.457031 371.058594 287.101562 369.714844 284.605469 368.296875 C 276.933594 363.921875 267.382812 358.484375 251.324219 357.738281 C 249.710938 357.753906 220.203125 358.089844 187.804688 357.878906 C 155.449219 358.089844 125.941406 357.769531 124.328125 357.738281 C 108.257812 358.46875 98.707031 363.921875 91.035156 368.296875 C 88.539062 369.714844 86.183594 371.058594 83.925781 372.027344 C 79.882812 373.75 73.449219 374.4375 70.710938 374.664062 C 70.628906 374.675781 70.53125 374.675781 70.417969 374.675781 Z M 70.417969 374.675781 " fill-opacity="1" fill-rule="nonzero"/><path fill="#ffffff" d="M 309.261719 302.386719 C 304.421875 311.21875 304.015625 318.636719 303.890625 326.25 C 304.410156 321.019531 305.699219 315.636719 308.996094 309.59375 C 318.910156 291.507812 331.742188 299.316406 332.289062 299.652344 C 332.289062 299.652344 332.304688 299.652344 332.304688 299.664062 C 337.578125 303.929688 341.703125 311.023438 343.046875 321.046875 C 343.046875 320.21875 343.035156 319.394531 342.992188 318.550781 C 342.542969 306.085938 338.070312 297.519531 332.066406 292.667969 C 332.066406 292.667969 332.050781 292.667969 332.050781 292.65625 C 331.535156 292.332031 318.96875 284.691406 309.261719 302.386719 Z M 309.261719 302.386719 " fill-opacity="0.698" fill-rule="nonzero"/><path fill="#371a45" d="M 304.984375 372.335938 C 308.699219 372.628906 312.304688 372.628906 314.71875 372.335938 C 320.664062 371.578125 324.816406 369.320312 330.382812 362.535156 C 333.523438 358.722656 337.324219 352.214844 339.933594 343.46875 C 339.515625 344.042969 339.09375 344.589844 338.6875 345.078125 C 333.117188 351.863281 328.980469 354.332031 323.019531 354.878906 C 312.320312 355.859375 304.660156 345.863281 303.328125 338.433594 C 303.21875 339.402344 303.089844 340.367188 302.921875 341.363281 C 300.355469 356.492188 295.65625 369.839844 304.984375 372.335938 Z M 304.984375 372.335938 " fill-opacity="0.349" fill-rule="nonzero"/><path fill="#371a45" d="M 65.058594 374.3125 C 63.308594 374.3125 61.738281 374.226562 60.460938 374.074219 C 53.757812 373.21875 49.199219 370.402344 43.660156 363.644531 C 36.871094 355.382812 29.886719 339.191406 30.644531 318.480469 C 31.078125 306.632812 35.1875 296.972656 42.226562 291.296875 C 42.285156 291.253906 42.324219 291.210938 42.382812 291.183594 C 42.394531 291.183594 42.394531 291.167969 42.410156 291.167969 C 42.957031 290.820312 47.964844 287.820312 54.304688 289.457031 C 59.519531 290.804688 64.023438 294.871094 67.667969 301.53125 C 73.054688 311.34375 73.167969 319.671875 73.277344 327.734375 C 73.335938 331.96875 73.390625 336.359375 74.203125 341.054688 C 74.640625 343.648438 75.144531 346.1875 75.636719 348.640625 C 78.074219 360.921875 80.179688 371.523438 70.878906 374.019531 C 70.769531 374.046875 70.640625 374.074219 70.53125 374.074219 C 68.609375 374.242188 66.742188 374.3125 65.058594 374.3125 Z M 70.417969 372.335938 Z M 44.34375 294.101562 C 38.160156 299.132812 34.542969 307.839844 34.148438 318.609375 C 33.210938 344.070312 44.164062 358.734375 46.363281 361.414062 C 52.015625 368.296875 55.832031 369.9375 60.894531 370.582031 C 63.109375 370.863281 66.546875 370.863281 70.109375 370.597656 C 75.777344 368.957031 74.652344 361.777344 72.183594 349.328125 C 71.695312 346.847656 71.1875 344.28125 70.742188 341.644531 C 69.898438 336.679688 69.828125 332.167969 69.773438 327.792969 C 69.660156 319.8125 69.5625 312.269531 64.597656 303.214844 C 61.429688 297.4375 57.667969 293.945312 53.417969 292.851562 C 48.707031 291.644531 44.890625 293.761719 44.34375 294.101562 Z M 44.34375 294.101562 " fill-opacity="1" fill-rule="nonzero"/><path fill="#371a45" d="M 32.367188 325.605469 C 31.441406 325.605469 30.671875 324.875 30.613281 323.9375 C 30.574219 322.96875 31.316406 322.140625 32.269531 322.097656 L 71.273438 320.121094 C 72.242188 320.066406 73.070312 320.824219 73.109375 321.789062 C 73.152344 322.757812 72.421875 323.585938 71.457031 323.628906 L 32.453125 325.605469 C 32.425781 325.605469 32.394531 325.605469 32.367188 325.605469 Z M 32.367188 325.605469 " fill-opacity="1" fill-rule="nonzero"/><path fill="#371a45" d="M 33.558594 311.234375 C 32.636719 311.234375 31.863281 310.519531 31.808594 309.578125 C 31.75 308.609375 32.496094 307.785156 33.460938 307.726562 L 68.484375 305.75 C 69.4375 305.695312 70.277344 306.4375 70.332031 307.40625 C 70.390625 308.371094 69.648438 309.199219 68.679688 309.257812 L 33.660156 311.234375 C 33.628906 311.234375 33.589844 311.234375 33.558594 311.234375 Z M 33.558594 311.234375 " fill-opacity="1" fill-rule="nonzero"/><path fill="#371a45" d="M 34.585938 342.035156 C 33.660156 342.035156 32.886719 341.308594 32.832031 340.367188 C 32.789062 339.402344 33.53125 338.574219 34.484375 338.53125 L 71.945312 336.625 C 72.929688 336.570312 73.742188 337.324219 73.785156 338.292969 C 73.824219 339.261719 73.097656 340.085938 72.128906 340.128906 L 34.667969 342.035156 C 34.640625 342.035156 34.613281 342.035156 34.585938 342.035156 Z M 34.585938 342.035156 " fill-opacity="1" fill-rule="nonzero"/><path fill="#371a45" d="M 41.738281 359.632812 C 40.8125 359.632812 40.027344 358.902344 39.984375 357.964844 C 39.941406 356.996094 40.683594 356.167969 41.652344 356.128906 L 75.171875 354.515625 C 76.125 354.472656 76.96875 355.214844 77.007812 356.183594 C 77.050781 357.152344 76.308594 357.976562 75.339844 358.019531 L 41.820312 359.632812 C 41.808594 359.632812 41.777344 359.632812 41.738281 359.632812 Z M 41.738281 359.632812 " fill-opacity="1" fill-rule="nonzero"/><g clip-path="url(#0755d541d1)"><path fill="#371a45" d="M 343.3125 325.617188 C 343.285156 325.617188 343.257812 325.617188 343.230469 325.617188 L 304.226562 323.640625 C 303.257812 323.585938 302.515625 322.773438 302.558594 321.804688 C 302.613281 320.835938 303.414062 320.09375 304.394531 320.136719 L 343.398438 322.113281 C 344.367188 322.167969 345.109375 322.984375 345.066406 323.949219 C 345.011719 324.890625 344.238281 325.617188 343.3125 325.617188 Z M 343.3125 325.617188 " fill-opacity="1" fill-rule="nonzero"/></g><path fill="#371a45" d="M 342.121094 311.234375 C 342.09375 311.234375 342.050781 311.234375 342.023438 311.234375 L 307.003906 309.257812 C 306.035156 309.199219 305.292969 308.371094 305.347656 307.40625 C 305.40625 306.4375 306.246094 305.695312 307.199219 305.75 L 342.21875 307.726562 C 343.1875 307.785156 343.929688 308.609375 343.875 309.578125 C 343.804688 310.519531 343.035156 311.234375 342.121094 311.234375 Z M 342.121094 311.234375 " fill-opacity="1" fill-rule="nonzero"/><path fill="#371a45" d="M 341.097656 342.066406 C 341.070312 342.066406 341.042969 342.066406 341.015625 342.066406 L 303.554688 340.15625 C 302.585938 340.101562 301.84375 339.289062 301.886719 338.320312 C 301.941406 337.355469 302.753906 336.609375 303.722656 336.652344 L 341.183594 338.558594 C 342.148438 338.617188 342.894531 339.429688 342.851562 340.394531 C 342.796875 341.335938 342.023438 342.066406 341.097656 342.066406 Z M 341.097656 342.066406 " fill-opacity="1" fill-rule="nonzero"/><path fill="#371a45" d="M 333.933594 359.648438 C 333.902344 359.648438 333.875 359.648438 333.847656 359.648438 L 300.285156 358.035156 C 299.316406 357.992188 298.574219 357.164062 298.617188 356.199219 C 298.660156 355.230469 299.488281 354.488281 300.453125 354.527344 L 334.015625 356.140625 C 334.984375 356.183594 335.726562 357.011719 335.683594 357.976562 C 335.628906 358.917969 334.859375 359.648438 333.933594 359.648438 Z M 333.933594 359.648438 " fill-opacity="1" fill-rule="nonzero"/><g clip-path="url(#ce4bc87778)"><path fill="#371a45" d="M 310.609375 374.3125 C 308.882812 374.3125 306.976562 374.226562 305 374.074219 C 304.859375 374.058594 304.730469 374.03125 304.589844 373.988281 C 295.433594 371.496094 297.539062 361.035156 299.976562 348.933594 C 300.496094 346.382812 301.015625 343.761719 301.476562 341.070312 C 302.277344 336.386719 302.332031 331.996094 302.390625 327.761719 C 302.503906 319.703125 302.613281 311.375 308 301.558594 C 311.617188 294.96875 316.078125 290.917969 321.265625 289.558594 C 327.605469 287.886719 332.769531 290.902344 333.34375 291.253906 C 333.425781 291.296875 333.496094 291.351562 333.566406 291.40625 C 340.523438 297.085938 344.605469 306.703125 345.039062 318.496094 C 345.796875 339.191406 338.8125 355.398438 332.023438 363.65625 C 326.484375 370.402344 321.925781 373.234375 315.222656 374.089844 C 313.945312 374.226562 312.375 374.3125 310.609375 374.3125 Z M 305.460938 370.597656 C 309.078125 370.878906 312.558594 370.878906 314.773438 370.597656 C 319.835938 369.953125 323.652344 368.296875 329.304688 361.425781 C 331.503906 358.75 342.457031 344.082031 341.519531 318.621094 C 341.125 307.910156 337.535156 299.230469 331.421875 294.199219 C 330.734375 293.792969 326.878906 291.6875 322.152344 292.949219 C 317.929688 294.058594 314.199219 297.535156 311.070312 303.253906 C 306.105469 312.3125 306.007812 319.84375 305.894531 327.832031 C 305.839844 332.207031 305.769531 336.722656 304.929688 341.6875 C 304.464844 344.433594 303.917969 347.085938 303.398438 349.664062 C 300.945312 361.933594 299.808594 369 305.460938 370.597656 Z M 305.460938 370.597656 " fill-opacity="1" fill-rule="nonzero"/></g><path fill="#371a45" d="M 115.859375 358.019531 C 115.492188 358.019531 115.128906 357.90625 114.820312 357.683594 C 114.035156 357.109375 113.867188 356.015625 114.441406 355.230469 C 114.511719 355.132812 122.101562 344.421875 119.785156 324.0625 C 118.328125 311.261719 113.054688 301.320312 104.933594 296.0625 C 99.535156 292.570312 93.488281 291.632812 87.894531 293.414062 C 86.96875 293.707031 85.984375 293.203125 85.691406 292.277344 C 85.394531 291.351562 85.902344 290.371094 86.828125 290.074219 C 93.433594 287.957031 100.542969 289.039062 106.839844 293.117188 C 115.859375 298.949219 121.691406 309.804688 123.277344 323.667969 C 125.761719 345.5 117.625 356.84375 117.273438 357.320312 C 116.925781 357.769531 116.40625 358.019531 115.859375 358.019531 Z M 115.859375 358.019531 " fill-opacity="1" fill-rule="nonzero"/><path fill="#371a45" d="M 259.390625 358.019531 C 258.855469 358.019531 258.324219 357.769531 257.972656 357.304688 C 257.621094 356.828125 249.5 345.484375 251.96875 323.65625 C 253.542969 309.789062 259.390625 298.9375 268.40625 293.105469 C 274.703125 289.023438 281.816406 287.945312 288.421875 290.0625 C 289.347656 290.355469 289.851562 291.351562 289.558594 292.261719 C 289.261719 293.1875 288.28125 293.691406 287.355469 293.398438 C 281.757812 291.617188 275.714844 292.558594 270.316406 296.046875 C 262.195312 301.304688 256.921875 311.246094 255.460938 324.046875 C 253.148438 344.40625 260.722656 355.117188 260.804688 355.230469 C 261.382812 356.015625 261.199219 357.109375 260.425781 357.683594 C 260.105469 357.90625 259.738281 358.019531 259.390625 358.019531 Z M 259.390625 358.019531 " fill-opacity="1" fill-rule="nonzero"/><path fill="#3aaaff" d="M 200.863281 224.25 L 200.863281 333.875 C 200.863281 341.558594 174.804688 341.558594 174.804688 333.875 L 174.804688 224.25 C 174.804688 232.378906 200.863281 232.378906 200.863281 224.25 Z M 200.863281 224.25 " fill-opacity="1" fill-rule="nonzero"/><path fill="#ffffff" d="M 200.863281 224.25 L 200.863281 228.820312 C 200.863281 236.964844 174.804688 236.964844 174.804688 228.820312 L 174.804688 224.25 C 174.804688 232.378906 200.863281 232.378906 200.863281 224.25 Z M 200.863281 224.25 " fill-opacity="0.4471" fill-rule="nonzero"/><path fill="#371a45" d="M 200.863281 313.996094 L 200.863281 333.875 C 200.863281 341.558594 174.804688 341.558594 174.804688 333.875 L 174.804688 313.996094 C 174.804688 321.664062 200.863281 321.664062 200.863281 313.996094 Z M 200.863281 313.996094 " fill-opacity="0.349" fill-rule="nonzero"/><path fill="#371a45" d="M 187.835938 341.980469 C 180.738281 341.980469 172.464844 339.863281 172.464844 333.875 L 172.464844 224.234375 C 172.464844 222.945312 173.515625 221.894531 174.804688 221.894531 C 176.09375 221.894531 177.148438 222.945312 177.148438 224.234375 C 177.148438 226.015625 181.539062 228.007812 187.835938 228.007812 C 194.132812 228.007812 198.519531 226.027344 198.519531 224.234375 C 198.519531 222.945312 199.574219 221.894531 200.863281 221.894531 C 202.152344 221.894531 203.207031 222.945312 203.207031 224.234375 L 203.207031 333.875 C 203.207031 339.847656 194.929688 341.980469 187.835938 341.980469 Z M 177.148438 230.585938 L 177.148438 333.875 C 177.148438 335.308594 181.214844 337.296875 187.835938 337.296875 C 194.453125 337.296875 198.519531 335.308594 198.519531 333.875 L 198.519531 230.585938 C 195.617188 232.015625 191.71875 232.6875 187.835938 232.6875 C 183.949219 232.6875 180.050781 232.015625 177.148438 230.585938 Z M 177.148438 230.585938 " fill-opacity="1" fill-rule="nonzero"/><path fill="#371a45" d="M 201.226562 224.515625 C 201.226562 224.898438 201.140625 225.277344 200.972656 225.652344 C 200.800781 226.027344 200.546875 226.394531 200.207031 226.746094 C 199.871094 227.101562 199.460938 227.4375 198.972656 227.753906 C 198.480469 228.074219 197.925781 228.367188 197.304688 228.640625 C 196.683594 228.910156 196.007812 229.152344 195.277344 229.363281 C 194.542969 229.578125 193.773438 229.757812 192.960938 229.902344 C 192.148438 230.050781 191.308594 230.160156 190.449219 230.234375 C 189.585938 230.308594 188.714844 230.347656 187.835938 230.347656 C 186.953125 230.347656 186.082031 230.308594 185.222656 230.234375 C 184.359375 230.160156 183.519531 230.050781 182.707031 229.902344 C 181.894531 229.757812 181.125 229.578125 180.394531 229.363281 C 179.660156 229.152344 178.984375 228.910156 178.363281 228.640625 C 177.742188 228.367188 177.1875 228.074219 176.699219 227.753906 C 176.210938 227.4375 175.796875 227.101562 175.460938 226.746094 C 175.125 226.394531 174.871094 226.027344 174.699219 225.652344 C 174.527344 225.277344 174.441406 224.898438 174.441406 224.515625 C 174.441406 224.132812 174.527344 223.753906 174.699219 223.375 C 174.871094 223 175.125 222.636719 175.460938 222.28125 C 175.796875 221.929688 176.210938 221.59375 176.699219 221.273438 C 177.1875 220.957031 177.742188 220.660156 178.363281 220.390625 C 178.984375 220.121094 179.660156 219.878906 180.394531 219.664062 C 181.125 219.453125 181.894531 219.273438 182.707031 219.125 C 183.519531 218.980469 184.359375 218.867188 185.222656 218.792969 C 186.082031 218.71875 186.953125 218.683594 187.835938 218.683594 C 188.714844 218.683594 189.585938 218.71875 190.449219 218.792969 C 191.308594 218.867188 192.148438 218.980469 192.960938 219.125 C 193.773438 219.273438 194.542969 219.453125 195.277344 219.664062 C 196.007812 219.878906 196.683594 220.121094 197.304688 220.390625 C 197.925781 220.660156 198.480469 220.957031 198.972656 221.273438 C 199.460938 221.59375 199.871094 221.929688 200.207031 222.28125 C 200.546875 222.636719 200.800781 223 200.972656 223.375 C 201.140625 223.753906 201.226562 224.132812 201.226562 224.515625 Z M 201.226562 224.515625 " fill-opacity="1" fill-rule="nonzero"/><path fill="#ffffff" d="M 78.203125 232.296875 C 78.203125 232.296875 113.980469 231.230469 118.71875 247.496094 C 126.335938 273.628906 97.613281 279.292969 86.113281 283.261719 C 86.097656 283.261719 68.242188 263.492188 78.203125 232.296875 Z M 78.203125 232.296875 " fill-opacity="1" fill-rule="nonzero"/><path fill="#371a45" d="M 86.097656 285.589844 C 85.453125 285.589844 84.808594 285.324219 84.359375 284.816406 C 83.585938 283.976562 65.71875 263.6875 75.972656 231.582031 C 76.28125 230.628906 77.136719 229.984375 78.132812 229.953125 C 79.675781 229.914062 115.773438 229.042969 120.964844 246.835938 C 128.425781 272.464844 103.980469 280.09375 90.851562 284.1875 C 89.394531 284.636719 88.019531 285.070312 86.867188 285.464844 C 86.617188 285.546875 86.351562 285.589844 86.097656 285.589844 Z M 79.941406 234.609375 C 72.703125 259.398438 83.488281 276.082031 86.898438 280.527344 C 87.710938 280.261719 88.566406 279.996094 89.464844 279.714844 C 106.25 274.46875 122.183594 267.726562 116.476562 248.140625 C 113.207031 236.9375 90.558594 234.609375 80.054688 234.609375 C 80.011719 234.609375 79.96875 234.609375 79.941406 234.609375 Z M 79.941406 234.609375 " fill-opacity="1" fill-rule="nonzero"/><path fill="#371a45" d="M 86.097656 283.246094 C 97.445312 279.335938 125.59375 273.753906 118.984375 248.476562 C 117.375 253.398438 113.921875 257.097656 109.730469 259.960938 C 96.292969 269.15625 77.796875 260.730469 75.648438 244.59375 C 75.621094 244.4375 75.605469 244.269531 75.59375 244.117188 C 72.675781 268.398438 86.097656 283.246094 86.097656 283.246094 Z M 86.097656 283.246094 " fill-opacity="0.349" fill-rule="nonzero"/><g clip-path="url(#8a7cbea472)"><path fill="#d7a84d" d="M 209.429688 68.273438 L 197.964844 98.855469 L 221.378906 95.277344 L 167.371094 179.617188 L 187.445312 123.945312 L 170.71875 126.09375 L 185.53125 68.273438 Z M 209.429688 68.273438 " fill-opacity="1" fill-rule="nonzero"/></g><g clip-path="url(#2ddb60c39e)"><path fill="#d7a84d" d="M 185.53125 68.273438 L 189.835938 68.273438 L 170.71875 126.09375 Z M 167.371094 179.617188 L 191.746094 123.945312 L 187.445312 123.945312 Z M 167.371094 179.617188 " fill-opacity="1" fill-rule="nonzero"/></g></svg>