<svg width="47" height="38" viewBox="0 0 47 38" fill="none" xmlns="http://www.w3.org/2000/svg">
<path id="Vector" d="M1.59723 19.2778L6.5139 15.3612M6.5139 15.3612L23.7222 1.65283L40.9306 15.3612M6.5139 15.3612V34.9445C6.5139 35.4639 6.7729 35.962 7.23393 36.3293C7.69495 36.6965 8.32024 36.9028 8.97223 36.9028H16.3472M40.9306 15.3612L45.8472 19.2778M40.9306 15.3612V34.9445C40.9306 35.4639 40.6716 35.962 40.2105 36.3293C39.7495 36.6965 39.1242 36.9028 38.4722 36.9028H31.0972M16.3472 36.9028C16.9992 36.9028 17.6245 36.6965 18.0855 36.3293C18.5466 35.962 18.8056 35.4639 18.8056 34.9445V27.1112C18.8056 26.5918 19.0646 26.0937 19.5256 25.7264C19.9866 25.3592 20.6119 25.1528 21.2639 25.1528H26.1806C26.8326 25.1528 27.4578 25.3592 27.9189 25.7264C28.3799 26.0937 28.6389 26.5918 28.6389 27.1112V34.9445C28.6389 35.4639 28.8979 35.962 29.3589 36.3293C29.82 36.6965 30.4452 36.9028 31.0972 36.9028M16.3472 36.9028H31.0972" stroke="#755EFF" stroke-width="2" stroke-linecap="round" stroke-linejoin="round"/>
</svg>
