<svg width="28" height="28" viewBox="0 0 28 28" fill="none" xmlns="http://www.w3.org/2000/svg">
<path  class="custom-path"  id="Vector" d="M13.5555 1.72217V3.11106M13.5555 25.3333V26.7222M26.0555 14.2222H24.6667M2.44443 14.2222H1.05554M22.3944 23.0611L21.4125 22.0791M5.6986 6.36522L4.71665 5.38328M22.3944 5.38328L21.4125 6.36522M5.6986 22.0791L4.71665 23.0611M19.1111 14.2222C19.1111 15.6956 18.5258 17.1087 17.4839 18.1505C16.442 19.1924 15.029 19.7777 13.5555 19.7777C12.0821 19.7777 10.669 19.1924 9.62717 18.1505C8.5853 17.1087 7.99999 15.6956 7.99999 14.2222C7.99999 12.7487 8.5853 11.3357 9.62717 10.2938C10.669 9.25193 12.0821 8.66661 13.5555 8.66661C15.029 8.66661 16.442 9.25193 17.4839 10.2938C18.5258 11.3357 19.1111 12.7487 19.1111 14.2222Z" stroke="black" stroke-width="2" stroke-linecap="round" stroke-linejoin="round"/>
</svg>
